<?xml version="1.0" encoding="UTF-8" standalone="no"?>
<!-- Created with Inkscape (http://www.inkscape.org/) -->

<svg
   version="1.1"
   id="svg1"
   width="2666.6667"
   height="1552"
   viewBox="0 0 2666.6667 1552"
   sodipodi:docname="about.svg"
   inkscape:version="1.4 (86a8ad7, 2024-10-11)"
   inkscape:export-filename="..\Angular WIP\smartlab\public\images\about.jpg"
   inkscape:export-xdpi="43.199997"
   inkscape:export-ydpi="43.199997"
   xmlns:inkscape="http://www.inkscape.org/namespaces/inkscape"
   xmlns:sodipodi="http://sodipodi.sourceforge.net/DTD/sodipodi-0.dtd"
   xmlns="http://www.w3.org/2000/svg"
   xmlns:svg="http://www.w3.org/2000/svg">
  <defs
     id="defs1">
    <clipPath
       clipPathUnits="userSpaceOnUse"
       id="clipPath1">
      <path
         d="m -0.25,-0.25 h 2000.5 v 1164.5 H -0.25 Z"
         transform="translate(-2000.0001)"
         id="path1" />
    </clipPath>
    <clipPath
       clipPathUnits="userSpaceOnUse"
       id="clipPath3">
      <path
         d="M 440.082,52.75 H 1668.5 V 1009.3 H 440.082 Z"
         transform="translate(-1633.9023,-535.39841)"
         id="path3" />
    </clipPath>
    <clipPath
       clipPathUnits="userSpaceOnUse"
       id="clipPath4">
      <path
         d="M 440.082,52.75 H 1668.5 V 1009.3 H 440.082 Z"
         transform="translate(-1029.4767,-196.0039)"
         id="path4" />
    </clipPath>
    <clipPath
       clipPathUnits="userSpaceOnUse"
       id="clipPath5">
      <path
         d="M 440.082,52.75 H 1668.5 V 1009.3 H 440.082 Z"
         transform="translate(-1056.3984,-388.83591)"
         id="path5" />
    </clipPath>
    <clipPath
       clipPathUnits="userSpaceOnUse"
       id="clipPath6">
      <path
         d="M 440.082,52.75 H 1668.5 V 1009.3 H 440.082 Z"
         transform="translate(-765.88674,-114.1797)"
         id="path6" />
    </clipPath>
    <clipPath
       clipPathUnits="userSpaceOnUse"
       id="clipPath7">
      <path
         d="M 440.082,52.75 H 1668.5 V 1009.3 H 440.082 Z"
         transform="translate(-587.56252,-265.04301)"
         id="path7" />
    </clipPath>
    <clipPath
       clipPathUnits="userSpaceOnUse"
       id="clipPath8">
      <path
         d="M 440.082,52.75 H 1668.5 V 1009.3 H 440.082 Z"
         transform="translate(-792.32424,-484.66411)"
         id="path8" />
    </clipPath>
    <clipPath
       clipPathUnits="userSpaceOnUse"
       id="clipPath9">
      <path
         d="M 440.082,52.75 H 1668.5 V 1009.3 H 440.082 Z"
         transform="translate(-842.6602,-779.55864)"
         id="path9" />
    </clipPath>
    <clipPath
       clipPathUnits="userSpaceOnUse"
       id="clipPath10">
      <path
         d="M 440.082,52.75 H 1668.5 V 1009.3 H 440.082 Z"
         transform="translate(-831.4141,-837.51955)"
         id="path10" />
    </clipPath>
    <clipPath
       clipPathUnits="userSpaceOnUse"
       id="clipPath11">
      <path
         d="M 440.082,52.75 H 1668.5 V 1009.3 H 440.082 Z"
         transform="translate(-744.92192,-924.19142)"
         id="path11" />
    </clipPath>
    <clipPath
       clipPathUnits="userSpaceOnUse"
       id="clipPath12">
      <path
         d="M 440.082,52.75 H 1668.5 V 1009.3 H 440.082 Z"
         transform="translate(-580.57031,-987.66805)"
         id="path12" />
    </clipPath>
    <clipPath
       clipPathUnits="userSpaceOnUse"
       id="clipPath13">
      <path
         d="M 440.082,52.75 H 1668.5 V 1009.3 H 440.082 Z"
         transform="translate(-1668.2539,-662.14841)"
         id="path13" />
    </clipPath>
    <clipPath
       clipPathUnits="userSpaceOnUse"
       id="clipPath14">
      <path
         d="M 440.082,52.75 H 1668.5 V 1009.3 H 440.082 Z"
         transform="translate(-1405.5156,-512.31641)"
         id="path14" />
    </clipPath>
    <clipPath
       clipPathUnits="userSpaceOnUse"
       id="clipPath15">
      <path
         d="M 440.082,52.75 H 1668.5 V 1009.3 H 440.082 Z"
         transform="translate(-1478.8047,-582.89842)"
         id="path15" />
    </clipPath>
    <clipPath
       clipPathUnits="userSpaceOnUse"
       id="clipPath16">
      <path
         d="M 440.082,52.75 H 1668.5 V 1009.3 H 440.082 Z"
         transform="translate(-1544.7267,-675.19532)"
         id="path16" />
    </clipPath>
    <clipPath
       clipPathUnits="userSpaceOnUse"
       id="clipPath17">
      <path
         d="M 440.082,52.75 H 1668.5 V 1009.3 H 440.082 Z"
         transform="translate(-718.97272,-525.21481)"
         id="path17" />
    </clipPath>
    <clipPath
       clipPathUnits="userSpaceOnUse"
       id="clipPath18">
      <path
         d="M 440.082,52.75 H 1668.5 V 1009.3 H 440.082 Z"
         transform="translate(-893.64452,-964.27345)"
         id="path18" />
    </clipPath>
    <clipPath
       clipPathUnits="userSpaceOnUse"
       id="clipPath19">
      <path
         d="M 440.082,52.75 H 1668.5 V 1009.3 H 440.082 Z"
         transform="translate(-1298.9883,-959.55475)"
         id="path19" />
    </clipPath>
    <clipPath
       clipPathUnits="userSpaceOnUse"
       id="clipPath20">
      <path
         d="M 440.082,52.75 H 1668.5 V 1009.3 H 440.082 Z"
         transform="translate(-893.45702,-957.15625)"
         id="path20" />
    </clipPath>
    <clipPath
       clipPathUnits="userSpaceOnUse"
       id="clipPath39">
      <path
         d="M 335.33,35.989 H 1693.68 V 1040.24 H 335.33 Z"
         transform="translate(-779.06072,-497.23701)"
         id="path39" />
    </clipPath>
    <clipPath
       clipPathUnits="userSpaceOnUse"
       id="clipPath40">
      <path
         d="M 335.33,35.989 H 1693.68 V 1040.24 H 335.33 Z"
         transform="translate(-902.02405,-599.98912)"
         id="path40" />
    </clipPath>
    <clipPath
       clipPathUnits="userSpaceOnUse"
       id="clipPath41">
      <path
         d="M 335.33,35.989 H 1693.68 V 1040.24 H 335.33 Z"
         transform="translate(-763.84892,-484.66491)"
         id="path41" />
    </clipPath>
    <clipPath
       clipPathUnits="userSpaceOnUse"
       id="clipPath42">
      <path
         d="M 335.33,35.989 H 1693.68 V 1040.24 H 335.33 Z"
         transform="translate(-888.56605,-460.30361)"
         id="path42" />
    </clipPath>
    <clipPath
       clipPathUnits="userSpaceOnUse"
       id="clipPath43">
      <path
         d="M 335.33,35.989 H 1693.68 V 1040.24 H 335.33 Z"
         transform="translate(-1075.5,-481.69921)"
         id="path43" />
    </clipPath>
    <clipPath
       clipPathUnits="userSpaceOnUse"
       id="clipPath44">
      <path
         d="M 335.33,35.989 H 1693.68 V 1040.24 H 335.33 Z"
         transform="translate(-1062.2578,-663.37502)"
         id="path44" />
    </clipPath>
    <clipPath
       clipPathUnits="userSpaceOnUse"
       id="clipPath45">
      <path
         d="M 335.33,35.989 H 1693.68 V 1040.24 H 335.33 Z"
         transform="translate(-848.7637,-679.78162)"
         id="path45" />
    </clipPath>
    <clipPath
       clipPathUnits="userSpaceOnUse"
       id="clipPath46">
      <path
         d="M 335.33,35.989 H 1693.68 V 1040.24 H 335.33 Z"
         transform="translate(-1023.1348,-458.17861)"
         id="path46" />
    </clipPath>
    <clipPath
       clipPathUnits="userSpaceOnUse"
       id="clipPath47">
      <path
         d="M 335.33,35.989 H 1693.68 V 1040.24 H 335.33 Z"
         transform="translate(-929.0254,-329.41051)"
         id="path47" />
    </clipPath>
    <clipPath
       clipPathUnits="userSpaceOnUse"
       id="clipPath48">
      <path
         d="M 335.33,35.989 H 1693.68 V 1040.24 H 335.33 Z"
         transform="translate(-808.84345,-380.82071)"
         id="path48" />
    </clipPath>
    <clipPath
       clipPathUnits="userSpaceOnUse"
       id="clipPath49">
      <path
         d="M 335.33,35.989 H 1693.68 V 1040.24 H 335.33 Z"
         transform="translate(-700.52332,-424.35511)"
         id="path49" />
    </clipPath>
    <clipPath
       clipPathUnits="userSpaceOnUse"
       id="clipPath50">
      <path
         d="M 335.33,35.989 H 1693.68 V 1040.24 H 335.33 Z"
         transform="translate(-632.74241,-439.64881)"
         id="path50" />
    </clipPath>
    <clipPath
       clipPathUnits="userSpaceOnUse"
       id="clipPath51">
      <path
         d="M 335.33,35.989 H 1693.68 V 1040.24 H 335.33 Z"
         transform="translate(-566.63281,-181.90701)"
         id="path51" />
    </clipPath>
    <clipPath
       clipPathUnits="userSpaceOnUse"
       id="clipPath52">
      <path
         d="M 335.33,35.989 H 1693.68 V 1040.24 H 335.33 Z"
         transform="translate(-1030.998,-374.44761)"
         id="path52" />
    </clipPath>
    <clipPath
       clipPathUnits="userSpaceOnUse"
       id="clipPath53">
      <path
         d="M 335.33,35.989 H 1693.68 V 1040.24 H 335.33 Z"
         transform="translate(-564.71291,-642.44372)"
         id="path53" />
    </clipPath>
    <clipPath
       clipPathUnits="userSpaceOnUse"
       id="clipPath54">
      <path
         d="M 335.33,35.989 H 1693.68 V 1040.24 H 335.33 Z"
         transform="translate(-942.98635,-354.22691)"
         id="path54" />
    </clipPath>
    <clipPath
       clipPathUnits="userSpaceOnUse"
       id="clipPath55">
      <path
         d="M 335.33,35.989 H 1693.68 V 1040.24 H 335.33 Z"
         transform="translate(-1641.4977,-779.15724)"
         id="path55" />
    </clipPath>
    <clipPath
       clipPathUnits="userSpaceOnUse"
       id="clipPath56">
      <path
         d="M 335.33,35.989 H 1693.68 V 1040.24 H 335.33 Z"
         transform="translate(-494.67001,-1038.0492)"
         id="path56" />
    </clipPath>
    <clipPath
       clipPathUnits="userSpaceOnUse"
       id="clipPath57">
      <path
         d="M 335.33,35.989 H 1693.68 V 1040.24 H 335.33 Z"
         transform="translate(-746.65472,-916.16635)"
         id="path57" />
    </clipPath>
    <clipPath
       clipPathUnits="userSpaceOnUse"
       id="clipPath58">
      <path
         d="M 335.33,35.989 H 1693.68 V 1040.24 H 335.33 Z"
         transform="translate(-517.42291,-971.82422)"
         id="path58" />
    </clipPath>
    <clipPath
       clipPathUnits="userSpaceOnUse"
       id="clipPath59">
      <path
         d="M 335.33,35.989 H 1693.68 V 1040.24 H 335.33 Z"
         transform="translate(-1295.7153,-544.49111)"
         id="path59" />
    </clipPath>
    <clipPath
       clipPathUnits="userSpaceOnUse"
       id="clipPath60">
      <path
         d="M 335.33,35.989 H 1693.68 V 1040.24 H 335.33 Z"
         transform="translate(-1379.1489,-851.57072)"
         id="path60" />
    </clipPath>
    <clipPath
       clipPathUnits="userSpaceOnUse"
       id="clipPath61">
      <path
         d="M 335.33,35.989 H 1693.68 V 1040.24 H 335.33 Z"
         transform="translate(-1328.2465,-812.2582)"
         id="path61" />
    </clipPath>
    <clipPath
       clipPathUnits="userSpaceOnUse"
       id="clipPath62">
      <path
         d="M 335.33,35.989 H 1693.68 V 1040.24 H 335.33 Z"
         transform="translate(-1315.2345,-752.96094)"
         id="path62" />
    </clipPath>
    <clipPath
       clipPathUnits="userSpaceOnUse"
       id="clipPath63">
      <path
         d="M 335.33,35.989 H 1693.68 V 1040.24 H 335.33 Z"
         transform="translate(-1319.7109,-706.92972)"
         id="path63" />
    </clipPath>
    <clipPath
       clipPathUnits="userSpaceOnUse"
       id="clipPath64">
      <path
         d="M 335.33,35.989 H 1693.68 V 1040.24 H 335.33 Z"
         transform="translate(-1333.0704,-687.49222)"
         id="path64" />
    </clipPath>
    <clipPath
       clipPathUnits="userSpaceOnUse"
       id="clipPath65">
      <path
         d="M 335.33,35.989 H 1693.68 V 1040.24 H 335.33 Z"
         transform="translate(-1684.5859,-692.88281)"
         id="path65" />
    </clipPath>
    <clipPath
       clipPathUnits="userSpaceOnUse"
       id="clipPath66">
      <path
         d="M 335.33,35.989 H 1693.68 V 1040.24 H 335.33 Z"
         transform="translate(-1305.0258,-566.68981)"
         id="path66" />
    </clipPath>
    <clipPath
       clipPathUnits="userSpaceOnUse"
       id="clipPath67">
      <path
         d="M 335.33,35.989 H 1693.68 V 1040.24 H 335.33 Z"
         transform="translate(-1382.5743,-712.70902)"
         id="path67" />
    </clipPath>
    <clipPath
       clipPathUnits="userSpaceOnUse"
       id="clipPath68">
      <path
         d="M 335.33,35.989 H 1693.68 V 1040.24 H 335.33 Z"
         transform="translate(-1451.9106,-773.88542)"
         id="path68" />
    </clipPath>
    <clipPath
       clipPathUnits="userSpaceOnUse"
       id="clipPath69">
      <path
         d="M 335.33,35.989 H 1693.68 V 1040.24 H 335.33 Z"
         transform="translate(-1446.3097,-763.54944)"
         id="path69" />
    </clipPath>
    <clipPath
       clipPathUnits="userSpaceOnUse"
       id="clipPath70">
      <path
         d="M 335.33,35.989 H 1693.68 V 1040.24 H 335.33 Z"
         transform="translate(-1541.4526,-773.87214)"
         id="path70" />
    </clipPath>
    <clipPath
       clipPathUnits="userSpaceOnUse"
       id="clipPath71">
      <path
         d="M 335.33,35.989 H 1693.68 V 1040.24 H 335.33 Z"
         transform="translate(-1032.7107,-699.12542)"
         id="path71" />
    </clipPath>
    <clipPath
       clipPathUnits="userSpaceOnUse"
       id="clipPath72">
      <path
         d="M 335.33,35.989 H 1693.68 V 1040.24 H 335.33 Z"
         transform="translate(-858.68635,-736.73972)"
         id="path72" />
    </clipPath>
    <clipPath
       clipPathUnits="userSpaceOnUse"
       id="clipPath73">
      <path
         d="M 335.33,35.989 H 1693.68 V 1040.24 H 335.33 Z"
         transform="translate(-1241.8086,-715.16412)"
         id="path73" />
    </clipPath>
    <clipPath
       clipPathUnits="userSpaceOnUse"
       id="clipPath74">
      <path
         d="M 335.33,35.989 H 1693.68 V 1040.24 H 335.33 Z"
         transform="translate(-1270.4041,-764.60334)"
         id="path74" />
    </clipPath>
    <clipPath
       clipPathUnits="userSpaceOnUse"
       id="clipPath75">
      <path
         d="M 335.33,35.989 H 1693.68 V 1040.24 H 335.33 Z"
         transform="translate(-1256.5918,-770.19489)"
         id="path75" />
    </clipPath>
    <clipPath
       clipPathUnits="userSpaceOnUse"
       id="clipPath76">
      <path
         d="M 335.33,35.989 H 1693.68 V 1040.24 H 335.33 Z"
         transform="translate(-1325.5047,-765.05244)"
         id="path76" />
    </clipPath>
    <clipPath
       clipPathUnits="userSpaceOnUse"
       id="clipPath77">
      <path
         d="M 335.33,35.989 H 1693.68 V 1040.24 H 335.33 Z"
         transform="translate(-1308.8202,-823.88282)"
         id="path77" />
    </clipPath>
    <clipPath
       clipPathUnits="userSpaceOnUse"
       id="clipPath78">
      <path
         d="M 335.33,35.989 H 1693.68 V 1040.24 H 335.33 Z"
         transform="translate(-850.21292,-845.51545)"
         id="path78" />
    </clipPath>
    <clipPath
       clipPathUnits="userSpaceOnUse"
       id="clipPath79">
      <path
         d="M 335.33,35.989 H 1693.68 V 1040.24 H 335.33 Z"
         transform="translate(-762.11724,-917.17225)"
         id="path79" />
    </clipPath>
    <clipPath
       clipPathUnits="userSpaceOnUse"
       id="clipPath80">
      <path
         d="M 335.33,35.989 H 1693.68 V 1040.24 H 335.33 Z"
         transform="translate(-1277.541,-962.0902)"
         id="path80" />
    </clipPath>
    <clipPath
       clipPathUnits="userSpaceOnUse"
       id="clipPath81">
      <path
         d="M 335.33,35.989 H 1693.68 V 1040.24 H 335.33 Z"
         transform="translate(-773.25782,-936.8578)"
         id="path81" />
    </clipPath>
    <clipPath
       clipPathUnits="userSpaceOnUse"
       id="clipPath82">
      <path
         d="M 335.33,35.989 H 1693.68 V 1040.24 H 335.33 Z"
         transform="translate(-1403.7309,-837.44642)"
         id="path82" />
    </clipPath>
    <clipPath
       clipPathUnits="userSpaceOnUse"
       id="clipPath83">
      <path
         d="M 335.33,35.989 H 1693.68 V 1040.24 H 335.33 Z"
         transform="translate(-1397.9106,-838.7608)"
         id="path83" />
    </clipPath>
    <clipPath
       clipPathUnits="userSpaceOnUse"
       id="clipPath84">
      <path
         d="M 335.33,35.989 H 1693.68 V 1040.24 H 335.33 Z"
         transform="translate(-1389.6363,-840.0577)"
         id="path84" />
    </clipPath>
    <clipPath
       clipPathUnits="userSpaceOnUse"
       id="clipPath85">
      <path
         d="M 335.33,35.989 H 1693.68 V 1040.24 H 335.33 Z"
         transform="translate(-1276.1895,-990.0586)"
         id="path85" />
    </clipPath>
    <clipPath
       clipPathUnits="userSpaceOnUse"
       id="clipPath86">
      <path
         d="M 335.33,35.989 H 1693.68 V 1040.24 H 335.33 Z"
         transform="translate(-1277.5648,-990.13405)"
         id="path86" />
    </clipPath>
    <clipPath
       clipPathUnits="userSpaceOnUse"
       id="clipPath87">
      <path
         d="M 335.33,35.989 H 1693.68 V 1040.24 H 335.33 Z"
         transform="translate(-1412.4375,-840.56095)"
         id="path87" />
    </clipPath>
    <clipPath
       clipPathUnits="userSpaceOnUse"
       id="clipPath88">
      <path
         d="M 335.33,35.989 H 1693.68 V 1040.24 H 335.33 Z"
         transform="translate(-1389.2944,-844.09315)"
         id="path88" />
    </clipPath>
    <clipPath
       clipPathUnits="userSpaceOnUse"
       id="clipPath89">
      <path
         d="M 335.33,35.989 H 1693.68 V 1040.24 H 335.33 Z"
         transform="translate(-1174.4169,-979.40522)"
         id="path89" />
    </clipPath>
    <clipPath
       clipPathUnits="userSpaceOnUse"
       id="clipPath90">
      <path
         d="M 335.33,35.989 H 1693.68 V 1040.24 H 335.33 Z"
         transform="translate(-1205.3271,-971.83495)"
         id="path90" />
    </clipPath>
    <clipPath
       clipPathUnits="userSpaceOnUse"
       id="clipPath91">
      <path
         d="M 335.33,35.989 H 1693.68 V 1040.24 H 335.33 Z"
         transform="translate(-1178.7762,-975.58885)"
         id="path91" />
    </clipPath>
    <clipPath
       clipPathUnits="userSpaceOnUse"
       id="clipPath92">
      <path
         d="M 335.33,35.989 H 1693.68 V 1040.24 H 335.33 Z"
         transform="translate(-1197.6591,-967.8076)"
         id="path92" />
    </clipPath>
    <clipPath
       clipPathUnits="userSpaceOnUse"
       id="clipPath93">
      <path
         d="M 335.33,35.989 H 1693.68 V 1040.24 H 335.33 Z"
         transform="translate(-1108.167,-959.36612)"
         id="path93" />
    </clipPath>
    <clipPath
       clipPathUnits="userSpaceOnUse"
       id="clipPath94">
      <path
         d="M 335.33,35.989 H 1693.68 V 1040.24 H 335.33 Z"
         transform="translate(-1295.6451,-959.42852)"
         id="path94" />
    </clipPath>
    <clipPath
       clipPathUnits="userSpaceOnUse"
       id="clipPath95">
      <path
         d="M 335.33,35.989 H 1693.68 V 1040.24 H 335.33 Z"
         transform="translate(-1305.8901,-947.95345)"
         id="path95" />
    </clipPath>
    <clipPath
       clipPathUnits="userSpaceOnUse"
       id="clipPath96">
      <path
         d="M 335.33,35.989 H 1693.68 V 1040.24 H 335.33 Z"
         transform="translate(-1317.0762,-934.85575)"
         id="path96" />
    </clipPath>
    <clipPath
       clipPathUnits="userSpaceOnUse"
       id="clipPath97">
      <path
         d="M 335.33,35.989 H 1693.68 V 1040.24 H 335.33 Z"
         transform="translate(-1383.9495,-861.29612)"
         id="path97" />
    </clipPath>
    <clipPath
       clipPathUnits="userSpaceOnUse"
       id="clipPath98">
      <path
         d="M 335.33,35.989 H 1693.68 V 1040.24 H 335.33 Z"
         transform="translate(-1394.5224,-848.37505)"
         id="path98" />
    </clipPath>
    <clipPath
       clipPathUnits="userSpaceOnUse"
       id="clipPath99">
      <path
         d="M 335.33,35.989 H 1693.68 V 1040.24 H 335.33 Z"
         transform="translate(-1403.3175,-838.40972)"
         id="path99" />
    </clipPath>
    <clipPath
       clipPathUnits="userSpaceOnUse"
       id="clipPath100">
      <path
         d="M 335.33,35.989 H 1693.68 V 1040.24 H 335.33 Z"
         transform="translate(-1343.9875,-907.99262)"
         id="path100" />
    </clipPath>
    <clipPath
       clipPathUnits="userSpaceOnUse"
       id="clipPath101">
      <path
         d="M 335.33,35.989 H 1693.68 V 1040.24 H 335.33 Z"
         transform="translate(-878.81582,-847.09345)"
         id="path101" />
    </clipPath>
    <clipPath
       clipPathUnits="userSpaceOnUse"
       id="clipPath102">
      <path
         d="M 335.33,35.989 H 1693.68 V 1040.24 H 335.33 Z"
         transform="translate(-873.8776,-966.69812)"
         id="path102" />
    </clipPath>
    <clipPath
       clipPathUnits="userSpaceOnUse"
       id="clipPath103">
      <path
         d="M 335.33,35.989 H 1693.68 V 1040.24 H 335.33 Z"
         transform="translate(-1266.5911,-727.84752)"
         id="path103" />
    </clipPath>
  </defs>
  <sodipodi:namedview
     id="namedview1"
     pagecolor="#ffffff"
     bordercolor="#000000"
     borderopacity="0.25"
     inkscape:showpageshadow="2"
     inkscape:pageopacity="0.0"
     inkscape:pagecheckerboard="0"
     inkscape:deskcolor="#d1d1d1"
     inkscape:zoom="0.19819037"
     inkscape:cx="436.44906"
     inkscape:cy="1397.6461"
     inkscape:window-width="1920"
     inkscape:window-height="1051"
     inkscape:window-x="-9"
     inkscape:window-y="-9"
     inkscape:window-maximized="1"
     inkscape:current-layer="g1">
    <inkscape:page
       x="0"
       y="0"
       inkscape:label="1"
       id="page1"
       width="2666.6667"
       height="1552"
       margin="0"
       bleed="0" />
  </sodipodi:namedview>
  <g
     id="g1"
     inkscape:groupmode="layer"
     inkscape:label="1">
    <g
       id="g2"
       style="display:inline;fill:#ed5511;fill-opacity:1">
      <path
         d="m 0,0 c 0,0 0,1164 0,1164 0,0 -2000,0 -2000,0 0,0 0,-1164 0,-1164 z"
         style="fill:#ed5511;fill-opacity:1;fill-rule:nonzero;stroke:none"
         transform="matrix(1.3333333,0,0,1.3333333,2666.6667,0)"
         clip-path="url(#clipPath1)"
         id="path2"
         inkscape:label="path2" />
    </g>
    <g
       id="g38">
      <path
         id="path21"
         clip-path="url(#clipPath3)"
         style="fill:#ffffff;fill-opacity:1;fill-rule:nonzero;stroke:none"
         d="M -947.28172 -481.67234 C -948.66888 -481.65225 -950.05662 -481.58493 -951.44187 -481.46872 C -959.35197 -480.67572 -967.30911 -479.53174 -974.96141 -477.35984 C -976.59421 -476.94974 -977.91355 -477.43752 -978.78465 -478.33982 C -985.33935 -475.66402 -991.6724 -472.36712 -997.7075 -468.34372 C -1037.0552 -439.92572 -1061.6674 -389.5239 -1058.3432 -340.9653 C -1058.1284 -337.0434 -1057.7964 -333.13286 -1057.3472 -329.24216 C -1052.7652 -316.26176 -1044.7851 -304.55906 -1033.9609 -295.43796 C -1021.9453 -285.22706 -1008.4066 -276.93352 -994.48484 -269.59372 C -984.21134 -264.35932 -973.51562 -260.61712 -962.08982 -259.84372 C -940.88672 -258.60542 -920.18017 -268.35496 -904.25047 -281.80026 C -887.64887 -296.96826 -876.45263 -317.32419 -868.46433 -338.13669 C -859.37843 -364.12889 -860.02779 -395.00733 -868.01609 -421.21823 C -872.11769 -433.26513 -879.98432 -443.49164 -889.02342 -452.28464 C -898.05862 -461.14794 -907.92577 -469.33254 -919.24607 -475.10984 C -927.8867 -479.60445 -937.57155 -481.81295 -947.28172 -481.67234 z M -668.75632 -371.01804 C -680.16351 -370.82345 -691.43142 -367.97552 -701.76511 -362.99655 C -711.31201 -353.26995 -715.11664 -338.48868 -712.53464 -325.20358 C -709.62054 -310.54728 -697.42621 -299.70258 -683.71531 -294.93698 C -656.98091 -284.92918 -629.31636 -295.58252 -614.05466 -319.22702 C -609.28516 -326.43022 -606.28954 -332.56689 -604.42624 -339.39499 C -613.53954 -350.84809 -625.89459 -360.17924 -642.26169 -366.40964 C -650.92795 -369.71482 -659.88406 -371.16938 -668.75632 -371.01804 z M -1056.6645 -273.45651 C -1064.5044 -267.65181 -1071.4487 -260.74941 -1076.812 -252.26901 C -1088.2377 -234.31971 -1094.4609 -212.33596 -1093.9961 -190.80856 C -1086.1367 -173.19136 -1067.8593 -165.5702 -1049.3828 -172.457 C -1030.1445 -179.0624 -1019.4721 -199.99654 -1017.8432 -219.30124 C -1016.4604 -240.92234 -1027.1215 -260.25384 -1046.3403 -270.35544 C -1049.5864 -271.98044 -1053.0161 -273.27681 -1056.6645 -273.45651 z M -484.7529 -199.45114 C -500.52567 -199.50461 -516.30124 -199.21528 -532.06589 -198.59713 C -549.10109 -196.89003 -566.0815 -194.64057 -583.0073 -192.00387 C -584.9487 -183.99217 -587.28952 -176.08198 -590.03562 -168.32028 C -571.21132 -162.62498 -563.43405 -143.60931 -565.18015 -125.03121 C -536.39495 -129.16791 -507.14832 -128.37891 -478.22262 -125.83981 C -451.96862 -123.63281 -425.88713 -121.88617 -399.92233 -117.80807 C -389.12543 -115.76507 -378.31632 -113.47603 -367.78512 -110.28463 C -363.39442 -111.47213 -358.93747 -112.39107 -354.43747 -113.01217 C -279.28907 -116.47317 -201.3125 -76.102087 -133.9609 -46.086387 C -65.761697 -14.980987 1.3867883 34.784786 33.652388 103.26909 C 30.875088 66.687086 20.063032 30.598228 0.00053203126 0.00052828126 C -22.518968 -32.515072 -53.992108 -57.187907 -85.281208 -80.785607 C -108.34371 -98.367607 -132.03162 -115.10547 -156.73482 -130.31637 C -189.77382 -152.35157 -227.36325 -165.35988 -266.05465 -173.32858 C -291.71475 -179.00438 -317.2812 -185.38322 -343.2695 -189.41842 C -390.1445 -196.05412 -437.43459 -199.29071 -484.7529 -199.45114 z M -602.9028 -160.94918 C -605.4224 -160.96478 -608.11717 -160.75728 -610.99607 -160.31198 C -616.17967 -159.09718 -621.17527 -157.34718 -625.99167 -155.19088 C -626.14787 -153.93308 -627.82415 -153.53469 -628.79685 -152.82369 C -633.26165 -149.65969 -637.17969 -145.39108 -640.19919 -140.89108 C -643.92969 -135.60208 -650.48877 -117.24215 -638.44577 -118.86715 C -629.62157 -121.37495 -623.4878 -129.01216 -615.6323 -133.37936 C -610.1909 -136.76216 -603.97708 -138.65179 -597.64108 -139.38229 C -592.93408 -140.03469 -588.1411 -140.07808 -583.4614 -140.94528 C -580.6724 -141.39058 -577.6953 -143.17967 -577.5156 -146.25387 C -577.5156 -146.35547 -577.51168 -146.46135 -577.50388 -146.56295 C -580.51948 -152.72705 -585.69484 -157.49944 -593.28464 -159.66744 C -593.31204 -159.67524 -593.33634 -159.68308 -593.36374 -159.69088 C -593.51604 -159.73388 -593.6714 -159.77776 -593.8237 -159.81686 C -594.0034 -159.86766 -594.19088 -159.91458 -594.37448 -159.95748 C -594.53068 -159.99658 -594.69475 -160.03518 -594.85495 -160.07028 C -594.89785 -160.08588 -594.94183 -160.09314 -594.98093 -160.10104 C -595.15273 -160.14004 -595.32075 -160.1758 -595.49655 -160.2109 C -595.97705 -160.3164 -596.46433 -160.40663 -596.96433 -160.48483 C -597.22613 -160.52773 -597.49267 -160.56681 -597.75827 -160.60201 C -597.98097 -160.63321 -598.20746 -160.65968 -598.43796 -160.68698 C -598.66846 -160.71818 -598.89887 -160.74218 -599.12937 -160.76168 C -599.29737 -160.78118 -599.4687 -160.79686 -599.6406 -160.80856 C -600.1094 -160.85156 -600.58588 -160.88281 -601.07028 -160.90231 C -601.19528 -160.91021 -601.32371 -160.91355 -601.45261 -160.92135 C -601.92921 -160.94085 -602.4107 -160.95308 -602.9028 -160.94918 z M -761.5615 -140.48239 C -766.29251 -140.61819 -771.03661 -140.45161 -775.73386 -140.03561 C -791.55816 -138.95751 -807.1445 -135.91455 -822.4492 -131.80905 C -836.7226 -128.19185 -850.85147 -123.93349 -864.55467 -118.51559 C -871.62887 -115.76159 -878.66398 -112.76211 -885.00388 -108.53561 C -896.42968 -100.53561 -904.851 -88.546386 -909.4448 -75.444786 C -913.726 -63.206586 -914.27682 -50.210942 -913.07762 -37.363242 C -911.17532 -31.289042 -909.39064 -25.156724 -907.78514 -18.922324 C -903.01174 -1.0942238 -899.77775 17.104978 -897.86375 35.452678 C -896.13715 72.331578 -885.52781 101.03958 -850.77781 118.40678 C -837.09811 124.56698 -823.73777 129.00348 -810.73777 131.64018 C -783.23377 131.13628 -770.05518 126.39121 -744.94578 109.92241 C -724.26998 95.977106 -706.48489 76.651834 -697.95359 52.925334 C -693.82469 41.292434 -692.1362 29.679315 -690.3862 17.663615 C -685.937 -14.898885 -684.02777 -49.215338 -690.81687 -81.430138 C -690.81687 -81.445738 -690.82019 -81.457018 -690.82419 -81.472618 C -694.70309 -101.04292 -702.54639 -119.7192 -720.93699 -129.6528 C -733.29144 -136.94475 -747.36846 -140.07496 -761.5615 -140.48239 z M -339.17965 -104.00045 C -347.15186 -104.19624 -354.50888 -103.71151 -361.09811 -102.44186 C -385.95361 -97.113757 -407.9877 -81.089317 -424.1362 -61.839317 C -425.226 -60.456517 -426.25735 -59.0435 -427.22995 -57.5942 C -426.27685 -56.2232 -425.15671 -54.976555 -423.96921 -53.933555 C -411.81691 -44.187455 -394.95266 -44.992674 -380.36666 -47.141074 C -366.42916 -49.258274 -352.53901 -51.707412 -338.46481 -52.789512 C -312.96481 -54.809012 -287.33197 -53.039581 -261.94137 -50.457481 C -247.46477 -48.777781 -232.89398 -48.824637 -218.37838 -47.867637 C -206.95648 -47.086337 -196.40183 -41.667498 -188.47213 -33.515098 C -180.99163 -25.808098 -174.17956 -17.093698 -164.31246 -12.273398 C -158.03896 -8.9179978 -151.22653 -6.6996859 -144.16793 -5.7738859 C -137.38673 -4.8129859 -130.5005 -4.6128093 -123.7817 -3.2104093 C -116.5747 -1.6089093 -109.43696 1.3667331 -104.12056 6.6128331 C -95.475964 15.655733 -88.394959 25.668542 -79.320759 34.195842 C -72.762159 40.199742 -65.476933 45.363867 -57.617633 49.523967 C -44.805133 56.039667 -30.86275 60.707543 -19.67525 70.008343 C -12.21825 75.574743 -6.6947555 83.133362 -0.86665549 90.270062 C 4.8404445 97.219262 11.730507 102.99659 18.101607 109.28959 C 21.554707 112.93799 24.508414 117.04252 27.176314 121.29252 C 29.766214 125.46822 32.019638 129.82376 34.121138 134.25346 C 34.234438 131.75736 34.312019 129.25443 34.351119 126.75053 C 15.448819 73.910731 -25.49562 29.848266 -71.90572 -1.1010342 C -127.49854 -36.589875 -262.115 -102.10783 -339.17965 -104.00045 z M -731.58054 -88.67379 C -724.85153 -88.67329 -718.12349 -84.145924 -717.82859 -75.093224 C -718.42229 -56.983824 -744.74562 -56.987724 -745.33542 -75.093224 C -745.03857 -84.147924 -738.30955 -88.67429 -731.58054 -88.67379 z M -935.51902 -75.676231 C -938.02692 -73.602031 -940.49262 -71.461356 -942.91062 -69.254356 C -1004.6137 -9.6137563 -1046.3404 68.730099 -1076.0591 148.5269 C -1080.688 162.0426 -1084.7934 175.74176 -1088.4106 189.56596 C -1062.1996 188.38626 -1035.9063 188.46433 -1009.668 189.35503 C -1006.211 181.16753 -1002.5747 173.04748 -999.32469 164.77788 C -988.96929 138.67638 -978.06587 112.76225 -965.23777 87.762249 C -957.10887 72.070849 -948.73436 56.183134 -938.30076 41.862834 C -937.45696 20.413634 -932.54688 -2.8627344 -918.81248 -9.1635344 C -917.57808 -9.8432344 -916.24948 -10.163566 -914.92918 -10.183066 C -920.40188 -32.417466 -928.10112 -54.004331 -935.51902 -75.676231 z M -855.81541 -64.824669 C -848.87742 -64.824181 -841.93994 -60.126936 -841.57859 -50.734336 C -842.30519 -31.945236 -869.33245 -31.949136 -870.05515 -50.734336 C -869.69185 -60.128886 -862.75339 -64.825156 -855.81541 -64.824669 z M -229.53463 -24.835898 C -230.23003 -23.331998 -232.08149 -22.660549 -233.63619 -21.875449 C -251.39789 -10.320749 -272.20308 12.133317 -288.26168 37.992717 C -288.65618 38.629417 -289.04735 39.265203 -289.43795 39.905803 C -289.82465 40.546403 -290.21141 41.187472 -290.59811 41.832072 C -290.62941 41.890672 -290.66448 41.949354 -290.70358 42.007854 C -291.04738 42.593854 -291.39396 43.18309 -291.73776 43.77299 C -292.11276 44.41749 -292.48873 45.069803 -292.85983 45.718303 L -292.86276 45.718303 C -297.98776 54.733903 -302.47649 64.058091 -306.01559 73.397991 L -306.01559 73.402386 C -306.18359 73.839886 -306.34758 74.28178 -306.50778 74.71928 C -306.67188 75.16068 -306.83195 75.59721 -306.98825 76.03471 C -307.14835 76.47611 -307.3047 76.914104 -307.457 77.351604 C -307.6094 77.793004 -307.76123 78.230999 -307.90963 78.668499 C -308.04253 79.062999 -308.17527 79.457593 -308.30807 79.852093 C -308.46817 80.336493 -308.62452 80.816423 -308.77682 81.300823 C -308.90962 81.711023 -309.03854 82.121092 -309.16354 82.531292 C -309.19874 82.640692 -309.23488 82.746593 -309.26608 82.852093 C -309.90668 84.934093 -310.49172 87.011773 -311.02682 89.082073 C -311.03072 89.109373 -311.03943 89.136805 -311.04733 89.164105 C -311.26993 90.035205 -311.47997 90.905792 -311.68307 91.772992 C -311.88617 92.636292 -312.07808 93.499535 -312.26168 94.362835 C -313.71868 101.25734 -314.50826 108.03965 -314.50436 114.57475 C -312.75826 116.88335 -310.06975 118.59337 -307.35885 119.13627 C -302.70255 120.05427 -298.26901 117.67194 -294.45651 115.25004 C -281.46041 105.82824 -272.09029 92.441855 -262.96529 79.453655 C -246.76609 55.836455 -234.97644 30.41846 -229.17574 2.5200596 C -227.75774 -5.8042404 -225.46039 -14.87938 -228.38619 -23.08248 C -228.71429 -23.69188 -229.08543 -24.300798 -229.53463 -24.835898 z M -718.85398 41.391154 C -716.09259 41.476115 -713.59231 44.839397 -715.78074 47.605022 C -718.81984 51.253522 -721.80425 54.941905 -724.66355 58.734905 C -726.66745 60.922405 -728.47307 64.800885 -731.87937 64.589885 C -735.77387 64.066485 -735.31205 59.999603 -733.10105 57.718303 C -729.41355 52.546503 -725.78514 47.280822 -721.53904 42.542522 C -720.72459 41.698772 -719.77444 41.362834 -718.85398 41.391154 z M -157.94185 42.394572 C -187.09425 82.718872 -237.80414 114.83979 -238.10104 166.90629 C -238.10494 167.13279 -238.10983 167.35948 -238.10983 167.58598 C -238.12153 168.91418 -238.08596 170.23442 -237.99996 171.54692 C -237.97266 171.92972 -237.94581 172.31256 -237.91061 172.69536 C -237.83641 173.54306 -237.74216 174.3911 -237.62496 175.231 C -237.58596 175.5239 -237.54735 175.81984 -237.50045 176.11284 C -237.44975 176.43704 -237.39841 176.75787 -237.34371 177.07817 C -237.17181 178.07817 -236.97266 179.07033 -236.74606 180.05473 C -233.58986 182.47663 -229.48037 183.70755 -225.50777 183.38725 C -204.23037 181.51225 -186.40674 149.58597 -177.43014 132.26567 C -166.16844 108.52737 -150.61273 73.858953 -155.09713 47.499553 C -155.46823 45.538653 -156.23875 43.562572 -157.94185 42.394572 z M -100.46578 130.83012 C -105.43308 130.77397 -110.84175 133.3243 -114.4023 137.50395 C -115.6366 138.55085 -117.03952 138.72709 -118.29732 138.35209 C -126.30902 148.33259 -134.43012 158.19581 -141.98092 168.17631 C -155.01212 186.25051 -172.36319 206.85942 -178.08199 229.29692 C -178.16789 229.63672 -178.25331 229.98105 -178.33541 230.32085 C -178.34711 230.37165 -178.35887 230.4219 -178.37057 230.4688 C -178.45257 230.8086 -178.52684 231.14853 -178.60494 231.48833 C -178.71434 232.00003 -178.82365 232.51168 -178.92135 233.02348 C -178.98385 233.35158 -179.04732 233.67976 -179.10592 234.00786 C -179.17232 234.39076 -179.23775 234.7691 -179.29635 235.1519 L -179.30807 235.23393 C -179.37057 235.61673 -179.42572 235.99957 -179.47652 236.38237 C -179.49212 236.47617 -179.50388 236.57079 -179.51168 236.66069 C -176.40238 242.66459 -170.80465 247.44187 -164.18355 248.83647 C -153.75385 250.89117 -143.91449 245.03913 -136.02779 238.80083 C -116.49259 222.25783 -101.44135 200.12888 -92.746052 176.08208 C -89.039052 164.55858 -85.781728 151.75733 -89.176228 139.79643 C -90.973078 133.54838 -95.498479 130.88627 -100.46578 130.83012 z M -1052.2436 198.46635 C -1065.1426 198.57084 -1078.0351 198.90043 -1090.9023 199.42583 C -1092.1913 199.48053 -1093.4805 199.53568 -1094.7695 199.59428 C -1096.1953 199.65678 -1097.6206 199.72271 -1099.0425 199.78911 L -1099.0747 199.78911 C -1103.3404 199.99221 -1107.5977 200.21927 -1111.8555 200.46147 C -1139.1914 203.09427 -1167.7065 205.65633 -1193.1206 216.48833 C -1193.5698 218.09773 -1193.02 219.76228 -1190.7505 221.21538 C -1185.6529 224.34038 -1179.438 224.66024 -1173.6411 225.37114 C -1157.2193 226.59384 -1140.7417 227.14066 -1124.2964 228.00786 C -1072.8511 229.56646 -1022.0977 238.41366 -970.99607 243.81206 C -934.13277 247.84336 -897.86276 249.83162 -861.04636 252.97612 C -852.54246 253.70662 -844.04292 254.40682 -835.52732 254.98882 C -823.02732 255.39512 -804.19086 258.37552 -793.60496 251.61382 C -791.26506 249.84432 -789.75776 246.98099 -791.24216 244.16069 C -791.66796 243.78179 -792.0279 243.3052 -792.2075 242.7896 L -792.2075 242.7852 C -794.3677 241.6485 -796.47996 240.57823 -798.47996 239.55083 C -815.56586 231.62113 -833.69917 226.82865 -851.93357 222.57475 C -887.80857 214.79345 -923.59324 205.87063 -960.15184 201.91753 C -974.84714 200.63243 -989.59768 199.72709 -1004.3711 199.16069 C -1005.2109 199.12939 -1006.0508 199.09717 -1006.8906 199.06987 C -1007.7578 199.03857 -1008.625 199.00791 -1009.4922 198.98051 C -1010.8438 198.93361 -1012.1953 198.8951 -1013.5469 198.856 C -1026.4394 198.48295 -1039.3447 198.36187 -1052.2436 198.46635 z M -1102.8511 256.01128 C -1107.7026 256.46048 -1112.4883 257.55038 -1116.918 259.57378 C -1129.2188 265.48008 -1135.2735 276.47225 -1126.8672 288.74175 C -1118.0664 302.73785 -1094.8086 304.4146 -1079.7461 306.2935 C -1060.6055 308.0982 -1041.437 309.60218 -1022.2964 311.40288 C -967.24167 316.45758 -911.94088 318.69196 -856.99168 324.57476 C -845.97608 325.49276 -834.93746 326.68416 -823.86716 326.20366 C -806.89446 325.21546 -775.01507 321.53183 -802.48777 302.12163 C -802.81977 301.90293 -803.15578 301.68703 -803.49558 301.48003 C -803.96828 301.34333 -804.44574 301.21099 -804.92234 301.08599 C -865.28174 283.91809 -927.5591 274.11332 -989.8325 266.98442 C -1027.5005 263.27342 -1065.1753 259.65188 -1102.8511 256.01128 z M -220.41012 286.44487 C -220.71482 286.67917 -221.08978 286.89507 -221.51168 287.08647 C -225.66008 291.71147 -229.82906 296.35939 -234.01266 301.02739 C -233.98136 301.02739 -233.94571 301.03179 -233.91451 301.03179 C -234.36761 301.55909 -234.8173 302.0943 -235.29 302.6021 C -235.6025 302.9263 -235.90328 303.26227 -236.21578 303.58647 C -236.64548 304.02397 -237.07517 304.46485 -237.45797 304.94145 C -237.47747 304.94145 -237.49989 304.94106 -237.51949 304.93706 C -240.30069 308.04256 -243.0937 311.16069 -245.8984 314.28569 C -246.9648 315.47709 -248.03611 316.67144 -249.10641 317.86284 C -277.90721 349.99954 -307.56685 383.09424 -338.24655 417.18804 C -339.93405 419.06694 -341.62155 420.94538 -343.30905 422.83208 C -344.29735 424.21488 -345.8598 425.19196 -347.7153 425.82476 C -347.9926 432.46146 -348.27343 439.09821 -348.54293 445.73491 C -309.42963 402.60211 -271.52341 361.08304 -235.09371 321.07524 L -235.09811 321.07524 C -234.14111 320.02444 -233.18451 318.97712 -232.23141 317.93022 C -231.27831 316.88342 -230.32426 315.83553 -229.37496 314.79253 C -229.42186 314.62853 -229.41499 314.45025 -229.34859 314.26665 C -229.34079 314.23535 -229.32474 314.19931 -229.30904 314.16411 C -229.27784 314.09381 -229.23826 314.02347 -229.18746 313.95317 C -229.18746 313.94917 -229.18307 313.94878 -229.18307 313.94878 C -229.13627 313.87848 -229.08248 313.80521 -229.01608 313.73491 C -228.95748 313.66851 -228.8984 313.60209 -228.8359 313.53569 L -228.8315 313.53569 C -226.7221 311.16849 -224.52297 308.82039 -222.43307 306.46489 C -222.14407 306.23829 -221.89448 305.95755 -221.69918 305.63725 C -221.68348 305.62545 -221.67523 305.6094 -221.65963 305.5977 C -221.66723 305.5937 -221.66774 305.59331 -221.67574 305.59331 C -221.59374 305.46051 -221.52341 305.32043 -221.46481 305.17583 L -221.46481 305.16411 C -221.44521 305.10551 -221.42571 305.05083 -221.40621 304.98833 C -221.24991 304.59383 -221.17227 304.16852 -221.19967 303.73882 C -221.17617 303.48102 -221.16372 303.21926 -221.15572 302.95366 C -221.14812 302.62156 -221.14108 302.28907 -221.14108 301.95317 C -221.14108 301.82037 -221.14068 301.69203 -221.13668 301.55913 C -221.13268 301.14123 -221.12927 300.71932 -221.19967 300.30522 C -220.94177 295.68412 -220.67182 291.06597 -220.41012 286.44487 z M -228.84322 301.39507 C -227.92912 301.39507 -227.19474 302.24997 -227.22604 303.13677 C -227.26514 304.07817 -228.0551 304.75395 -228.9692 304.75395 C -229.8832 304.75395 -230.61759 303.89895 -230.58639 303.01225 C -230.57069 302.60985 -230.41794 302.25743 -230.17184 301.98393 L -230.17184 301.91069 C -230.17184 301.93409 -230.17144 301.9576 -230.16744 301.981 C -229.84714 301.6177 -229.36662 301.39507 -228.84322 301.39507 z M -237.65572 311.37944 C -236.74942 311.37944 -236.02394 312.2232 -236.05904 313.1021 C -236.09424 314.0318 -236.8754 314.69878 -237.7817 314.69878 C -238.6879 314.69878 -239.41358 313.85502 -239.37838 312.97612 C -239.34328 312.04642 -238.56192 311.37944 -237.65572 311.37944 z M -248.19967 324.27007 C -247.27777 324.27007 -246.53566 325.12899 -246.57076 326.02349 C -246.60986 326.97269 -247.40228 327.65239 -248.32418 327.65239 C -249.24598 327.65239 -249.98819 326.79347 -249.95309 325.89897 C -249.91399 324.94977 -249.12147 324.27007 -248.19967 324.27007 z M -269.8149 346.11528 C -269.30222 346.06597 -268.77341 346.21097 -268.33981 346.57817 C -267.50771 347.28127 -267.37444 348.60115 -268.10104 349.43315 C -272.62834 354.60115 -277.47699 359.481 -281.77389 364.8521 C -283.62929 367.1724 -285.49648 369.49273 -287.26998 371.87163 C -287.65278 372.48493 -288.30853 372.87944 -288.97653 372.87944 C -289.29683 372.87944 -289.61713 372.7891 -289.91403 372.5938 C -290.70313 372.086 -291.03899 370.88338 -290.45309 370.09038 C -290.02729 369.50838 -289.79341 369.19976 -289.47311 368.76616 C -285.19181 363.01226 -280.78464 357.33937 -275.91744 352.06987 C -274.33544 350.32767 -272.78469 348.55514 -271.19479 346.81694 C -270.82374 346.40869 -270.32759 346.1646 -269.8149 346.11528 z M -1140.1562 357.74614 C -1147.4101 363.31254 -1156.101 373.32772 -1152.2104 381.60112 C -1144.3627 394.61282 -1122.2115 395.58552 -1108.4966 397.03472 C -1087.524 398.70272 -1067.3316 399.22275 -1046.4839 400.62505 C -1024.7808 402.00395 -1003.1519 404.30129 -981.49168 406.16069 C -963.48778 407.58259 -944.55028 409.35206 -926.87058 410.39116 C -914.85888 410.88326 -902.38223 412.29249 -890.83543 408.14409 C -887.00723 406.68699 -882.59424 404.74661 -881.23484 400.54741 C -879.82864 395.19581 -885.08254 391.32471 -888.98094 388.79351 C -898.89114 382.55521 -910.85103 381.24567 -922.08933 378.88237 C -926.44873 378.10897 -930.83985 377.51233 -935.23045 376.93413 C -936.14065 376.78963 -936.855 376.43366 -937.3823 375.94536 C -1004.9448 369.63286 -1072.5781 363.96884 -1140.1562 357.74614 z M -315.08151 397.84038 C -314.16741 397.84038 -313.43302 398.69538 -313.46432 399.58208 C -313.50332 400.52348 -314.29338 401.19927 -315.20748 401.19927 C -316.12148 401.19927 -316.85587 400.34427 -316.82467 399.45757 C -316.78557 398.51617 -315.99551 397.84038 -315.08151 397.84038 z M -850.5698 406.59722 C -850.7261 413.72612 -853.31588 421.12451 -859.18308 428.59331 C -859.49948 428.90181 -859.81982 429.20365 -860.14402 429.50445 C -691.90962 436.34825 -523.88229 443.18413 -356.13229 450.05913 C -356.05419 448.24273 -355.96818 446.42631 -355.87448 444.60991 C -355.54638 438.66461 -355.18311 432.71928 -354.77291 426.77398 C -355.30421 426.76228 -355.83633 426.73495 -356.36373 426.69195 C -500.38713 420.85215 -644.55859 414.98395 -788.88669 409.11675 C -809.43749 408.26905 -830.0073 407.44092 -850.5698 406.59722 z M -835.76023 410.20952 C -834.87314 410.24236 -834.12744 410.4024 -833.65672 410.75005 C -833.59422 410.79695 -833.53456 410.8433 -833.48386 410.898 C -807.47996 412.7848 -781.36666 412.03123 -755.35496 413.73833 C -751.67916 414.10553 -746.89451 414.45363 -743.01951 415.99273 C -739.69141 417.31693 -737.03071 419.51515 -736.32371 423.36675 C -736.44481 425.89015 -737.92238 427.65576 -740.25828 428.87456 C -744.00048 430.82376 -749.94534 431.36773 -756.03904 431.36773 C -757.36724 431.36773 -758.70311 431.34324 -760.02341 431.30034 C -762.53121 431.21824 -764.98436 431.07473 -767.24216 430.93413 C -771.09366 430.69193 -774.37936 430.44976 -776.37546 430.51226 C -791.29346 430.12946 -806.24218 430.2148 -821.12498 428.8438 C -828.27728 428.2188 -835.58925 427.8208 -842.41355 425.4146 C -844.23385 424.8208 -845.75047 423.87846 -846.87547 422.74566 C -850.32857 419.28476 -850.12935 414.05429 -843.86375 411.70659 C -842.34612 411.15587 -838.4215 410.11102 -835.76023 410.20952 z M -326.23483 410.90239 C -325.29733 410.90239 -324.54728 411.77305 -324.58248 412.67925 C -324.61758 413.64025 -325.42574 414.33159 -326.35934 414.33159 C -327.29684 414.33159 -328.04678 413.46104 -328.01168 412.55474 C -327.97648 411.59384 -327.16843 410.90239 -326.23483 410.90239 z M -833.6992 414.28179 C -837.1836 414.25449 -840.50776 414.53124 -842.67576 415.55474 C -843.86716 416.11724 -844.71085 416.89842 -845.04295 417.98052 C -843.37495 424.37112 -824.74994 424.2574 -819.03904 424.9605 C -800.35544 426.5465 -781.57076 425.71874 -762.87546 427.12114 C -762.05126 427.14064 -761.22661 427.1715 -760.39841 427.2105 C -754.82031 427.4605 -749.14889 427.90971 -743.70359 426.58941 C -739.80519 425.51521 -739.07468 423.54355 -740.44578 421.75835 C -741.13718 420.85605 -742.36326 419.9996 -743.99216 419.3355 C -753.81636 416.398 -764.10111 417.18802 -774.19871 416.61382 C -789.61281 416.06692 -805.02777 415.62558 -820.43797 414.96148 C -821.82857 414.99668 -824.05809 414.80913 -826.62839 414.62163 C -828.84319 414.45753 -831.3086 414.29749 -833.6992 414.28179 z M -336.52389 422.42193 C -335.61369 422.42193 -334.87883 423.2696 -334.91403 424.1563 C -334.94923 425.0938 -335.7382 425.76616 -336.6484 425.76616 C -337.5585 425.76616 -338.29347 424.91849 -338.25827 424.03179 C -338.22317 423.09429 -337.43399 422.42193 -336.52389 422.42193 z M -428.64499 436.08159 C -428.61769 436.19879 -428.59368 436.31645 -428.57028 436.43755 C -428.61328 437.38675 -428.85499 438.23003 -429.25729 438.97613 C -428.85889 438.23003 -428.61767 437.38675 -428.57467 436.43755 C -428.59807 436.31645 -428.62159 436.19879 -428.64499 436.08159 z M -480.43014 443.34429 C -476.49654 443.41469 -472.55857 443.48009 -468.62497 443.58159 C -466.62887 443.51909 -463.34317 443.76127 -459.49167 444.00347 C -459.24167 444.01907 -458.99264 444.03474 -458.73874 444.05034 C -458.98874 444.03864 -459.23824 444.02346 -459.48434 444.00786 C -463.33974 443.76566 -466.62447 443.52349 -468.62057 443.58599 C -472.55417 443.48449 -476.49264 443.41859 -480.43014 443.34429 z M -1146.7993 448.74517 C -1154.9483 448.73601 -1163.5054 449.7686 -1166.6011 455.27398 C -1167.4566 461.17628 -1159.3247 464.442 -1155.0434 466.7232 C -1144.6684 471.649 -1132.8442 472.53516 -1121.6216 473.25786 C -1116.3638 473.53126 -1111.102 473.65581 -1105.8364 473.59331 C -1090.1958 473.13241 -1074.0703 472.21926 -1059.332 467.57866 C -1055.1679 465.78956 -1047.145 463.32039 -1046.1997 458.39849 C -1047.1567 455.39849 -1050.6836 453.61338 -1053.332 452.26958 C -1059.7148 452.31648 -1066.0981 452.15283 -1072.4848 451.99273 C -1092.9536 451.42233 -1113.3906 450.11387 -1133.8398 449.14507 C -1137.168 449.13187 -1141.9099 448.75066 -1146.7993 448.74517 z "
         transform="matrix(1.3333333,0,0,1.3333333,2178.5364,713.86453)" />
    </g>
    <g
       id="g168"
       style="display:inline">
      <path
         id="path104"
         clip-path="url(#clipPath39)"
         style="display:inline;fill:#000000;fill-opacity:1;fill-rule:nonzero;stroke:none"
         d="m -63.979647,-458.77168 c -28.231679,0.19304 -56.456523,4.61763 -80.545903,19.67285 -40.4726,26.7265 -66.30123,75.52295 -67.90283,123.76905 0.21828,22.93606 3.74859,46.73488 11.7832,68.63086 -5.17601,3.27119 -10.05713,7.00728 -14.47851,11.16211 -23.8906,22.9219 -34.56643,57.42536 -32.57813,90.03076 4.5273,55.164101 48.1177,87.03956 101.3833,87.91846 1.028,0.0275 2.05663,0.04102 3.08643,0.04102 15.1782,-10e-5 30.49191,-3.017017 44.132813,-9.736817 1.421784,-0.832755 4.403448,-2.407384 7.303711,-4.324219 0.624832,1.977638 1.241515,3.958788 1.861817,5.937012 1.956353,6.369249 4.045655,12.699627 6.169922,19.019532 -1.395697,1.094063 -2.793169,2.185371 -4.17041,3.310547 -57.250003,50.6210998 -95.448293,119.566868 -126.413093,188.547365 -11.53181,26.81514 -20.96272,54.57623 -27.6709,82.99365 -11.96857,0.66393 -23.92124,1.54941 -35.8374,2.79932 -31.4883,3.5234 -64.08154,9.96878 -89.89014,29.48438 -60.7304,47.8554 -75.73433,136.62897 -48.64453,206.73047 20.1133,58.8985 77.8398,66.93795 132,73.59815 8.8275,1.2794 17.5617,1.94091 26.1211,1.94091 45.0264,-4.9e-4 85.1269,-18.36523 107.84619,-61.54248 24.17261,1.71308 48.35555,3.21747 72.593265,3.72803 22.236633,-0.0591 47.952559,0.21588 66.824709,-12.78369 25.20198,1.0327 50.412395,2.05682 75.602052,3.09228 144.328104,5.8711 288.500554,11.73393 432.531754,17.57373 0.45518,0.0363 0.91618,0.0431 1.37548,0.0586 -2.1e-4,0.005 2.2e-4,0.0107 0,0.0161 0.21956,0.007 0.4395,0.01 0.65918,0.0117 0.0617,4.8e-4 0.12286,0.007 0.18457,0.007 0.0277,0 0.0543,-0.006 0.082,-0.006 1.04722,-0.003 2.08894,-0.0704 3.09814,-0.208 0.0525,-0.007 0.10439,-0.013 0.15674,-0.0205 1.01196,-0.14585 1.98433,-0.36621 2.89306,-0.66358 0.0524,-0.0172 0.10334,-0.0351 0.15528,-0.0527 0.0804,-0.0273 0.1639,-0.0505 0.24316,-0.0791 4.8e-4,-0.0122 9.9e-4,-0.0244 10e-4,-0.0366 1.75407,-0.638 3.25327,-1.56271 4.20117,-2.88721 1.6914,-1.8828 3.375,-3.76075 5.0625,-5.63965 38.39372,-42.66747 74.95907,-83.51436 110.48291,-123.1333 8.11239,1.32755 16.2781,2.39153 24.39405,3.37939 30.9335,3.4453 61.84861,7.76859 93.02051,8.22949 5.1094,0.2774 10.25005,0.43067 15.41015,0.43067 36.4453,0 73.51913,-7.57036 101.44483,-32.47266 38.4649,-35.625 54.37154,-93.05907 45.53174,-144.10987 -1.5662,-9.39223 -3.77917,-18.50312 -6.54785,-27.34863 1.87616,-48.98379 -12.22385,-100.936082 -38.60743,-139.01367 -26.7461,-36.8399 -64.03567,-63.878401 -100.17627,-90.804201 -33.9375,-24.4805 -68.71778,-48.914559 -107.53418,-65.043459 -35.711,-13.6601 -73.6563,-20.1645 -110.8125,-28.6919 -67.9805,-13.8047 -137.74611,-16.30764 -206.94141,-15.13184 -20.4374,0.53765 -40.67223,3.29041 -60.81592,6.68116 13.64793,-56.60539 14.83558,-130.25876 -40.99659,-164.4961 -29.97281,-18.43083 -65.10406,-15.98629 -92.28516,0.95654 -23.37571,-72.70669 -86.66254,-123.08452 -166.674316,-129.76758 -12.4475,-1.05956 -25.28119,-1.84556 -38.113771,-1.75781 z m 3.273926,8.12988 c 13.153564,0.0493 26.294677,1.03371 38.969239,2.27637 72.3125,7.3125 130.816432,53.05562 153.644532,122.34082 0.55134,1.59866 1.05806,3.21032 1.56153,4.82373 0.77722,2.48896 1.51771,4.98827 2.19873,7.50879 2.8e-4,0.001 0.001,0.002 0.001,0.003 0.30287,-0.24946 0.6211,-0.47838 0.92725,-0.72363 0.96299,-0.77135 1.93017,-1.5358 2.92383,-2.26465 0.57326,-0.42042 1.16611,-0.8114 1.74902,-1.21729 20.58294,-14.33516 47.07396,-19.59687 71.31153,-10.35498 67.92911,25.86982 66.77335,105.1073 51.28418,167.78175 -0.54995,2.22628 -1.11708,4.42906 -1.70069,6.60937 -2.02822,7.57635 -4.2331,14.881 -6.53613,21.74561 -0.0404,0.1132 -0.0853,0.22246 -0.12598,0.33545 -21.66019,-1.44028 -44.06593,11.02975 -62.04785,26.3789 -4.86376,-9.64292 -10.49788,-20.18882 -16.25537,-30.66211 9.3e-4,-1.9e-4 0.002,2e-4 0.003,0 -1.6015,-2.914 -3.21384,-5.82373 -4.81934,-8.70263 -9.4e-4,1.9e-4 -0.002,-1.9e-4 -0.003,0 -4.06161,-7.28079 -8.07426,-14.3531 -11.84765,-20.93116 0.001,-0.001 0.003,-0.002 0.004,-0.003 -1.5352,-2.6757 -3.03124,-5.26569 -4.46484,-7.74609 h -0.001 c -0.036,0.0343 -0.0724,0.0683 -0.1084,0.10254 -1.50048,1.43012 -3.02483,2.83322 -4.56299,4.22021 -0.29447,0.26552 -0.58714,0.53316 -0.8833,0.79688 -5.24951,4.67629 -10.74625,9.06767 -16.67138,12.95068 -36.511703,23.8906 -83.230037,37.05908 -126.3237368,26.05518 -20.7500002,-5.9297 -39.1489522,-17.38387 -56.6645522,-29.80957 -2.2812,-1.4024 -4.218688,-3.71389 -6.867188,-4.35059 -3.1367,-0.5391 -5.191387,3.50346 -2.929687,5.71436 6.6407,5.5743 13.270026,11.27002 20.523926,16.08252 10.715972,7.39221 22.317007,13.7 34.5395517,18.18896 -15.0602837,22.83508 -41.2325337,39.0224 -68.3906267,41.743657 -4.715178,0.26712 -9.365634,-0.0725 -13.952637,-0.842285 -0.04574,-0.02274 -0.09439,-0.02694 -0.140625,-0.04687 -0.168032,-0.07208 -0.336708,-0.134188 -0.509766,-0.171387 -0.09642,-0.02087 -0.192568,-0.0332 -0.290039,-0.04395 -0.162307,-0.01776 -0.324128,-0.02301 -0.487793,-0.01465 -0.03286,0.0016 -0.06526,-0.0055 -0.09814,-0.0029 -0.131141,-0.02483 -0.261545,-0.05358 -0.392578,-0.0791 -2.526878,-0.488486 -5.03385,-1.106738 -7.520508,-1.82959 -10.931501,-3.169073 -21.477031,-8.276284 -31.611331,-13.091309 -10.6054,-5.257796 -20.4575,-11.324206 -30.1919,-18.128906 -3.1953,-1.9414 -6.14793,2.99997 -3.07763,4.98047 18.16683,14.605442 39.08077,27.865813 61.772462,34.331542 -7.058422,3.642228 -14.591622,6.344958 -22.371102,8.005371 -33.7109,6.2578 -73.49902,-0.870562 -97.05762,-27.405762 -28.5742,-32.390601 -26.11333,-82.921931 -3.77343,-118.019531 6.53748,-10.33611 15.44032,-18.30399 25.42822,-24.82032 1.97713,-1.28919 3.98315,-2.54537 6.03662,-3.72656 -0.99299,-2.54863 -1.92119,-5.12105 -2.80664,-7.70801 -5.77092,-16.89314 -9.21386,-34.54037 -10.18945,-52.43994 -3.3242,-48.5586 21.28804,-98.96189 60.63574,-127.37989 24.22365,-16.15081 53.222322,-20.5679 82.160163,-20.45947 z m 430.795911,289.35352 c 47.3183,0.16043 94.6084,3.39702 141.4834,10.03272 25.9883,4.0352 51.55465,10.41404 77.21485,16.08984 38.6914,7.9687 76.28072,20.97701 109.31982,43.012211 24.7031,15.2109 48.39112,31.948763 71.45362,49.530763 31.2891,23.5977 62.76214,48.2690702 85.28174,80.78467 20.0032,30.511759 30.64569,66.495326 33.46582,102.966796 -32.3293,-68.318306 -99.3348,-117.997859 -167.42872,-149.053711 -67.3516,-30.0156 -145.32816,-70.386683 -220.47656,-66.925783 -35.668,4.9336 -68.73882,28.254916 -86.26612,59.774416 -23.2539,46.9454 -11.61229,100.058103 -0.16699,148.554198 6.9922,30.6953 13.97952,64.0391 37.24512,87.0586 0.31693,0.3244 0.67255,0.61303 0.99609,0.93164 -0.10319,0.39592 -0.22601,0.71337 -0.32959,1.09424 -3.05927,3.56642 -4.43535,8.67598 -4.04004,13.42383 -1.10343,3.50545 -2.26491,6.992 -3.54346,10.4414 -4.5117,15.9609 -23.7818,42.3623 -38.5122,20.3584 -14.836,-23.3164 11.67577,-41.1631 5.35547,-63.7998 -9.8945,-27.918 -25.71824,-19.00878 -21.82764,-59.00098 4.4141,-31.5078 8.93259,-60.921897 -18.77051,-83.683597 -13.4532,-12.1953 -31.60938,-5.936554 -40.30078,8.481446 -11.6289,20 -11.38621,43.929741 -10.12061,66.339841 -0.004,22.3711 5.42186,45.01125 2.97656,67.33155 -4.6719,22.1368 -28.77397,17.17181 -42.36767,6.25781 -3.20456,-2.34082 -6.29717,-4.82572 -9.37793,-7.32568 1.19823,-2.06685 2.37653,-4.14401 3.50537,-6.24756 0.49031,-0.91373 0.95255,-1.84082 1.42969,-2.76123 1.0593,-2.04326 2.09375,-4.09772 3.08789,-6.17285 0.50499,-1.05426 1.0002,-2.11214 1.48828,-3.17432 0.9601,-2.08907 1.88151,-4.19489 2.77588,-6.31348 0.40325,-0.95545 0.81721,-1.90545 1.20703,-2.8667 1.13612,-2.80076 2.22028,-5.62371 3.2417,-8.47119 0.0846,-0.23583 0.18429,-0.46551 0.26806,-0.70166 -0.002,4.2e-4 -0.004,0.001 -0.006,0.001 2.96287,-8.34811 5.43827,-16.88412 7.4004,-25.57178 6.66657,-27.09534 11.77509,-55.449026 12.16992,-83.6001 1.15185,-19.7403 -0.28328,-39.469796 -6.64014,-58.3564473 -1.33701,-3.7388974 -2.79768,-7.4725307 -4.32422,-11.1899417 -0.18346,-0.497578 -0.32991,-1.001954 -0.51855,-1.498535 -4.80423,-13.793025 -12.02051,-27.164151 -21.45118,-38.581056 2.12295,-2.51231 4.07596,-5.15781 5.8169,-7.939453 15.50822,-22.191028 11.80269,-59.672077 -16.02393,-68.088867 2.7348,-7.73009 5.04534,-15.61112 6.98438,-23.58985 16.95521,-2.64063 33.94887,-4.9885 51.01172,-6.69873 15.76465,-0.61815 31.54022,-0.90601 47.31299,-0.85254 z m -215.77296,1.17481 c 3.53952,6.25987 7.07031,12.52292 10.5542,18.81006 0.45416,0.81829 0.9098,1.63616 1.36231,2.45508 8.70489,15.76581 17.16945,31.65928 25.125,47.838864 1.4375,-1.3633 2.88674,-2.715776 4.33594,-4.063476 0.0315,-0.02695 0.0636,-0.05364 0.0952,-0.08057 14.03155,-11.940948 29.88774,-22.734548 48.0542,-26.998528 2.88026,-0.44642 5.57596,-0.65281 8.09473,-0.64161 -6.1e-4,0.001 -8.6e-4,0.003 -10e-4,0.004 0.81402,0.003 1.60374,0.0344 2.38037,0.082 0.17267,0.0107 0.34332,0.0237 0.51416,0.0366 0.64652,0.0483 1.28094,0.11151 1.90137,0.19043 0.12573,0.016 0.25473,0.0282 0.3794,0.0454 0.72452,0.1001 1.43078,0.22248 2.11963,0.36328 0.11877,0.0242 0.23384,0.0522 0.35156,0.0776 0.60558,0.13098 1.19747,0.27634 1.77539,0.43799 24.2689,6.77194 24.09753,39.934187 7.58789,60.735347 -5.99286,-6.127683 -12.70593,-11.504312 -20.12842,-15.802735 -5.0078,-2.7696 -11.53219,-5.875914 -17.07129,-2.774414 -6.6484,3.9688 -5.61719,12.562964 -0.62109,17.547364 5.84238,5.695302 11.87313,11.336688 16.9541,17.708496 -0.87729,0.470303 -1.74362,0.959211 -2.63672,1.401856 -0.12751,0.06319 -0.25012,0.135092 -0.37793,0.197754 -0.3125,1.168 -0.6401,2.327098 -0.9917,3.483398 -0.0586,0.238932 -0.11991,0.478731 -0.17871,0.717774 -14.13113,57.448462 -32.30934,116.196282 -72.73535,161.01417 -46.4179,53.832 -103.218268,62.66072 -167.0932685,33.89502 -34.7499995,-17.3672 -45.3632385,-46.07374 -47.0859385,-82.952645 -1.914,-18.3476 -5.152382,-36.546901 -9.925782,-54.375001 -6.7305,-26.1484 -16.618121,-50.461415 -24.840821,-76.328615 -1.718956,-5.449595 -3.511546,-10.879974 -5.289551,-16.313965 1.50779,0.198553 3.017584,0.389679 4.538087,0.520019 0.59,0.0143 1.174871,0.02197 1.763671,0.02197 25.9856,-0.0016 50.739743,-13.834648 68.9941428,-31.623053 2.0290303,-2.57041 9.1250146,-9.91696 12.6020511,-16.16601 8.1053461,2.32321 16.4433701,3.81916 24.9594731,4.23339 2.2974,0.0941 4.59642,0.14063 6.89502,0.14063 42.64888,-1.9e-4 85.232326,-16.0771 117.640136,-43.83838 z m 361.34474,94.274415 c 77.06465,1.892678 211.68111,67.4104855 267.27393,102.899417 46.36638,30.922457 87.26211,74.939468 106.18653,127.713868 -0.11426,7.21689 -0.45509,14.41409 -1.16602,21.54785 -1.8359,17.8711 -7.81596,34.84372 -13.53076,51.76172 -4.4766,12.7812 -9.14111,25.53902 -14.32471,38.07422 -0.918,2.2148 0.12163,4.8252 2.33643,5.7627 0.4166,0.3407 0.85108,0.50254 1.30078,0.50244 7.9712,-3e-4 20.76967,-50.84764 25.15137,-57.93604 3.58488,-10.27265 6.1216,-21.10851 7.82812,-32.22949 0.7402,3.73448 1.42048,7.48831 1.93213,11.29395 6.4375,51.7891 -13.21378,111.94247 -58.97168,140.43457 -50.2773,30.6329 -114.52446,18.12403 -170.17676,13.12793 -11.92073,-1.66719 -24.33145,-2.71676 -36.59473,-4.41943 0.21269,-0.14359 0.39421,-0.30153 0.54492,-0.46289 0.007,-0.007 0.0228,-0.0118 0.0293,-0.019 1.582,-1.75 3.15139,-3.49608 4.72559,-5.23828 0.6406,-0.9023 1.89893,-2.01272 2.84033,-3.09082 0.0507,-1.1602 0.10544,-2.32027 0.15234,-3.48047 -7.5e-4,-3.2e-4 -0.002,3.3e-4 -0.003,0 0.40087,-9.12982 0.74196,-18.25963 0.58594,-27.40576 -0.004,-0.26949 -0.004,-0.53932 -0.009,-0.80859 h -10e-4 v -0.001 c -1.1015,-0.2539 -2.53123,-0.2701 -3.89063,-0.3208 -0.9648,-0.0391 -1.92973,-0.0772 -2.89453,-0.12012 -4e-5,9.8e-4 4e-5,0.002 0,0.003 -4.09169,-0.16857 -8.18281,-0.33905 -12.27246,-0.50976 -13.31571,-0.54252 -26.63234,-1.08824 -39.94922,-1.6333 7.88979,-6.92945 13.24307,-15.98685 13.76806,-27.22266 1.85792,-17.88431 -14.42753,-30.49182 -30.8291,-32.52686 4.34341,-5.05398 7.50284,-11.18101 8.8418,-17.61914 1.7149,-12.2695 -6.4829,-22.21092 -18.479,-24.19922 -1.4015,-0.21156 -3.42295,-0.48155 -5.55762,-0.59765 1.22182,-1.57287 2.3665,-3.25104 3.43799,-5.02588 11.39323,7.81185 27.55761,12.59281 49.56592,13.05762 1.4049,0.0353 2.80899,0.0527 4.21289,0.0527 0.0459,0 0.0918,-0.001 0.13769,-0.001 4.93325,28.8091 28.22743,53.70827 57.27979,59.92968 -4.83628,33.2791 24.64912,55.8059 58.00342,55.83106 29.6758,-0.5704 57.61767,-16.60496 77.86377,-37.58936 25.3589,-24.48716 15.03048,-51.15632 4.64355,-62.27197 5.7578,-5.99452 11.63704,-11.87439 17.50782,-17.74072 11.8985,-12.0313 23.75725,-24.16501 34.40185,-37.33301 1.9492,-2.582 -0.76212,-6.46091 -3.83642,-5.69531 -4.664,2.6953 -8.01903,7.99611 -12.13623,11.63671 -4.35308,5.03851 -24.60415,24.10813 -43.71094,43.85596 -2.05786,-0.34739 -3.42392,0.75237 -3.47315,3.59326 -20.45624,21.40772 -38.34601,42.67197 -32.01562,46.89551 0.7865,0.4521 1.55194,0.65489 2.29834,0.65479 5.6004,-7e-4 10.12023,-11.44322 14.25293,-15.06592 6.24626,-8.29197 13.03029,-16.13755 20.07568,-23.75244 2.35382,2.98745 4.50628,6.11444 5.9458,9.67969 10.7227,26.2735 -17.477,47.13332 -36.8833,59.58252 -27.5,17.7304 -73.90623,21.99177 -91.26563,-11.33643 -1.91931,-6.79259 -2.33557,-13.45695 -1.65673,-19.9834 0.13132,-1.26982 0.30355,-2.53297 0.51709,-3.79101 0.0364,-0.21452 0.0639,-0.43034 0.10253,-0.64454 0.25188,-1.39339 0.55672,-2.77972 0.90235,-4.16015 5.62691,-22.5774 23.08246,-43.30986 36.18164,-61.48243 15.6094,-20.6328 33.65965,-40.77832 48.14795,-62.46972 2.7578,-4.4141 -4.22599,-7.82421 -6.35889,-3.31641 -30.28799,40.52695 -71.48649,76.04893 -87.27393,125.37891 -3.59378,-0.79449 -7.14259,-1.82539 -10.61718,-3.17871 -19.83959,-8.32086 -35.82686,-26.62718 -39.31055,-47.89746 -0.1376,-0.8405 -0.22279,-1.69301 -0.3208,-2.54297 -0.0818,-0.70899 -0.18381,-1.41383 -0.23731,-2.12842 -0.0652,-0.87183 -0.0734,-1.75304 -0.0952,-2.63232 -0.0208,-0.82743 -0.074,-1.64963 -0.0557,-2.48291 0.3321,-58.2774 63.8237,-91.56587 89.5503,-139.34327 2.2578,-4.5234 -4.76954,-7.855888 -6.90234,-3.437988 -2.375,4.2656 -5.64064,7.999512 -8.51954,11.937012 -10.3633,13.418 -22.2143,26.176216 -34.1206,38.957516 -20.6015,22.5273 -44.42927,46.28123 -48.53467,77.95313 -1.0297,4.99033 -1.44222,9.98492 -1.30811,14.91504 -19.44505,0.0893 -39.58552,-3.1588 -53.11084,-15.99902 -0.0701,-0.0665 -0.13976,-0.13371 -0.20947,-0.20069 -0.50843,-0.48891 -1.00804,-0.9906 -1.49707,-1.50732 -0.0439,-0.0463 -0.0866,-0.0941 -0.13037,-0.14063 -0.50352,-0.53658 -0.99909,-1.08672 -1.48096,-1.6538 -0.0255,-0.03 -0.0507,-0.0607 -0.0762,-0.0908 -1.01387,-1.19952 -1.98026,-2.46512 -2.8916,-3.80566 v -0.001 c -8.678,-15.57171 -8.88441,-34.92706 -3.78662,-55.0254 0.0218,-0.086 0.041,-0.17174 0.063,-0.25781 0.47639,-1.86221 1.00555,-3.73215 1.57031,-5.60449 0.21513,-0.71336 0.45806,-1.42875 0.68554,-2.14307 0.37823,-1.18762 0.75915,-2.3746 1.17041,-3.56396 0.28006,-0.80971 0.57812,-1.62016 0.87305,-2.43018 4.20374,-11.55052 9.87137,-23.112894 16.46338,-34.129393 0.18371,-0.307111 0.37163,-0.610786 0.55664,-0.916993 16.2464,-26.87124 37.78766,-50.376205 56.10059,-62.288087 2.1758,-1.0937 4.91749,-1.968725 4.29639,-5.203125 -4.1211,-11.53520032 -32.72271,18.331543 -37.81641,23.081543 -10.50125,10.661666 -20.82918,24.201276 -29.74512,39.032228 -7.88037,-2.785508 -15.67345,-5.815805 -23.38184,-9.057129 -4.40035,-11.153318 -9.47181,-22.033154 -15.2124,-32.54004 -2.6055,-5.3282 -10.80911,-1.110327 -8.13721,4.092773 1.8789,3.8242 3.74319,7.652883 5.44629,11.559083 2.26223,4.912384 4.41034,9.881616 6.44532,14.898926 0.12806,0.315863 0.25668,0.63149 0.38378,0.947754 0.55153,1.371551 1.09382,2.74767 1.62745,4.126465 0.17563,0.454207 0.34933,0.908916 0.52295,1.363769 5.54189,14.505854 10.07249,29.401048 13.39013,44.554686 -9.70611,28.06741 -11.56433,56.10956 1.48242,75.7295 -0.002,0.004 -0.004,0.009 -0.006,0.0132 0.49012,0.73615 1.00446,1.45758 1.53662,2.16943 0.0345,0.0462 0.0679,0.0931 0.10254,0.13916 0.60802,0.80734 1.24367,1.59833 1.90722,2.37305 0.0206,0.024 0.0394,0.0493 0.0601,0.0732 0.67288,0.78251 1.37547,1.54756 2.10645,2.29541 0.0261,0.0267 0.0515,0.0539 0.0776,0.0806 0.39255,0.39978 0.79607,0.79404 1.20557,1.18359 -13.02986,22.26096 -42.46984,25.16884 -65.98242,24.19336 -4.9082,-0.2864 -9.7312,-1.35888 -14.3628,-2.98828 -2.11335,-0.66361 -4.21728,-1.56612 -6.35888,-2.27636 -3.59018,-3.14446 -6.8922,-6.5626 -9.5962,-10.31397 -15.9375,-20.875 -21.4849,-47.02685 -27.3208,-72.14795 -7.0078,-34.042901 -17.49947,-68.480973 -12.66357,-103.551273 2.5508,-19.0157 7.41067,-38.4643881 19.49267,-53.796388 16.1484,-19.25 38.18259,-35.27444 63.03809,-40.60254 6.58923,-1.269647 13.94625,-1.754388 21.91846,-1.558594 z m -392.40235,15.325196 c -6.72903,-3.88e-4 -13.45834,4.525567 -13.75489,13.580567 0.5903,18.1052 26.9152,18.108635 27.5083,-0.0015 -0.29515,-9.05255 -7.02439,-13.578715 -13.75341,-13.579102 z m -203.938486,13.004883 c 7.430625,21.692203 15.134593,43.3011726 20.605957,65.554689 -1.325154,0.01512 -2.657484,0.268724 -3.897949,0.952149 -21.6797,9.9453 -21.371576,62.194344 -17.805176,82.760748 5.2461,45.4961 35.973121,85.94923 74.2075213,109.76953 20.0389997,11.1914 43.0034007,16.03123 65.6792007,18.14063 15.305509,1.56501 30.580938,1.56627 45.796872,0.50537 27.91279,-0.4714 52.6798,-5.41349 79.03712,-13.29346 10.22863,-2.44604 20.4163,-5.00696 30.52148,-7.62891 9.78395,-2.66189 19.58517,-5.2567 29.37305,-7.89551 6.58161,-1.77443 13.1444,-3.61402 19.70068,-5.47705 4.45131,4.11924 9.01764,8.11496 13.93067,11.66455 26.6836,20.457 59.44927,10.44241 57.48047,-26.17089 0.3321,-29.1914 -18.78461,-119.644551 19.87939,-127.652351 7.3399,0.3047 12.92477,6.22553 17.46387,11.44043 9.6875,11.625 12.88771,27.050861 11.08301,41.847661 -1.7695,19.1016 -6.98539,39.06736 -0.75879,57.86426 3.0039,9.2969 10.99222,15.30366 16.32422,23.08886 3.9961,6.3476 5.36382,14.26276 2.39502,21.30176 -3.1679,8.1914 -7.57761,16.10548 -8.74951,24.92578 -2.2578,15.7578 4.62791,36.02252 21.49511,40.30372 2.0625,0.457 4.0396,0.67236 5.9458,0.67236 6.7989,0 12.59408,-2.77977 17.52247,-7.0708 -0.33165,0.77835 -0.64137,1.56352 -0.92432,2.35547 -2.461,8.125 -0.0712,17.14109 5.66309,23.31299 10e-4,0.002 0.003,0.003 0.004,0.004 -88.83513,-3.68866 -177.6992,-7.39872 -266.70118,-11.04785 -11.8555,-0.4766 -23.68363,-0.98389 -35.51953,-1.48389 -2.2266,-0.0742 -4.65187,-0.11771 -7.28467,0.54639 -3.0976,0.7578 -4.53948,2.24656 -5.93408,3.48486 -3.0195,2.6133 -6.05034,5.23046 -9.07764,7.85156 -5.59147,4.83497 -11.34812,9.82254 -16.987792,14.70264 1.187532,-6.1607 0.680292,-12.54821 -2.145996,-18.44971 -16.3399,-28.5508 -54.764713,-38.12891 -84.553713,-46.19531 -42.0274,-9.3594 -84.004805,-20.05127 -127.016609,-23.67627 -39.74518,-2.45525 -79.77646,-3.5304 -119.625,-1.74023 3.62008,-13.83443 7.70532,-27.5475 12.33692,-41.07276 29.7188,-79.7969 71.44134,-158.140655 133.148437,-217.781255 2.416471,-2.206496 4.881392,-4.341051 7.387207,-6.414551 z m 334.145516,1.12207 c 0.7525,1.275181 1.47165,2.574623 2.12549,3.922852 10.4063,22.4024 18.3008,46.332609 19.6875,71.137209 2.0352,40.4297 -5.76662,81.469215 -17.58692,120.016115 -1.85035,5.66752 -4.15274,11.13377 -6.72363,16.47217 -16.54589,4.14124 -33.20616,7.88634 -49.63184,12.42187 -60.582,14.2344 -136.253469,33.64007 -194.5971686,3.72217 -18.0274004,-11.4805 -32.7426834,-28.11227 -43.8090834,-46.28027 -12.9531,-22.6367 -15.531294,-49.406222 -16.371094,-75.011722 -0.0063,-1.460609 0.05159,-2.921115 0.14502,-4.379883 2.040505,19.945546 2.741509,40.231145 11.345215,58.508795 19.3476,41.5703 69.036123,56.49165 111.653323,58.40185 2.1201,0.1288 4.22759,0.192 6.32959,0.1919 37.303098,-0.002 71.602298,-19.9293 96.596198,-46.8794 44.67257,-46.631623 67.23821,-109.595054 80.15478,-171.867191 0.22659,-0.127184 0.45721,-0.247304 0.68262,-0.376465 z m -254.43897112,9.723633 c -6.93797498,-5e-4 -13.87664688,4.696698 -14.23974688,14.091798 0.7232,18.7847995 27.750364,18.7888347 28.476564,-0.0015 -0.3616,-9.3924 -7.2988421,-14.089833 -14.23681712,-14.090333 z M 538.65123,75.134581 c 4.8958,2.070172 9.83976,4.014193 14.83008,5.81836 -2.9166,5.300678 -5.63092,10.717638 -8.0918,16.207032 -1.96303,-7.425766 -4.20704,-14.777124 -6.73828,-22.025392 z m -402.66359,4.419434 c -0.92061,-0.02812 -1.87036,0.308982 -2.68506,1.152832 -4.2451,4.7384 -7.87497,10.001817 -11.56347,15.174317 -2.2116,2.2803 -2.67029,6.346386 1.22461,6.871586 3.4067,0.2103 5.20975,-3.670384 7.21435,-5.854984 2.8609,-3.7934 5.84375,-7.481984 8.88135,-11.129884 2.1891,-2.767275 -0.30995,-6.129506 -3.07178,-6.213867 z M 541.5897,216.35285 c 0.0416,0.0327 0.0819,0.0668 0.12452,0.0981 l 0.001,0.001 c 0.003,0.002 0.006,0.004 0.009,0.006 0.18097,0.13217 0.37106,0.25201 0.56982,0.35742 l 10e-4,0.001 c 0.005,0.003 0.0109,0.005 0.0161,0.007 0.19721,0.1035 0.40266,0.19274 0.61524,0.2666 l 10e-4,0.001 c 0.008,0.003 0.0169,0.003 0.0249,0.006 0.20531,0.0699 0.41661,0.12773 0.63428,0.16699 0.0136,0.002 0.0274,0.004 0.041,0.006 0.21903,0.0374 0.44281,0.0597 0.67236,0.063 0.0166,2.6e-4 0.0332,-7e-5 0.0498,0 0.22712,7.6e-4 0.45886,-0.0173 0.69434,-0.0527 0.01,-0.001 0.0194,8e-5 0.0293,-0.001 0.7304,-0.0821 1.4609,-0.16015 2.1914,-0.22265 8.6406,-0.8477 18.36239,2.61769 18.03809,12.75439 -0.7304,5.6406 -4.08591,10.62059 -7.62891,14.92529 -4.0039,4.5937 -9.77685,6.95014 -15.33545,9.10254 -2.51718,0.89893 -5.2784,1.69881 -8.21045,2.39209 -0.11225,0.0266 -0.22561,0.0529 -0.33837,0.0791 -1.4004,0.3256 -2.83736,0.62663 -4.30957,0.90087 -0.0597,0.0111 -0.11893,0.0227 -0.17872,0.0337 -20.47865,3.77808 -47.17768,2.45098 -62.09912,-7.98487 -4.03701,-2.51743 -7.63625,-5.99928 -9.77197,-9.93603 1.07227,-3.04894 2.44768,-6.77036 3.54932,-10.44287 0.003,0.002 0.006,0.004 0.009,0.006 0.0149,-0.0498 0.0203,-0.0952 0.0352,-0.14501 0.31224,-1.04748 0.57385,-2.06891 0.82324,-3.08643 1.21004,0.51422 2.42835,1.00873 3.65479,1.4707 7.0389,2.6188 14.55762,3.4915 22.02832,3.4834 19.14397,0.33344 39.32916,-2.77902 54.05859,-14.25732 z m -722.73195,20.26318 c 25.3335,0.1748 50.65921,1.26028 75.82911,3.46143 36.558596,3.9532 72.344725,12.87592 108.2197252,20.65722 18.2342998,4.2539 36.3662498,9.04648 53.4521498,16.97608 13.4375,6.9024 32.121057,15.83549 34.347657,32.79639 0.439196,12.84414 -8.217214,22.73543 -19.319825,27.36181 -27.245905,-13.56983 -58.581925,-17.28445 -87.963869,-24.34131 -80.2031,-15.5586 -161.792898,-23.31684 -243.304698,-27.71924 -0.9101,0.1484 -2.4179,0.10599 -4.125,0.063 -4.5507,-0.1133 -10.54022,-0.22657 -10.53222,3.32813 0.0117,1.6602 1.58592,2.91745 3.19922,2.71435 45.4492,4.4062 90.90626,8.75397 136.34766,13.23047 62.273396,7.1289 124.550757,16.93357 184.910157,34.10157 1.948389,0.51499 3.872471,1.11785 5.77002,1.77246 2.493291,0.85839 4.918572,1.85045 7.274414,2.92822 0.627907,0.2874 1.228749,0.6036 1.844238,0.90527 1.78034,0.87264 3.50331,1.80184 5.16211,2.78614 22.042911,13.07617 32.236421,35.38077 -0.424805,52.63476 -24.5039,12.254 -53.04339,10.9102 -79.75049,10.5586 -100.351504,-8.3671 -200.598114,-18.8077 -301.012214,-26.5459 -2.3906,-0.2657 -4.61625,1.4843 -4.88965,3.8789 -0.3203,5.8398 6.50732,4.99511 10.56592,5.67481 6.1367,1.0664 12.3515,1.54345 18.5625,1.91455 84.8515,7.8242 169.78854,14.74949 254.573736,23.17529 4.767331,0.32207 9.614592,0.61506 14.450684,0.90674 -0.01417,0.0123 -0.02831,0.0244 -0.04248,0.0366 0.324263,0.0216 0.648406,0.0406 0.972656,0.0586 0.445722,0.45346 0.9219,0.87292 1.356445,1.33886 0.0488,0.0523 0.09783,0.10429 0.146485,0.15674 1.410551,1.52158 2.762687,3.10704 4.044433,4.76953 3.2195826,5.27848 5.0583606,10.03618 5.8212895,14.33936 0.085502,0.48205 0.1760984,0.96596 0.2329101,1.43848 0.085942,0.69873 0.1488813,1.38792 0.1757813,2.06103 0.00438,0.10665 0.01314,0.2165 0.016113,0.32227 0.2820435,10.63999 -6.7420039,18.04504 -16.6962889,22.9292 -1.457819,0.71601 -2.9604,1.39401 -4.530762,2.00244 -0.67344,0.26078 -1.389457,0.47171 -2.080078,0.71338 -1.168342,0.40874 -2.32868,0.8271 -3.539063,1.18213 -9.171578,2.6953 -19.362958,3.88868 -28.32129,3.90673 -44.074201,1.125 -87.976631,-3.9331 -131.894531,-6.8042 -42.7657,-2.7656 -85.37056,-3.59815 -128.21046,-5.98095 -5.7734,-0.7344 -6.5825,8.23484 -1.0122,8.78174 19.9726,0.9961 39.88622,2.80811 59.87842,3.49951 34.2749,0.80474 68.43955,3.52492 102.61523,6.00439 -17.97469,29.76536 -49.31917,51.26535 -84.78955,52.97901 -38.1562,1.711 -98.98784,-6.07472 -131.70264,-26.07862 -36.0977,-25.7774 -45.00093,-77.51119 -44.22363,-119.23389 1.8008,-48.4805 24.25386,-98.54689 65.78906,-125.55469 28.9727,-17.8047 63.81737,-20.89063 96.93457,-24.08203 25.1992,-1.44335 50.53955,-2.18017 75.87305,-2.00537 z m 635.27346,12.854 c 1.66144,1.92651 3.47014,3.68427 5.41113,5.27344 -3.76748,1.58005 -7.28442,3.78063 -10.4458,6.44092 1.99709,-3.89185 3.63525,-7.86593 5.03467,-11.71436 z m 100.45605,9.25782 c 0.50446,0.19753 1.0543,0.31524 1.64942,0.30469 9.9882,0.5703 21.19038,2.42968 27.41308,11.17968 4.75,7.3047 3.35937,17.57419 -1.14843,24.67969 -4.49881,6.11401 -10.32684,10.77601 -16.87061,14.21777 -2.35171,1.2368 -4.79698,2.31882 -7.3125,3.24024 -0.35395,0.12998 -0.6996,0.27887 -1.05615,0.40283 -0.0482,0.0168 -0.0967,0.0331 -0.14502,0.0498 -2.46724,0.85132 -4.99236,1.5619 -7.5542,2.13427 -0.002,5.5e-4 -0.005,9.3e-4 -0.007,10e-4 -7.76141,1.73326 -15.84323,2.22199 -23.55029,1.68017 -19.4961,-1.7735 -39.54204,-0.74995 -58.38574,-6.84375 -0.99889,-0.31745 -2.02328,-0.67674 -3.05713,-1.06201 -1.37386,-0.51113 -2.76737,-1.09849 -4.1543,-1.72705 -0.25296,-0.11466 -0.50647,-0.22283 -0.75879,-0.34131 -1.38679,-0.65136 -2.75786,-1.3644 -4.09277,-2.12988 -10.80673,-6.19134 -18.99772,-16.02203 -9.79248,-28.59961 4.293,-6.2109 9.35944,-11.44924 16.27734,-14.83594 1.38162,-0.6485 2.79758,-1.229 4.24658,-1.7124 3.44513,1.97096 7.12179,3.56254 10.91895,4.81934 -0.46069,2.80531 0.37778,6.64784 0.32373,8.77148 0.2888,2.2669 2.02242,3.30039 3.79102,3.30029 2.2027,-3e-4 4.46062,-1.6022 4.05322,-4.4165 -0.30937,-1.37063 -0.56211,-3.61287 -1.08984,-5.71436 2.34424,0.51822 4.70527,0.9354 7.05908,1.23926 5.9329,0.6931 11.98277,1.09287 18.04687,1.09277 6.77022,-1.6e-4 13.5513,-0.51029 20.19434,-1.6538 8.5e-4,0.004 0.002,0.009 0.003,0.0132 0.58357,-0.10049 1.16511,-0.2074 1.74609,-0.31787 0.003,-6.5e-4 0.007,-8.2e-4 0.0103,-10e-4 1.02521,-0.19505 2.0462,-0.40565 3.06299,-0.63281 0.0151,-0.003 0.0303,-0.007 0.0454,-0.0103 1.00522,-0.22508 2.00638,-0.46589 3.00292,-0.72364 0.002,-6.2e-4 0.005,-8.4e-4 0.007,-10e-4 0.0454,-0.0118 0.0908,-0.0233 0.13623,-0.0352 -1.8e-4,-9.4e-4 1.8e-4,-0.002 0,-0.003 3.06278,-0.79676 6.07859,-1.752 9.03516,-2.87695 -0.11055,1.86698 -0.1767,3.73586 -0.19043,5.6001 -0.0327,2.6634 2.12633,4.05782 4.26123,4.05762 1.9419,-1e-4 3.86423,-1.15421 4.09863,-3.55811 -0.15077,-1.88651 0.11973,-5.96313 -0.2168,-9.5874 z m -420.47755,36.44092 c 104.00022,4.25398 207.87679,8.52497 311.67189,12.81006 22.68237,19.08236 55.89345,16.23466 83.97803,18.6665 1.0823,0.0508 2.17803,0.0763 3.29443,0.0762 7.13869,-4.5e-4 14.90327,-1.07606 22.48242,-3.17431 0.008,0.01 0.0168,0.0194 0.0249,0.0293 1.23738,-0.342 2.46828,-0.71571 3.69141,-1.11474 0.0513,-0.0167 0.10256,-0.033 0.15381,-0.0498 0.79183,-0.26003 1.57954,-0.53215 2.36279,-0.81592 0.0782,-0.0283 0.15631,-0.0564 0.23438,-0.085 0.80555,-0.29463 1.60671,-0.6003 2.40088,-0.91992 l -10e-4,-10e-4 c 4.77837,-1.92378 9.32349,-4.31207 13.42529,-7.15284 18.90511,0.78255 37.81043,1.5655 56.70704,2.34961 -2.375,2.7109 -4.93455,5.419 -7.35645,8.1416 -0.3398,0.375 -0.44429,0.73829 -0.35449,1.05469 -4.05725,4.45636 -8.58435,9.43792 -12.67822,13.93213 -0.004,-1.6e-4 -0.008,1.6e-4 -0.0117,0 -1.1836,1.3007 -2.36817,2.60057 -3.55957,3.90527 0.006,2.5e-4 0.0117,10e-4 0.0176,10e-4 -1.33156,1.46162 -2.77794,3.05487 -4.11329,4.52051 -0.005,-0.002 -0.0108,-0.003 -0.0161,-0.004 -2.1211,2.3281 -4.2461,4.6602 -6.375,6.9961 0.007,0.002 0.0146,0.005 0.022,0.007 -30.21338,33.15799 -60.69233,66.57267 -92.66601,101.83448 2.3e-4,-0.006 10e-4,-0.0117 10e-4,-0.0176 -1.28074,1.41359 -2.56155,2.82421 -3.84228,4.23779 -0.67283,-0.0276 -1.34866,-0.0545 -2.02149,-0.082 -0.39538,-0.0165 -0.79047,-0.0324 -1.18652,-0.0498 v 0.001 C 335.17802,453.49818 169.69352,446.76076 4.015472,440.01984 3.1389887,433.13291 0.06548066,426.5737 -4.3561103,420.53303 c 4.44122262,0.16608 8.8874222,0.28864 13.3330082,0.28857 20.4086001,-2e-4 40.7246951,-2.10874 59.6835951,-9.61084 C 102.40503,397.192 111.98353,366.072 81.63315,343.88215 c 0.100731,-0.0618 0.211746,-0.0967 0.312011,-0.15967 5.780962,-3.65425 10.643321,-9.1166 13.958497,-15.33692 12.790122,-11.11554 25.702112,-22.33133 38.206052,-33.21679 z m 500.32912,29.33935 c -0.26343,4.6524 -0.5378,9.30473 -0.79688,13.95703 0.0899,0.543 0.0586,1.09715 0.0586,1.64795 0,0.3359 -0.007,0.66839 -0.0147,1.00049 -0.008,0.2656 -0.0204,0.52736 -0.0439,0.78516 4.1e-4,0.006 -3.6e-4,0.0127 0,0.019 0.0237,0.42014 -0.0531,0.82876 -0.20215,1.21582 -0.002,0.005 -0.003,0.01 -0.004,0.0147 -0.004,0.0125 -0.008,0.0232 -0.0117,0.0352 -0.0623,0.1966 -0.14867,0.38923 -0.25635,0.57129 0.004,0 0.008,3.9e-4 0.0117,0.004 -0.0117,0.0117 -0.0235,0.0278 -0.0352,0.0396 -0.1953,0.3203 -0.44869,0.60104 -0.73389,0.82764 -2.09335,2.35556 -4.29129,4.70488 -6.40137,7.0708 -9.5e-4,-1.6e-4 -0.002,1.6e-4 -0.003,0 -0.0625,0.0664 -0.12157,0.13282 -0.18017,0.19922 -0.3399,0.375 -0.44869,0.73731 -0.35889,1.05761 -1.9023,2.0898 -3.80915,4.18365 -5.72315,6.28125 0.002,4.7e-4 0.005,0.001 0.007,0.001 -36.45686,40.03242 -74.31016,81.51532 -113.44922,124.67871 0.27115,-6.64579 0.5444,-13.29218 0.82031,-19.93799 1.85493,-0.63669 3.42257,-1.60332 4.40918,-2.98388 1.6914,-1.8867 3.37549,-3.76515 5.06689,-5.64405 30.97131,-34.41883 60.0573,-66.90455 89.11964,-99.32959 0.006,0.002 0.0126,0.004 0.019,0.006 2.1407,-2.3867 4.27393,-4.76954 6.40283,-7.14844 -0.003,-8.5e-4 -0.007,-0.002 -0.0102,-0.003 1.68278,-1.87738 3.50559,-3.90506 5.18261,-5.77587 0.0239,9.8e-4 0.0479,0.002 0.0718,0.003 0.3828,-0.4765 0.81249,-0.91748 1.24219,-1.35498 0.3398,-0.3516 0.66451,-0.7193 1.01221,-1.0708 -0.0586,0.0586 -0.11279,0.11338 -0.17139,0.17578 0.5078,-0.5351 0.97995,-1.10106 1.46045,-1.65966 -0.0352,-10e-4 -0.0703,-0.003 -0.10547,-0.004 4.03789,-4.50415 8.50153,-9.47335 12.50684,-13.93945 0.46913,-0.21007 0.79009,-0.47739 1.11035,-0.73975 z m -528.7588,8.57227 c -1.98857,-0.0424 -4.04076,0.46508 -5.893071,1.06055 -4.0351,1.4843 -5.65677,6.77784 -4.17627,10.59814 0.9375,1.9805 2.370643,3.8159 4.144043,5.1167 1.548098,0.8672 3.102198,1.24961 4.583498,1.24951 7.8932,-5e-4 13.73292,-10.83207 5.74072,-16.70947 -1.34496,-0.91604 -2.85226,-1.28248 -4.39892,-1.31543 z M 625.9984,339.555 c -0.52186,0 -1.0031,0.22028 -1.32715,0.58447 -7.3e-4,-0.0154 -10e-4,-0.0313 -10e-4,-0.0469 v 0.0498 c -0.24237,0.27342 -0.39635,0.62698 -0.41308,1.02979 -0.0312,0.8867 0.70309,1.74316 1.61719,1.74316 0.914,0 1.7026,-0.67579 1.7417,-1.61719 0.0312,-0.8867 -0.70319,-1.74316 -1.61719,-1.74316 z m -8.81397,9.98584 c -0.9063,0 -1.68745,0.66698 -1.72265,1.59668 -0.0352,0.8789 0.69184,1.72265 1.59814,1.72265 0.9062,0 1.68756,-0.66698 1.72266,-1.59668 0.0352,-0.8789 -0.69195,-1.72265 -1.59815,-1.72265 z m 15.72071,3.05713 c -10e-4,0.0317 -0.003,0.0635 -0.004,0.0952 -0.0376,-0.005 -0.0752,-0.0109 -0.11279,-0.0161 0.0388,-0.0267 0.0803,-0.052 0.11719,-0.0791 z M 606.64342,362.43 c -0.9219,0 -1.71579,0.67971 -1.75489,1.62891 -0.0352,0.8945 0.70701,1.75341 1.62891,1.75341 0.9219,0 1.71578,-0.6797 1.75488,-1.6289 0.0352,-0.8945 -0.707,-1.75342 -1.6289,-1.75342 z m -21.42481,21.83789 c -0.57919,4.5e-4 -1.15575,0.25117 -1.57324,0.71045 -1.59,1.7382 -3.14066,3.51219 -4.72266,5.25439 -4.8672,5.2695 -9.2729,10.94093 -13.5542,16.69483 -0.3203,0.4336 -0.55564,0.74222 -0.98144,1.32422 -0.5859,0.793 -0.25004,1.99562 0.53906,2.50342 0.297,0.1964 0.6191,0.28564 0.9375,0.28564 0.6702,-10e-5 1.32681,-0.39351 1.70801,-1.00781 1.7735,-2.3789 3.64069,-4.69923 5.49609,-7.01953 4.2969,-5.3711 9.14409,-10.24948 13.67139,-15.41748 0.7266,-0.832 0.59343,-2.15335 -0.23877,-2.85645 -0.3794,-0.3213 -0.83126,-0.47203 -1.28174,-0.47168 z m -45.46143,51.73389 c -0.9141,0 -1.70259,0.67579 -1.74169,1.61719 -0.0312,0.8867 0.70308,1.74169 1.61718,1.74169 0.914,0 1.7026,-0.67578 1.7417,-1.61718 0.0312,-0.8867 -0.70319,-1.7417 -1.61719,-1.7417 z m -535.5249111,8.7583 c 20.5746421,0.84031 41.1554681,1.67276 61.7211931,2.51953 144.328098,5.8672 288.500058,11.73393 432.527358,17.57373 0.52511,0.0433 1.05589,0.0534 1.58642,0.0659 -0.40889,5.9498 -0.77312,11.9003 -1.10156,17.85205 -0.0924,1.81591 -0.17896,3.63184 -0.26074,5.44775 -167.77254,-6.87443 -335.8327,-13.71176 -504.0776519,-20.55615 0.3392533,-0.31123 0.6981522,-0.58558 1.0312501,-0.9082 5.8690133,-7.46866 8.4172909,-14.86934 8.5737307,-21.99463 z m 14.8491211,3.61084 c -2.661548,-0.0987 -6.584501,0.94533 -8.102051,1.4956 -6.2657997,2.3496 -6.4647833,7.57906 -3.0131833,11.04346 1.1269,1.1304 2.6412143,2.07089 4.4619143,2.66309 6.8242,2.4063 14.137739,2.80566 21.290039,3.43066 14.8828,1.3711 29.831513,1.28419 44.749513,1.66699 1.9961,-0.0625 5.281701,0.17978 9.133301,0.42188 2.2572,0.143 4.710821,0.28724 7.215821,0.36914 1.3208,0.0427 2.656475,0.0674 3.984375,0.0674 6.094901,-10e-5 12.041861,-0.54393 15.785161,-2.49463 2.3341,-1.2181 3.81014,-2.98401 3.93164,-5.50781 -0.7077,-3.8494 -3.36657,-6.05006 -6.69727,-7.37256 -3.875,-1.5378 -8.65818,-1.88616 -12.333984,-2.25586 -26.0117,-1.707 -52.125008,-0.95363 -78.128908,-2.84033 -0.0521,-0.0524 -0.109387,-0.10078 -0.171387,-0.14648 -0.471125,-0.34758 -1.217798,-0.50763 -2.104981,-0.54053 z m 509.5254,0.69287 c -0.9335,0 -1.74165,0.69144 -1.77685,1.65234 -0.0352,0.9063 0.71484,1.77832 1.65234,1.77832 0.9336,0 1.74166,-0.69144 1.77686,-1.65234 0.0351,-0.9062 -0.71485,-1.77832 -1.65235,-1.77832 z m -507.465829,3.37939 c 2.3912,0.0174 4.857065,0.17482 7.072265,0.33692 2.5703,0.1875 4.801295,0.37494 6.191895,0.33984 15.4102,0.664 30.823694,1.10555 46.237794,1.65235 10.0976,0.5742 20.383805,-0.21436 30.208005,2.72314 1.6261,0.667 2.85196,1.52105 3.54346,2.42285 1.3724,1.7855 0.64272,3.75866 -3.25488,4.83106 -5.4477,1.3202 -11.11776,0.87136 -16.697756,0.62256 -0.8269,-0.0368 -1.652221,-0.0691 -2.474121,-0.0908 -18.6953,-1.4023 -37.480076,-0.57475 -56.163576,-2.16065 -5.711,-0.7031 -24.335907,-0.58938 -26.0039069,-6.97998 0.3323999,-1.0794 1.1748579,-1.86275 2.3642579,-2.42285 2.1703,-1.0231 5.494763,-1.30062 8.976563,-1.27442 z m 497.178239,8.13868 c -0.9102,0 -1.69918,0.67236 -1.73438,1.60986 -0.0352,0.8867 0.6982,1.73438 1.6084,1.73438 0.9101,0 1.69927,-0.67237 1.73437,-1.60987 0.0352,-0.8867 -0.69829,-1.73437 -1.60839,-1.73437 z m -189.42921,4.93213 c 2.3946,0.018 4.86339,0.179 7.07959,0.3413 2.5664,0.1875 4.7969,0.37505 6.1875,0.33985 15.4062,0.6641 30.8237,1.10164 46.2378,1.65234 10.0976,0.5704 20.37941,-0.21825 30.20361,2.72315 1.2189,0.49897 2.21348,1.10387 2.92676,1.75488 v -0.001 c -0.71299,-0.65187 -1.70718,-1.25756 -2.92676,-1.75781 -9.8242,-2.9375 -20.10894,-2.14738 -30.20654,-2.72168 -15.4141,-0.5468 -30.82916,-0.98824 -46.23926,-1.65234 -1.3906,0.0352 -3.62013,-0.15235 -6.19043,-0.33985 -2.2152,-0.1622 -4.68097,-0.32107 -7.07227,-0.33837 z m 90.67969,1.71093 c 0.41634,0.16532 0.82151,0.3448 1.21436,0.53907 -0.39296,-0.19423 -0.79792,-0.3738 -1.21436,-0.53907 z M 318.40903,467.805 c -0.40102,0.40079 -0.69512,0.86655 -0.86132,1.40625 0.2085,0.79883 0.6837,1.49657 1.36377,2.10645 -0.6797,-0.60988 -1.15137,-1.30762 -1.35938,-2.10645 0.16555,-0.5396 0.45802,-1.00544 0.8584,-1.40625 z m 104.55762,1.31836 c 0.16512,0.13039 0.32463,0.2661 0.48047,0.40576 -0.15594,-0.13964 -0.31525,-0.27539 -0.48047,-0.40576 z m 0.93457,0.84082 c 1.16952,1.19674 2.01183,2.7086 2.36573,4.6333 -0.0836,1.73467 -0.80729,3.11293 -2.00977,4.19971 1.2043,-1.08677 1.92944,-2.46432 2.0127,-4.19971 -0.35485,-1.92495 -1.19851,-3.43657 -2.36866,-4.6333 z m -103.82226,2.20459 c 0.43576,0.26282 0.91556,0.50638 1.43261,0.73096 -0.51687,-0.22461 -0.99707,-0.46811 -1.43261,-0.73096 z m -2.39209,3.34717 c 0.74798,0.45146 1.58186,0.83557 2.49316,1.13232 6.8242,2.4062 14.13764,2.80177 21.29004,3.43067 14.8789,1.3671 29.82761,1.28419 44.74951,1.66699 1.9961,-0.0625 5.28073,0.17967 9.13623,0.42187 2.2566,0.1416 4.7062,0.28375 7.2085,0.36475 -2.505,-0.082 -4.95862,-0.22467 -7.21582,-0.36767 -3.8516,-0.2422 -7.1372,-0.48438 -9.1333,-0.42188 -14.918,-0.3828 -29.86671,-0.29746 -44.74951,-1.66846 -7.1524,-0.625 -14.46438,-1.023 -21.28858,-3.4292 -0.90968,-0.29588 -1.74332,-0.67902 -2.49023,-1.12939 z"
         transform="matrix(1.3333333,0,0,1.3333333,1038.7476,662.98267)" />
    </g>
  </g>
</svg>
