 <svg version="1.1" xmlns="http://www.w3.org/2000/svg" xmlns:xlink="http://www.w3.org/1999/xlink" x="0px" y="0px"
	 viewBox="0 0 490.3 139.1" enable-background="new 0 0 490.3 139.1" xml:space="preserve">
<g id="Barra">
	<path id="barra" stroke="#000000" stroke-miterlimit="10" d="M25.5,136.5l68.4-64.7c0,0,19.5-17.8,30.8-23.8
		c18.2-9.6,44-9.5,44-9.5l319.8,0.3l-0.1-33.6L173.3,5c0,0-38.5-0.3-60.5,17.6C98.5,34.3,76.8,58,76.8,58L5.2,136.5L25.5,136.5z"/>
	<linearGradient id="barra_2_" gradientUnits="userSpaceOnUse" x1="2.2628" y1="66.9767" x2="486.4085" y2="66.9767">
		<stop  offset="0.1344" style="stop-color:#FF0000"/>
		<stop  offset="0.6" style="stop-color:#000000"/>
	</linearGradient>
	<path id="barra_1_" fill="url(#barra_2_)" d="M23.3,132.7L90.8,68c0,0,19.5-17.8,30.8-23.8c18.2-9.6,44-9.5,44-9.5l320.8,0.3
		l-0.1-33.6l-316-0.3c0,0-38.5-0.3-60.5,17.6c-14.3,11.7-36,35.7-36,35.7L2.3,132.7L23.3,132.7z"/>
	<path id="ombra_interna_barra" fill="none" stroke="#000000" stroke-width="2" stroke-miterlimit="10" d="M24.5,132.8l67.3-64
		c0,0,19.5-17.8,30.8-23.8c18.2-9.6,44-9.5,44-9.5l319.8,0.3l-0.1-33.6L171.3,2c0,0-38.5-0.3-60.5,17.6C96.5,31.3,74.8,55,74.8,55
		L3.7,132.7L24.5,132.8z"/>
	<linearGradient id="contorno_barra_1_" gradientUnits="userSpaceOnUse" x1="0" y1="66.8525" x2="487.3947" y2="66.8525">
		<stop  offset="3.225806e-002" style="stop-color:#000000"/>
		<stop  offset="0.9731" style="stop-color:#FF0000"/>
	</linearGradient>
	<path id="contorno_barra" fill="none" stroke="url(#contorno_barra_1_)" stroke-width="2" stroke-miterlimit="10" d="M23.2,132.7
		l67.6-64.9c0,0,19.5-17.8,30.8-23.8c18.2-9.6,44-9.5,44-9.5l320.8,0.3l-0.1-33.6L170.3,1c0,0-38.5-0.3-60.5,17.6
		C95.5,30.3,73.8,54,73.8,54L2.3,132.7L23.2,132.7z"/>
</g>
<g id="SRM">
	<g id="OmbraSitoricambi_1_">
		<path stroke="#000000" stroke-miterlimit="10" d="M489.8,138.5c-1.6,0.2-3.1-0.2-4.5-1.1c-0.6-0.4-1.3-0.7-1.9-1
			c-1.1-0.5-2.1-1-3.4-0.4c-0.7,0.3-1.6,0.2-2.4,0.2c-1.5,0-3.1,0-4.8,0c0-0.5-0.1-1.2-0.1-1.8c0-16.5,0-33,0-49.5c0-1.5,0.5-2,2-2
			c3.8,0,7.6,0.1,11.4,0.1c1.8,0,2.1,0.3,2,2c-0.1,1.8,0.1,3.7-0.3,5.5c-0.5,2.3,0.9,4.1,1.3,6.2c-0.8-1-1.5-2-2.4-3.3
			c-0.7,1-1.3,1.9-2,3c0.3,0.1,0.8,0.5,1.3,0.7c1.9,0.7,2,0.9,2.1,2.9c0.1,1.5-0.1,2.9-1.2,4.1c-0.4,0.5-0.2,1.6-0.1,2.5
			c0,1.7,0.1,3.4,0.2,5c0,0.5,0.4,0.9,0.7,1.4c0.2,0.4,0.5,0.8,0.5,1.3c0,6.2,0,12.5-0.1,18.7c0,0.2,0,0.4,0,0.6c-0.5,0-1,0-1.6,0
			c1.2,0.8,2.2,1.6,3.3,2.4C489.8,136.8,489.8,137.7,489.8,138.5z"/>
		<path stroke="#000000" stroke-miterlimit="10" d="M423.3,136.1c-5.2,0-10.2,0-15.4,0c0-0.8,0-1.6,0-2.4c0-11.6,0-23.3,0-34.9
			c0-1.3-0.2-2.7-0.4-4c-0.1-0.9-0.7-1.5-1.7-1.5c-1,0-1.8,0.3-2,1.4c-0.3,1.8-0.8,3.5-0.8,5.3c-0.1,10.6,0,21.2,0,31.8
			c0,1,0,2.1,0,3.1c0,0.9-0.4,1.4-1.4,1.4c-1.6,0-3.2,0-4.9,0c0.1-0.5,0.1-0.9,0.1-1.3c-2.9-1.4-6.2-1.2-9.5-2
			c0.1-1.5-0.1-3.3,0.5-4.7c0.6-1.4,2-2.4,3.1-3.8c-0.8-0.3-1.4-0.5-2.1-0.7c-0.9-0.3-1.3-0.8-1.3-1.8c0-4.4,0-8.7,0.1-13.1
			c0-0.8,0.7-1.6,1.1-2.6c-1.3-0.5-1.2-1.8-1.3-3.1c0-2.7-0.2-5.4-0.2-8.1c0-1-0.3-1.6-1.4-1.7c-1.1-0.1-2,0.2-2.3,1.3
			c-0.4,1.5-0.8,3.1-0.9,4.7c-0.1,3,0,5.9-0.1,8.9c0,0.4-0.1,0.8-0.1,1.4c-0.6-0.2-1.1-0.3-1.6-0.4c-0.1,0.1-0.2,0.1-0.2,0.2
			c0.2,0.3,0.4,0.6,0.7,0.7c0.6,0.3,1.5,0.1,1.3,1.3c-0.2,1-0.7,1.4-1.6,1.3c-0.1,0-0.1,0.1-0.4,0.2c2.1,0.6,2,2.2,2,3.8
			c0,0.8,0,1.7,0,2.5c0,2.1,0.2,4.2-1.5,5.9c1.3,0.8,1.5,1.9,1.5,3.1c0,2.6,0,5.2,0,7.8c-0.6,0-0.9,0.1-1.3,0.1c-3.9,0-7.8,0-11.8,0
			c-1.8,0-2.2-0.4-2.2-2.2c0-16.2,0-32.4,0.1-48.6c0-2.2,0.3-2.5,2.5-2.5c3.3,0,6.6,0,9.8,0c2.6,0,2.7,0,2.9,2.8
			c2.2-2.4,5-3.2,8-3.3c3-0.1,5.8,0.4,8.3,2.2c1.2-1.9,3.3-2,4.3-0.2c4.3-2.7,8.9-2.4,13.5-1.1c2.6,0.7,4.2,2.6,5.2,5.1
			c1.6,4,1.7,8.2,1.7,12.4c0,3.8,0,7.7,0,11.5c0,0.5-0.1,1.1-0.2,1.6c-0.1-0.1-0.2-0.2-0.3-0.2c-0.6,0.6-1.2,1.1-2,1.9
			c2.8,0.2,2.4,2,2.4,3.6c0,5.2,0,10.5,0,15.7C423.3,135.3,423.3,135.6,423.3,136.1z"/>
		<path stroke="#000000" stroke-miterlimit="10" d="M436.1,73c1.7,0.5,3.1,1,4.7,1.3c0.5,0.1,1-0.1,1.5-0.2c0.8-0.2,1.7-0.5,2.5-0.5
			c1.1,0,1.3,0.9,1.3,1.8c0,2.5,0,5,0,7.6c0,0.4,0,0.9,0,1.5c4.4-2.8,8.9-2.4,13.5-1c-0.1,0.1-0.1,0.2-0.2,0.3
			c0.4,0.4,0.8,0.9,1.2,1c3.6,1.3,4.8,4.3,5.4,7.6c0.3,1.8,0.4,3.6,0.4,5.5c0,7.3,0.1,14.6,0,21.8c0,2.6-0.3,5.2-0.7,7.7
			c-0.4,2.2-1.6,4.2-3.1,5.9c-0.2,0.2-0.7,0.4-1.1,0.3c-1-0.2-2-0.5-3.1-0.8c-0.4,0.5-0.7,1-1.2,1.6c0.6,0.3,1.1,0.6,1.7,1
			c-3.1,2-8.8,2.4-12.9-2c0,0.9,0,1.7,0,2.7c-0.5,0-0.9,0.1-1.3,0.1c-4.2,0-8.4,0-12.6,0c-1.7,0-2.2-0.5-2.2-2.2
			c0-2.5,0.1-5,0.1-7.5c0-16.8,0-33.6,0-50.4c0-2.1,0.5-2.6,2.6-2.5c0.5,0,1.1,0.1,1.5,0.2C435.2,74.1,435.8,73.9,436.1,73z
			 M444.4,108c1.6,0.9,1.7,2.2,1.7,3.7c0.1,4,0.3,8,0.5,12.1c0.1,1.2,0.7,1.8,1.9,1.8c1.2,0.1,1.9-0.5,2-1.7
			c0.1-0.6,0.1-1.1,0.1-1.7c0-7,0-14,0.1-21c0-0.4,0.4-1.1,0.2-1.3c-1.1-1.1-0.1-1.6,0.3-2c-0.3-0.9-0.7-1.7-0.8-2.5
			c-0.1-1.1-0.4-1.9-1.6-2c-1.2-0.1-2,0.3-2.3,1.5c-0.2,0.7-0.3,1.4-0.4,2.1c-0.1,2.2-0.1,4.3-0.1,6.5
			C446.1,105.2,445.8,106.7,444.4,108z"/>
		<path stroke="#000000" stroke-miterlimit="10" d="M129.8,133.2c-0.2-0.2-0.5-0.4-0.6-0.6c-1.1-1.2-2-1-2.7,0.5
			c-0.1,0.3-0.5,0.5-0.9,1.1c0.1,0.1,0.3,0.5,0.5,1.1c-0.8,0.8-2.2,0.8-3.5,1c-3.8,0.6-7.6,0.4-11.4-0.5c-5.9-1.4-9.4-5.2-10.3-11.1
			c-0.6-4.2-0.6-8.4-0.8-12.6c2.5-0.5,3.6,0,3.9,1.3c1.1,0.4,2,0.7,3.2,1.1c0-0.8,0-1.4,0-1.9c0.8-0.2,1.7,0.6,2.1-0.6
			c0-0.1,0.4-0.1,0.6-0.1c1.8,0,3.5,0,5.4,0c0,0.8,0,1.5,0,2.2c0.1,2.5,0,5,0.2,7.5c0.1,1.8,1.1,2.5,2.7,2.3
			c0.9-0.1,1.6-0.6,1.7-1.6c0.6-3.8,0-7.2-3-10c-1.5-1.4-3-2.7-4.5-4.1c-1-0.9-2-1.7-2.9-2.7c-0.3-0.3,0-1,0-1.7c-0.5,0-1.3,0-2.1,0
			c0-0.1,0.1-0.2,0.1-0.3c-0.4-0.3-0.7-0.5-1.1-0.8c-0.4-0.3-0.8-0.7-1.2-1.1c-6.7-6.5-6.1-17.1-1.9-22.8c0.3-0.4,0.7-0.9,1.1-1.3
			c0.5-0.5,1.1-1,1.7,0c0.2,0.3,0.9,0.2,1.5,0.3c0-0.7,0-1.3,0-1.8c0.7,0,1.3,0,1.9,0c0-0.5,0.1-1,0.1-1.3c0.9-0.4,1.7-0.9,2.5-1
			c3.4-0.5,6.9-0.5,10.3,0.2c1.9,0.4,3.7,0.9,5.4,1.8c1.4,0.8,2.5,2,3.7,3.2c0.9,1,0.5,2.2-1.1,2.7c0.2,0.4,0.5,0.8,0.8,1.4
			c0-0.1-0.1,0.2-0.1,0.5c2.5,0.3,3.1,0.8,3.3,3.2c0.2,1.5,0.3,3,0.4,4.5c0.1,0.7-0.1,1.5-1,1.4c-0.7,0-1.9,0.7-2.1-0.9
			c-0.9,0.2-2-0.6-2.8,0.7c-0.2,0.3-0.8,0.3-1.2,0.3c-2.7,0-5.4,0-8.3,0c0-1.5,0-3,0-4.5c0-1.8-1.3-2.7-3-2.1
			c-1.1,0.4-1.7,1.2-1.3,2.3c0.5,1.3,1.1,2.8,2.1,3.8c2.6,2.6,5.5,4.9,8.2,7.3c0.1,0.1,0.2,0.2,0.4,0.5c-0.4,0.1-0.7,0.2-1.1,0.3
			c0.1,0.3,0.1,0.7,0.2,1c0.1,0.2,0.4,0.4,0.7,0.8c0.9,0.5,2.1,1.1,3.2,1.6c0-0.1,0-0.1,0.1-0.2c0.2,0.2,0.3,0.5,0.5,0.7
			c0.2-0.1,0.4-0.3,0.6-0.4C137,110.8,137,127.1,129.8,133.2z"/>
		<path stroke="#000000" stroke-miterlimit="10" d="M214.6,86.7c0.7,0.2,1.3,0.3,2,0.5c1.4,0.5,2.8,1,4.3,1.5
			c0.6,0.2,1.2,0.3,1.7,0.5c0.3,0.1,0.7,0.4,0.8,0.7c1.3,2,2.2,4.2,2.2,6.6c0.1,6.2,0.2,12.4,0.2,18.6c0,3.1-0.1,6.3-0.4,9.4
			c-0.6,4.6-3.3,7.8-7.3,9.9c-0.7,0.4-1.7,0.3-2.5,0.2c-1.1-0.1-2.2-0.5-3.3-0.5c0.8,0.3,1.6,0.7,2.5,1c-1.7,1.6-3.3,0-5-0.1
			c0.2,0.5,0.4,0.9,0.6,1.4c-1.2,0-2.3,0.1-3.4,0c-2.4-0.3-4.9-0.4-7.2-1c-6.5-1.9-9.9-6.4-10-13.1c-0.1-8.2-0.2-16.3-0.2-24.5
			c0-7.8,5.7-14.2,13.5-15.3c3.3-0.5,6.7-0.5,10,0.2c0.5,0.1,1,0.3,1.5,0.5c0.3-0.4,0.6-0.9,0.9-1.5c1.9,0.5,3.8,1,5.8,1.5
			c-0.6,1-1,2-1.7,2.7c-0.4,0.4-1.3,0.4-1.9,0.3c-0.6,0-1.2-0.4-1.8-0.5c-0.4,0-0.9,0.2-1.4,0.4C214.5,86.4,214.6,86.5,214.6,86.7z
			 M214.5,113c-0.7-0.1-1.2-0.1-1.6-0.2c-0.4-0.1-0.7-0.3-1.1-0.4c-1.5-0.3-1.7-0.6-1.7-2.1c0-4.2,0-8.3,0-12.5
			c0-0.9-0.1-1.8-0.3-2.6c-0.3-1.4-0.9-1.9-2.2-1.8c-1.2,0-1.9,0.6-2.1,1.9c-0.2,1.4-0.2,2.8-0.3,4.2c-0.1,2-0.7,2.8-2.7,3.1
			c0.4,0.5,0.9,0.9,1.4,1.3c0.4,0.4,1.1,0.8,1.2,1.3c0.2,1.5,0.1,3,0.1,4.6c-0.6,0-1,0-1.5,0c0,0.1,0,0.1-0.1,0.2
			c0.6,0.3,1.1,0.7,1.7,1c-0.9,1.7-2,0-3,0.2c0.5,0.6,0.9,1.1,1.4,1.6c-0.1,0-0.2,0-0.3,0c-0.1,0.9-0.3,1.8-0.4,2.8
			c2.2,0.4,2.2,0.4,2.2,2.8c0,1.6,0,3.3,0.1,4.9c0.1,1.3,0.9,2.1,2.1,2.2c1.2,0.1,2.2-0.4,2.4-1.7c0.3-2.1,0.4-4.3,0.5-6.5
			C212.4,116.6,213.8,115.1,214.5,113z M200.3,98.9c0.5,0.8-0.8,1.7,0.6,2.2c0.2-0.7,0.4-1.3,0.6-1.9
			C201.3,99.1,200.9,99,200.3,98.9z"/>
		<path stroke="#000000" stroke-miterlimit="10" d="M325.8,99.7c0.2-2.8,0.4-5.4,0.6-8.2c1,0.1,1.9,0.1,2.8,0.2c0-0.1,0-0.2,0.1-0.3
			c-0.4-0.2-0.7-0.3-1.1-0.5c0-1.2,1.4-2.2,0.7-3.8c1.2-1.6,3.1-2.9,5.3-3.5c5.8-1.6,11.6-2.1,17.4-0.1c4.3,1.5,7.7,4,8.8,8.6
			c0.4,1.8,0.4,3.6,0.4,5.5c0,10.1,0,20.1,0,30.2c0,0.2,0,0.5,0,0.7c-2,0.1-1.6,2.1-2.7,3.1c0.6,0.2,1,0.4,1.4,0.6
			c1.3,0.6,1.7,1.3,1.3,2.7c-0.3,1.2-1.3,1.2-2.2,1.2c-3.4,0-6.7-0.4-9.9-1.5c-0.4-0.1-0.8-0.2-1.2-0.3c-0.2,0.6-0.3,1.2-0.5,1.8
			c-0.4,0-0.8,0-1.3,0c0-1.1-0.1-2.1-0.1-2.9c-1.5,0.9-2.9,2.2-4.5,2.8c-3.6,1.3-7.1,0.8-10.5-1c-2.7-1.5-3.7-4.1-4.5-6.8
			c-0.9-2.9-0.8-5.8-0.6-8.8c0.1-1.7,0.2-3.4,0.5-5.1c0.7-4.7,3.5-7.7,7.9-9.2c3.4-1.2,6.9-2.3,10.3-3.3c0.9-0.3,1.3-0.7,1.3-1.7
			c-0.1-1.4-0.1-2.9-0.2-4.3c-0.1-0.6-0.3-1.3-0.7-1.7c-0.4-0.4-1.2-0.8-1.7-0.7c-0.5,0.1-1.3,0.7-1.4,1.2c-0.3,1.2-0.2,2.4-0.3,3.7
			c0,0.7-0.2,1.4-1.1,1.4C335.3,99.7,330.6,99.7,325.8,99.7z M348.2,114.4c0-0.1-0.1-0.3-0.1-0.4c-3.7,0-2.9-2.7-3-5
			c-1.7,1.2-3.3,2.2-5.1,3.4c0.7,0.2,1.2,0.4,1.7,0.6c0,2-0.2,2.2-3,2.2c0.6,0.2,1.3,0.4,2,0.7c0,1.4-0.1,2.8,0,4.2
			c0.1,1.4,0.2,2.8,0.5,4.1c0.1,0.5,0.8,1.2,1.3,1.3c0.5,0.1,1.4-0.3,1.7-0.8c0.5-0.6,0.7-1.5,0.8-2.3c0.1-1,0-2.1,0.1-3.1
			c0-1.3,0.5-2.3,1.6-3.1C347.3,115.8,347.7,115,348.2,114.4z"/>
		<path stroke="#000000" stroke-miterlimit="10" d="M307.1,103.3c1.5,0.4,2.9,0.7,4.4,1.1c0-0.1,0.1-0.2,0.1-0.4
			c-0.3-0.1-0.6-0.3-0.9-0.3c-1.6-0.5-3.3-1-4.9-1.4c-1.1-0.3-1.4-1.2-1.4-2.2c0-1.6-0.1-3.3-0.2-4.9c-0.1-1.1-0.6-1.7-1.7-1.8
			c-1.3-0.1-2.3,0.4-2.6,1.6c-0.2,1.1-0.3,2.2-0.3,3.3c0,7.7,0,15.4,0,23.2c0,0.8,0.2,1.6,0.4,2.3c0.3,1.1,1.1,1.6,2.2,1.6
			c1.1,0,1.9-0.7,2.1-2c0.1-1,0.2-2.1,0.2-3.1c0-2,0-4,0-6.2c1.1,0.3,2,0.6,2.9,0.9c0.5,0.2,0.9,0.2,1.3-0.4
			c0.9-1.5,2.3-2.2,4.1-2.2c1.9,0,3.8,0,5.6,0c1.4,0,1.7,0.3,1.7,1.7c-0.1,3.5,0,7-0.3,10.4c-0.6,5.5-4.8,9.7-10.5,11.3
			c-4.1,1.1-8,0.7-11.9-0.6c-1.1-0.4-2.3-0.6-3.5-0.9c-0.2,0-0.4-0.2-0.6-0.1c-2.7,1-3.9-1.2-5.4-2.6c-2.6-2.5-3.3-5.8-3.6-9.2
			c-0.2-3-0.3-6-0.5-9c0-0.7,0.1-1.2,0.8-1.5c0.9-0.4,1.6-1.1,1.6-2.1c-2.3-0.8-2.3-0.8-2.3-3.1c0-1-0.4-2,0.5-2.9
			c0.1-0.1-0.1-0.4-0.2-0.7c-0.4-0.9-0.7-1.8-1.1-2.7c1.5-1.3,2.7,0.6,4.2,0.2c-1.1-0.4-2.2-0.7-3.4-1.1c0.4-5.8,1.4-11.3,6.8-14.7
			c3.3-2.1,6.9-2.5,10.7-2.5c1.7,0,3.4,0,5,0.3c0.7,0.1,1.3,0.7,2,1c0.8,0.4,1.6,1,2.5,1.2c5.8,1.3,8.8,4.8,9,10.7
			c0.1,2.6,0,5.1,0,7.7c0,1.1-0.5,1.6-1.6,1.6c-1.6,0-3.1,0-4.7,0c-0.8,0-1.2,0.3-1.6,0.9c-1.4,2.5-1.5,2.4-4.1,1.7
			c-0.4-0.1-0.8-0.2-1.1-0.4c-1.6-0.6-1.8-1.1-0.8-2.5C306.5,104.3,306.8,103.8,307.1,103.3z"/>
		<path stroke="#000000" stroke-miterlimit="10" d="M178,121.7c0.8,0.2,1.6,0.4,2.4,0.6c0,0.8,0,1.6,0,2.4c0,0.8,0.3,1.1,1.1,1
			c0.2,0,0.5,0,0.7,0c1.8,0,2.1,0.3,2.1,2.1c0,2,0,4.1,0,6.1c0,0.9-0.3,1.6-1.3,1.8c-4,0.8-8,1.3-12,0.3c-3.7-0.9-5.5-3-5.5-6.8
			c-0.1-6-0.2-12.1-0.3-18.1c0-1,0.6-1.7,1.1-2.4c0.5-0.8,0.9-1.7,1.3-2.6c-1.6,0.6-2.5-0.3-2.5-2c0.1-2.6,0.1-5.3,0.1-7.9
			c0-0.2-0.1-0.3-0.1-0.5c-0.7,0-1.4,0-2-0.1c-1-0.1-1.7-0.5-1.6-1.8c0.1-3,0-6.1,0-9.2c1.2,0,2.4,0,3.8,0c0-2,0-3.9,0-5.7
			c0-1.3,0-2.6,0-3.8c0-0.9,0.3-1.3,1.3-1.3c4,0,8.1-0.1,12.1-0.1c1.4,0,1.9,0.6,1.8,1.9c0,0.6-0.1,1.2-0.1,1.9
			c0.4,0.2,0.8,0.4,1.1,0.6c0,1.4,0,2.7,0,4.1c-1.5,0-2.9,0-4.3,0c0,0.1-0.1,0.2-0.1,0.4c0.7,0.3,1.3,0.5,2,0.8
			c0.6,0.3,1.1,0.6,1.7,0.9c0,0.1-0.1,0.2-0.1,0.4c0.8,0,1.5,0,2.3,0c0.9,0,1.5,0.4,1.5,1.5c0,2.7,0,5.4,0,8c0,1.1-0.5,1.5-1.5,1.5
			c-0.7,0-1.5,0-2.4,0c0,0.5,0,1,0,1.4c0,5.3,0,10.6,0,15.8c0,1.4,0,2.8-0.2,4.2c-0.2,1-0.8,1.9-1.2,2.9
			C178.7,120.6,178.4,121.1,178,121.7z"/>
		<path stroke="#000000" stroke-miterlimit="10" d="M240.8,82.9c1.7,0,3.4,0,5,0c1.6,0,1.8,0.3,1.8,1.8c0,0.4,0,0.7,0,1.2
			c0.2-0.2,0.4-0.2,0.5-0.3c2.1-2.2,4.7-3.1,7.6-3.2c0.9,0,1.7,0.1,1.7,1.2c0.1,3.4,0,6.8,0,10.3c-2.3,0.3-4.6,0.7-6.9,1.1
			c-0.2,0-0.3,0-0.5,0c-2.6,0.7-2.6,0.5-2.5,2.9c0,0.3-0.1,0.5-0.1,0.9c-2.7-0.9-2.3,1.7-3.3,2.7c0.7,1.5,2.3,0.9,3.4,1.5
			c0,4.9,0,9.8,0,14.7c-0.3,0.1-0.6,0.1-1,0.2c1.8,1.4,1.2,3.3,1.3,5.2c-1.7-0.3-3.3-0.5-5-0.8c0.7,1,2,1.5,4.6,1.6
			c0,0.4,0.1,0.9,0.1,1.3c0,3,0,6.1,0,9.1c0,1.3-0.4,1.7-1.7,1.7c-3.8,0-7.7,0-11.5,0c-2.1,0-2.2-0.1-2.2-2.2c0-15.9,0-31.8,0-47.6
			c0-3.4,0-3.5,3.4-3.3c1.2,0,2.4,0.4,3.5,0.9C240.2,84.2,240.5,84.2,240.8,82.9z"/>
		<path stroke="#000000" stroke-miterlimit="10" d="M156.1,103.1c0.3,0.2,0.6,0.4,1.2,0.7c-0.8,0.2-1.5,0.3-2.2,0.5
			c0.3,0.5,0.6,1,1.1,1.6c-1,0-1.8,0-2.5,0c0,0.1,0,0.1,0,0.2c0.5,0.2,1,0.5,1.7,0.8c-0.6,0.5-0.9,0.7-1.3,1c0.4,1,0.7,2-0.4,2.7
			c-0.1,0.1-0.1,0.3-0.1,0.5c0,2.1,0,4.2,0,6.3c2.6,0.9,2.6,0.9,2.6,3.5c0,4.7-0.1,9.3-0.1,14c0,0.3-0.1,0.6-0.1,0.9
			c-1.5-0.4-2.9-0.7-4.4-1.1c-0.1,1.2-0.8,1.3-1.7,1.3c-2.3,0-4.6,0-6.9,0.1c-1.8,0-2.3-0.5-2.3-2.2c0-7.2-0.1-14.3,0.1-21.5
			c0.1-2.6-0.3-5.1-0.1-7.7c0.1-1.4,0.6-2.5,1.7-3.4c0.3-0.3,0.6-0.6,0.8-1c0.6-1.2,0.6-1.2-0.7-1.1c-0.8,0.1-1.7-0.8-1.7-1.6
			c0-4.2,0-8.4,0-12.6c0-1.5,0.6-2.1,2.1-2.1c3.9,0,7.8,0,11.8,0c1.2,0,1.5,0.4,1.6,1.7c0.4,3.5-0.4,6.8-0.8,10.2
			c-0.1,0.7-0.3,1.3,0.5,1.8c0.1,0.1,0.2,0.4,0.2,0.6C156.1,99.1,156.1,101.1,156.1,103.1z"/>
		<path stroke="#000000" stroke-miterlimit="10" d="M275.9,132.8c0.1,0,0.4,0.3,0.7,0.3c1.1,0.2,1.1,1,1,1.8
			c-0.1,0.9-0.8,1.2-1.6,1.1c-3.1-0.2-6.1-0.4-9.2-0.7c-0.6-0.1-1.2-0.6-1.8-0.8c-0.5-0.2-0.9-0.5-1.4-0.5c-0.9-0.1-1.4-0.6-1.4-1.5
			c0-2,0-4.1,0-6.1c0-1.2,0.9-2.1,1.8-2.8c0.6-0.5,1-1.1,1.6-1.9c-0.9-0.3-1.5-0.5-2-0.7c-1-0.3-1.4-0.9-1.4-2c0-11.4,0-22.7,0-34.1
			c0-1.7,0.4-2.2,2.2-2.2c3.8,0,7.5,0,11.3,0c1.6,0,2,0.3,2,2c0,2.2,0,4.3,0,6.3c-0.5,0.3-0.9,0.5-1.2,0.8c-0.6,0.7-1.1,1.4-1.5,2.2
			c-0.4,0.7-0.5,1.3,0.4,1.8c1,0.6,0.4,1.3-0.1,1.9c0.8,0.4,1.7,0.6,2.1,1.2c0.4,0.5,0.2,1.5,0.2,2.2c-0.1,0-0.3,0.1-0.4,0.1
			c0.3,0.2,0.6,0.3,0.8,0.5c-0.8,0.6-1.6,1.2-2.6,2c0.4,0.3,0.5,0.4,0.7,0.5c1.9,1.1,2,1.6,0.6,3.3c-0.3,0.4-0.5,0.9-0.5,1.4
			c0,2.1,0.1,4.2,0.2,6.3c0,0.3,0.1,0.7,0.2,0.8c1.2,0.6,1,1.7,1,2.7c-0.1,3.6,0,7.3-0.3,10.9C277.3,130.7,276.5,131.7,275.9,132.8z
			"/>
		<path stroke="#000000" stroke-miterlimit="10" d="M478.7,71.4c0.1-0.5,0.1-1.5,0.6-2c0.4-0.4,1.4-0.4,2.1-0.2
			c0.9,0.2,2.1,0.4,2,1.9c1.6-0.1,3.1-0.2,4.8-0.3c0,3,0.1,5.9-0.1,8.8c0,0.5-0.8,1-1.2,1.3c-0.2,0.2-0.6,0.1-0.9,0.1
			c-4.1,0-8.2,0-12.3,0c-0.2,0-0.4,0-0.6-0.1c0-3.3,0-6.6,0-10.1C474.9,71.1,477,70.4,478.7,71.4z"/>
		<path stroke="#000000" stroke-miterlimit="10" d="M140.6,71c0.8,0.2,1.4,0.4,2,0.6c0.9,0.3,1.6,0.6,2.5-0.2
			c0.4-0.3,1.3-0.2,1.9-0.1c0.6,0.1,1.1,0.4,1.7,0.4c0.4,0,0.9-0.1,1.3-0.3c0.8-0.2,1.6-0.5,2.4-0.6c0.7-0.1,1.5,0.1,2.3,0.1
			c0.9,0,1.4,0.5,1.3,1.4c-0.2,2-0.1,4.2-2.3,5.5c0.6,0.2,0.9,0.5,1.3,0.6c1.1,0.1,1.2,1,1,1.6c-0.1,0.4-0.8,1-1.3,1
			c-4.2,0.1-8.3,0-12.5,0.1c-1.1,0-1.7-0.5-1.7-1.6C140.6,76.6,140.6,73.9,140.6,71z"/>
		<path stroke="#000000" stroke-miterlimit="10" d="M277.7,70.8c0,3.1,0,6,0,8.8c0,0.9-0.5,1.3-1.3,1.3c-4.1,0-8.2,0-12.3,0
			c-1,0-1.7-0.5-1.7-1.7c0-2.6,0-5.2,0-8c2.2,0.8,4.2,1.5,6.3,2.2c0.9-1.8,2.8-2.8,4.7-2.6C274.7,70.9,276.1,70.8,277.7,70.8z"/>
		<path stroke="#000000" stroke-miterlimit="10" d="M107.5,111.5c-0.8,0.7-1.4,1.6-1.7,1.5c-0.8-0.3-1.4-1-2.1-1.6
			c0.4-0.4,0.9-1.2,1.2-1.1C105.7,110.5,106.4,111,107.5,111.5z"/>
		<path stroke="#000000" stroke-miterlimit="10" d="M106.9,75.7c-0.2-0.1-0.4-0.2-0.5-0.3c-0.3-0.2-0.6-0.4-1-0.7
			c0.2-0.2,0.6-0.4,0.7-0.6c0.8-1.4,2.1-1.2,3.6-1.1C108.8,74,107.9,74.8,106.9,75.7z"/>
		<path stroke="#000000" stroke-miterlimit="10" d="M129.4,133.5c-0.4,0.6-0.7,1-1,1.4c-0.2,0-0.6,0.1-0.9,0.2
			c-0.1-0.1-0.2-0.1-0.3-0.2c0.3-0.5,0.5-1.1,0.9-1.4C128.2,133.2,128.8,133.4,129.4,133.5z"/>
	</g>
	<g id="Sitoricambi_riempimento">
		<linearGradient id="SVGID_1_" gradientUnits="userSpaceOnUse" x1="173.3291" y1="106.9085" x2="414.6624" y2="106.9085">
			<stop  offset="0.1882" style="stop-color:#000000"/>
			<stop  offset="0.7742" style="stop-color:#FF0000"/>
		</linearGradient>
		<path fill="url(#SVGID_1_)" d="M487.8,134.7c-1.6,0.2-3.1-0.2-4.5-1.1c-0.6-0.4-1.3-0.7-1.9-1c-1.1-0.5-2.1-1-3.4-0.4
			c-0.7,0.3-1.6,0.2-2.4,0.2c-1.5,0-3.1,0-4.8,0c0-0.5-0.1-1.2-0.1-1.8c0-16.5,0-33,0-49.5c0-1.5,0.5-2,2-2c3.8,0,7.6,0.1,11.4,0.1
			c1.8,0,2.1,0.3,2,2c-0.1,1.8,0.1,3.7-0.3,5.5c-0.5,2.3,0.9,4.1,1.3,6.2c-0.8-1-1.5-2-2.4-3.3c-0.7,1-1.3,1.9-2,3
			c0.3,0.1,0.8,0.5,1.3,0.7c1.9,0.7,2,0.9,2.1,2.9c0.1,1.5-0.1,2.9-1.2,4.1c-0.4,0.5-0.2,1.6-0.1,2.5c0,1.7,0.1,3.4,0.2,5
			c0,0.5,0.4,0.9,0.7,1.4c0.2,0.4,0.5,0.8,0.5,1.3c0,6.2,0,12.5-0.1,18.7c0,0.2,0,0.4,0,0.6c-0.5,0-1,0-1.6,0
			c1.2,0.8,2.2,1.6,3.3,2.4C487.8,132.9,487.8,133.8,487.8,134.7z"/>
		<linearGradient id="SVGID_2_" gradientUnits="userSpaceOnUse" x1="173.3291" y1="105.3999" x2="414.6624" y2="105.3999">
			<stop  offset="0.1882" style="stop-color:#000000"/>
			<stop  offset="0.7742" style="stop-color:#FF0000"/>
		</linearGradient>
		<path fill="url(#SVGID_2_)" d="M421.3,132.3c-5.2,0-10.2,0-15.4,0c0-0.8,0-1.6,0-2.4c0-11.6,0-23.3,0-34.9c0-1.3-0.2-2.7-0.4-4
			c-0.1-0.9-0.7-1.5-1.7-1.5c-1,0-1.8,0.3-2,1.4c-0.3,1.8-0.8,3.5-0.8,5.3c-0.1,10.6,0,21.2,0,31.8c0,1,0,2.1,0,3.1
			c0,0.9-0.4,1.4-1.4,1.4c-1.6,0-3.2,0-4.9,0c0.1-0.5,0.1-0.9,0.1-1.3c-2.9-1.4-6.2-1.2-9.5-2c0.1-1.5-0.1-3.3,0.5-4.7
			c0.6-1.4,2-2.4,3.1-3.8c-0.8-0.3-1.4-0.5-2.1-0.7c-0.9-0.3-1.3-0.8-1.3-1.8c0-4.4,0-8.7,0.1-13.1c0-0.8,0.7-1.6,1.1-2.6
			c-1.3-0.5-1.2-1.8-1.3-3.1c0-2.7-0.2-5.4-0.2-8.1c0-1-0.3-1.6-1.4-1.7c-1.1-0.1-2,0.2-2.3,1.3c-0.4,1.5-0.8,3.1-0.9,4.7
			c-0.1,3,0,5.9-0.1,8.9c0,0.4-0.1,0.8-0.1,1.4c-0.6-0.2-1.1-0.3-1.6-0.4c-0.1,0.1-0.2,0.1-0.2,0.2c0.2,0.3,0.4,0.6,0.7,0.7
			c0.6,0.3,1.5,0.1,1.3,1.3c-0.2,1-0.7,1.4-1.6,1.3c-0.1,0-0.1,0.1-0.4,0.2c2.1,0.6,2,2.2,2,3.8c0,0.8,0,1.7,0,2.5
			c0,2.1,0.2,4.2-1.5,5.9c1.3,0.8,1.5,1.9,1.5,3.1c0,2.6,0,5.2,0,7.8c-0.6,0-0.9,0.1-1.3,0.1c-3.9,0-7.8,0-11.8,0
			c-1.8,0-2.2-0.4-2.2-2.2c0-16.2,0-32.4,0.1-48.6c0-2.2,0.3-2.5,2.5-2.5c3.3,0,6.6,0,9.8,0c2.6,0,2.7,0,2.9,2.8
			c2.2-2.4,5-3.2,8-3.3c3-0.1,5.8,0.4,8.3,2.2c1.2-1.9,3.3-2,4.3-0.2c4.3-2.7,8.9-2.4,13.5-1.1c2.6,0.7,4.2,2.6,5.2,5.1
			c1.6,4,1.7,8.2,1.7,12.4c0,3.8,0,7.7,0,11.5c0,0.5-0.1,1.1-0.2,1.6c-0.1-0.1-0.2-0.2-0.3-0.2c-0.6,0.6-1.2,1.1-2,1.9
			c2.8,0.2,2.4,2,2.4,3.6c0,5.2,0,10.5,0,15.7C421.3,131.5,421.3,131.8,421.3,132.3z"/>
		<linearGradient id="SVGID_3_" gradientUnits="userSpaceOnUse" x1="173.3291" y1="101.0514" x2="414.6624" y2="101.0514">
			<stop  offset="0.1882" style="stop-color:#000000"/>
			<stop  offset="0.7742" style="stop-color:#FF0000"/>
		</linearGradient>
		<path fill="url(#SVGID_3_)" d="M434.1,69.1c1.7,0.5,3.1,1,4.7,1.3c0.5,0.1,1-0.1,1.5-0.2c0.8-0.2,1.7-0.5,2.5-0.5
			c1.1,0,1.3,0.9,1.3,1.8c0,2.5,0,5,0,7.6c0,0.4,0,0.9,0,1.5c4.4-2.8,8.9-2.4,13.5-1c-0.1,0.1-0.1,0.2-0.2,0.3
			c0.4,0.4,0.8,0.9,1.2,1c3.6,1.3,4.8,4.3,5.4,7.6c0.3,1.8,0.4,3.6,0.4,5.5c0,7.3,0.1,14.6,0,21.8c0,2.6-0.3,5.2-0.7,7.7
			c-0.4,2.2-1.6,4.2-3.1,5.9c-0.2,0.2-0.7,0.4-1.1,0.3c-1-0.2-2-0.5-3.1-0.8c-0.4,0.5-0.7,1-1.2,1.6c0.6,0.3,1.1,0.6,1.7,1
			c-3.1,2-8.8,2.4-12.9-2c0,0.9,0,1.7,0,2.7c-0.5,0-0.9,0.1-1.3,0.1c-4.2,0-8.4,0-12.6,0c-1.7,0-2.2-0.5-2.2-2.2
			c0-2.5,0.1-5,0.1-7.5c0-16.8,0-33.6,0-50.4c0-2.1,0.5-2.6,2.6-2.5c0.5,0,1.1,0.1,1.5,0.2C433.2,70.3,433.8,70.1,434.1,69.1z
			 M442.4,104.1c1.6,0.9,1.7,2.2,1.7,3.7c0.1,4,0.3,8,0.5,12.1c0.1,1.2,0.7,1.8,1.9,1.8c1.2,0.1,1.9-0.5,2-1.7
			c0.1-0.6,0.1-1.1,0.1-1.7c0-7,0-14,0.1-21c0-0.4,0.4-1.1,0.2-1.3c-1.1-1.1-0.1-1.6,0.3-2c-0.3-0.9-0.7-1.7-0.8-2.5
			c-0.1-1.1-0.4-1.9-1.6-2c-1.2-0.1-2,0.3-2.3,1.5c-0.2,0.7-0.3,1.4-0.4,2.1c-0.1,2.2-0.1,4.3-0.1,6.5
			C444.1,101.4,443.8,102.9,442.4,104.1z"/>
		<linearGradient id="SVGID_4_" gradientUnits="userSpaceOnUse" x1="173.3291" y1="101.1534" x2="414.6624" y2="101.1534">
			<stop  offset="0.1882" style="stop-color:#000000"/>
			<stop  offset="0.7742" style="stop-color:#FF0000"/>
		</linearGradient>
		<path fill="url(#SVGID_4_)" d="M127.8,129.4c-0.2-0.2-0.5-0.4-0.6-0.6c-1.1-1.2-2-1-2.7,0.5c-0.1,0.3-0.5,0.5-0.9,1.1
			c0.1,0.1,0.3,0.5,0.5,1.1c-0.8,0.8-2.2,0.8-3.5,1c-3.8,0.6-7.6,0.4-11.4-0.5c-5.9-1.4-9.4-5.2-10.3-11.1
			c-0.6-4.2-0.6-8.4-0.8-12.6c2.5-0.5,3.6,0,3.9,1.3c1.1,0.4,2,0.7,3.2,1.1c0-0.8,0-1.4,0-1.9c0.8-0.2,1.7,0.6,2.1-0.6
			c0-0.1,0.4-0.1,0.6-0.1c1.8,0,3.5,0,5.4,0c0,0.8,0,1.5,0,2.2c0.1,2.5,0,5,0.2,7.5c0.1,1.8,1.1,2.5,2.7,2.3
			c0.9-0.1,1.6-0.6,1.7-1.6c0.6-3.8,0-7.2-3-10c-1.5-1.4-3-2.7-4.5-4.1c-1-0.9-2-1.7-2.9-2.7c-0.3-0.3,0-1,0-1.7c-0.5,0-1.3,0-2.1,0
			c0-0.1,0.1-0.2,0.1-0.3c-0.4-0.3-0.7-0.5-1.1-0.8c-0.4-0.3-0.8-0.7-1.2-1.1c-6.7-6.5-6.1-17.1-1.9-22.8c0.3-0.4,0.7-0.9,1.1-1.3
			c0.5-0.5,1.1-1,1.7,0c0.2,0.3,0.9,0.2,1.5,0.3c0-0.7,0-1.3,0-1.8c0.7,0,1.3,0,1.9,0c0-0.5,0.1-1,0.1-1.3c0.9-0.4,1.7-0.9,2.5-1
			c3.4-0.5,6.9-0.5,10.3,0.2c1.9,0.4,3.7,0.9,5.4,1.8c1.4,0.8,2.5,2,3.7,3.2c0.9,1,0.5,2.2-1.1,2.7c0.2,0.4,0.5,0.8,0.8,1.4
			c0-0.1-0.1,0.2-0.1,0.5c2.5,0.3,3.1,0.8,3.3,3.2c0.2,1.5,0.3,3,0.4,4.5c0.1,0.7-0.1,1.5-1,1.4c-0.7,0-1.9,0.7-2.1-0.9
			c-0.9,0.2-2-0.6-2.8,0.7c-0.2,0.3-0.8,0.3-1.2,0.3c-2.7,0-5.4,0-8.3,0c0-1.5,0-3,0-4.5c0-1.8-1.3-2.7-3-2.1
			c-1.1,0.4-1.7,1.2-1.3,2.3c0.5,1.3,1.1,2.8,2.1,3.8c2.6,2.6,5.5,4.9,8.2,7.3c0.1,0.1,0.2,0.2,0.4,0.5c-0.4,0.1-0.7,0.2-1.1,0.3
			c0.1,0.3,0.1,0.7,0.2,1c0.1,0.2,0.4,0.4,0.7,0.8c0.9,0.5,2.1,1.1,3.2,1.6c0-0.1,0-0.1,0.1-0.2c0.2,0.2,0.3,0.5,0.5,0.7
			c0.2-0.1,0.4-0.3,0.6-0.4C135,106.9,135,123.3,127.8,129.4z"/>
		<linearGradient id="SVGID_5_" gradientUnits="userSpaceOnUse" x1="173.3291" y1="105.4015" x2="414.6624" y2="105.4015">
			<stop  offset="0.1882" style="stop-color:#000000"/>
			<stop  offset="0.7742" style="stop-color:#FF0000"/>
		</linearGradient>
		<path fill="url(#SVGID_5_)" d="M212.6,82.8c0.7,0.2,1.3,0.3,2,0.5c1.4,0.5,2.8,1,4.3,1.5c0.6,0.2,1.2,0.3,1.7,0.5
			c0.3,0.1,0.7,0.4,0.8,0.7c1.3,2,2.2,4.2,2.2,6.6c0.1,6.2,0.2,12.4,0.2,18.6c0,3.1-0.1,6.3-0.4,9.4c-0.6,4.6-3.3,7.8-7.3,9.9
			c-0.7,0.4-1.7,0.3-2.5,0.2c-1.1-0.1-2.2-0.5-3.3-0.5c0.8,0.3,1.6,0.7,2.5,1c-1.7,1.6-3.3,0-5-0.1c0.2,0.5,0.4,0.9,0.6,1.4
			c-1.2,0-2.3,0.1-3.4,0c-2.4-0.3-4.9-0.4-7.2-1c-6.5-1.9-9.9-6.4-10-13.1c-0.1-8.2-0.2-16.3-0.2-24.5c0-7.8,5.7-14.2,13.5-15.3
			c3.3-0.5,6.7-0.5,10,0.2c0.5,0.1,1,0.3,1.5,0.5c0.3-0.4,0.6-0.9,0.9-1.5c1.9,0.5,3.8,1,5.8,1.5c-0.6,1-1,2-1.7,2.7
			c-0.4,0.4-1.3,0.4-1.9,0.3c-0.6,0-1.2-0.4-1.8-0.5c-0.4,0-0.9,0.2-1.4,0.4C212.5,82.6,212.6,82.7,212.6,82.8z M212.5,109.2
			c-0.7-0.1-1.2-0.1-1.6-0.2c-0.4-0.1-0.7-0.3-1.1-0.4c-1.5-0.3-1.7-0.6-1.7-2.1c0-4.2,0-8.3,0-12.5c0-0.9-0.1-1.8-0.3-2.6
			c-0.3-1.4-0.9-1.9-2.2-1.8c-1.2,0-1.9,0.6-2.1,1.9c-0.2,1.4-0.2,2.8-0.3,4.2c-0.1,2-0.7,2.8-2.7,3.1c0.4,0.5,0.9,0.9,1.4,1.3
			c0.4,0.4,1.1,0.8,1.2,1.3c0.2,1.5,0.1,3,0.1,4.6c-0.6,0-1,0-1.5,0c0,0.1,0,0.1-0.1,0.2c0.6,0.3,1.1,0.7,1.7,1c-0.9,1.7-2,0-3,0.2
			c0.5,0.6,0.9,1.1,1.4,1.6c-0.1,0-0.2,0-0.3,0c-0.1,0.9-0.3,1.8-0.4,2.8c2.2,0.4,2.2,0.4,2.2,2.8c0,1.6,0,3.3,0.1,4.9
			c0.1,1.3,0.9,2.1,2.1,2.2c1.2,0.1,2.2-0.4,2.4-1.7c0.3-2.1,0.4-4.3,0.5-6.5C210.4,112.8,211.8,111.2,212.5,109.2z M198.3,95
			c0.5,0.8-0.8,1.7,0.6,2.2c0.2-0.7,0.4-1.3,0.6-1.9C199.3,95.3,198.9,95.2,198.3,95z"/>
		<linearGradient id="SVGID_6_" gradientUnits="userSpaceOnUse" x1="173.3291" y1="105.6911" x2="414.6624" y2="105.6911">
			<stop  offset="0.1882" style="stop-color:#000000"/>
			<stop  offset="0.7742" style="stop-color:#FF0000"/>
		</linearGradient>
		<path fill="url(#SVGID_6_)" d="M323.8,95.8c0.2-2.8,0.4-5.4,0.6-8.2c1,0.1,1.9,0.1,2.8,0.2c0-0.1,0-0.2,0.1-0.3
			c-0.4-0.2-0.7-0.3-1.1-0.5c0-1.2,1.4-2.2,0.7-3.8c1.2-1.6,3.1-2.9,5.3-3.5c5.8-1.6,11.6-2.1,17.4-0.1c4.3,1.5,7.7,4,8.8,8.6
			c0.4,1.8,0.4,3.6,0.4,5.5c0,10.1,0,20.1,0,30.2c0,0.2,0,0.5,0,0.7c-2,0.1-1.6,2.1-2.7,3.1c0.6,0.2,1,0.4,1.4,0.6
			c1.3,0.6,1.7,1.3,1.3,2.7c-0.3,1.2-1.3,1.2-2.2,1.2c-3.4,0-6.7-0.4-9.9-1.5c-0.4-0.1-0.8-0.2-1.2-0.3c-0.2,0.6-0.3,1.2-0.5,1.8
			c-0.4,0-0.8,0-1.3,0c0-1.1-0.1-2.1-0.1-2.9c-1.5,0.9-2.9,2.2-4.5,2.8c-3.6,1.3-7.1,0.8-10.5-1c-2.7-1.5-3.7-4.1-4.5-6.8
			c-0.9-2.9-0.8-5.8-0.6-8.8c0.1-1.7,0.2-3.4,0.5-5.1c0.7-4.7,3.5-7.7,7.9-9.2c3.4-1.2,6.9-2.3,10.3-3.3c0.9-0.3,1.3-0.7,1.3-1.7
			c-0.1-1.4-0.1-2.9-0.2-4.3c-0.1-0.6-0.3-1.3-0.7-1.7c-0.4-0.4-1.2-0.8-1.7-0.7c-0.5,0.1-1.3,0.7-1.4,1.2c-0.3,1.2-0.2,2.4-0.3,3.7
			c0,0.7-0.2,1.4-1.1,1.4C333.3,95.8,328.6,95.8,323.8,95.8z M346.2,110.6c0-0.1-0.1-0.3-0.1-0.4c-3.7,0-2.9-2.7-3-5
			c-1.7,1.2-3.3,2.2-5.1,3.4c0.7,0.2,1.2,0.4,1.7,0.6c0,2-0.2,2.2-3,2.2c0.6,0.2,1.3,0.4,2,0.7c0,1.4-0.1,2.8,0,4.2
			c0.1,1.4,0.2,2.8,0.5,4.1c0.1,0.5,0.8,1.2,1.3,1.3c0.5,0.1,1.4-0.3,1.7-0.8c0.5-0.6,0.7-1.5,0.8-2.3c0.1-1,0-2.1,0.1-3.1
			c0-1.3,0.5-2.3,1.6-3.1C345.3,112,345.7,111.2,346.2,110.6z"/>
		<linearGradient id="SVGID_7_" gradientUnits="userSpaceOnUse" x1="173.3291" y1="105.6583" x2="414.6624" y2="105.6583">
			<stop  offset="0.1882" style="stop-color:#000000"/>
			<stop  offset="0.7742" style="stop-color:#FF0000"/>
		</linearGradient>
		<path fill="url(#SVGID_7_)" d="M305.1,99.5c1.5,0.4,2.9,0.7,4.4,1.1c0-0.1,0.1-0.2,0.1-0.4c-0.3-0.1-0.6-0.3-0.9-0.3
			c-1.6-0.5-3.3-1-4.9-1.4c-1.1-0.3-1.4-1.2-1.4-2.2c0-1.6-0.1-3.3-0.2-4.9c-0.1-1.1-0.6-1.7-1.7-1.8c-1.3-0.1-2.3,0.4-2.6,1.6
			c-0.2,1.1-0.3,2.2-0.3,3.3c0,7.7,0,15.4,0,23.2c0,0.8,0.2,1.6,0.4,2.3c0.3,1.1,1.1,1.6,2.2,1.6c1.1,0,1.9-0.7,2.1-2
			c0.1-1,0.2-2.1,0.2-3.1c0-2,0-4,0-6.2c1.1,0.3,2,0.6,2.9,0.9c0.5,0.2,0.9,0.2,1.3-0.4c0.9-1.5,2.3-2.2,4.1-2.2c1.9,0,3.8,0,5.6,0
			c1.4,0,1.7,0.3,1.7,1.7c-0.1,3.5,0,7-0.3,10.4c-0.6,5.5-4.8,9.7-10.5,11.3c-4.1,1.1-8,0.7-11.9-0.6c-1.1-0.4-2.3-0.6-3.5-0.9
			c-0.2,0-0.4-0.2-0.6-0.1c-2.7,1-3.9-1.2-5.4-2.6c-2.6-2.5-3.3-5.8-3.6-9.2c-0.2-3-0.3-6-0.5-9c0-0.7,0.1-1.2,0.8-1.5
			c0.9-0.4,1.6-1.1,1.6-2.1c-2.3-0.8-2.3-0.8-2.3-3.1c0-1-0.4-2,0.5-2.9c0.1-0.1-0.1-0.4-0.2-0.7c-0.4-0.9-0.7-1.8-1.1-2.7
			c1.5-1.3,2.7,0.6,4.2,0.2c-1.1-0.4-2.2-0.7-3.4-1.1c0.4-5.8,1.4-11.3,6.8-14.7c3.3-2.1,6.9-2.5,10.7-2.5c1.7,0,3.4,0,5,0.3
			c0.7,0.1,1.3,0.7,2,1c0.8,0.4,1.6,1,2.5,1.2c5.8,1.3,8.8,4.8,9,10.7c0.1,2.6,0,5.1,0,7.7c0,1.1-0.5,1.6-1.6,1.6
			c-1.6,0-3.1,0-4.7,0c-0.8,0-1.2,0.3-1.6,0.9c-1.4,2.5-1.5,2.4-4.1,1.7c-0.4-0.1-0.8-0.2-1.1-0.4c-1.6-0.6-1.8-1.1-0.8-2.5
			C304.5,100.4,304.8,100,305.1,99.5z"/>
		<linearGradient id="SVGID_8_" gradientUnits="userSpaceOnUse" x1="173.3291" y1="101.4087" x2="414.6624" y2="101.4087">
			<stop  offset="0.1882" style="stop-color:#000000"/>
			<stop  offset="0.7742" style="stop-color:#FF0000"/>
		</linearGradient>
		<path fill="url(#SVGID_8_)" d="M176,117.9c0.8,0.2,1.6,0.4,2.4,0.6c0,0.8,0,1.6,0,2.4c0,0.8,0.3,1.1,1.1,1c0.2,0,0.5,0,0.7,0
			c1.8,0,2.1,0.3,2.1,2.1c0,2,0,4.1,0,6.1c0,0.9-0.3,1.6-1.3,1.8c-4,0.8-8,1.3-12,0.3c-3.7-0.9-5.5-3-5.5-6.8
			c-0.1-6-0.2-12.1-0.3-18.1c0-1,0.6-1.7,1.1-2.4c0.5-0.8,0.9-1.7,1.3-2.6c-1.6,0.6-2.5-0.3-2.5-2c0.1-2.6,0.1-5.3,0.1-7.9
			c0-0.2-0.1-0.3-0.1-0.5c-0.7,0-1.4,0-2-0.1c-1-0.1-1.7-0.5-1.6-1.8c0.1-3,0-6.1,0-9.2c1.2,0,2.4,0,3.8,0c0-2,0-3.9,0-5.7
			c0-1.3,0-2.6,0-3.8c0-0.9,0.3-1.3,1.3-1.3c4,0,8.1-0.1,12.1-0.1c1.4,0,1.9,0.6,1.8,1.9c0,0.6-0.1,1.2-0.1,1.9
			c0.4,0.2,0.8,0.4,1.1,0.6c0,1.4,0,2.7,0,4.1c-1.5,0-2.9,0-4.3,0c0,0.1-0.1,0.2-0.1,0.4c0.7,0.3,1.3,0.5,2,0.8
			c0.6,0.3,1.1,0.6,1.7,0.9c0,0.1-0.1,0.2-0.1,0.4c0.8,0,1.5,0,2.3,0c0.9,0,1.5,0.4,1.5,1.5c0,2.7,0,5.4,0,8c0,1.1-0.5,1.5-1.5,1.5
			c-0.7,0-1.5,0-2.4,0c0,0.5,0,1,0,1.4c0,5.3,0,10.6,0,15.8c0,1.4,0,2.8-0.2,4.2c-0.2,1-0.8,1.9-1.2,2.9
			C176.7,116.8,176.4,117.3,176,117.9z"/>
		<linearGradient id="SVGID_9_" gradientUnits="userSpaceOnUse" x1="173.3291" y1="105.3749" x2="414.6624" y2="105.3749">
			<stop  offset="0.1882" style="stop-color:#000000"/>
			<stop  offset="0.7742" style="stop-color:#FF0000"/>
		</linearGradient>
		<path fill="url(#SVGID_9_)" d="M238.8,79c1.7,0,3.4,0,5,0c1.6,0,1.8,0.3,1.8,1.8c0,0.4,0,0.7,0,1.2c0.2-0.2,0.4-0.2,0.5-0.3
			c2.1-2.2,4.7-3.1,7.6-3.2c0.9,0,1.7,0.1,1.7,1.2c0.1,3.4,0,6.8,0,10.3c-2.3,0.3-4.6,0.7-6.9,1.1c-0.2,0-0.3,0-0.5,0
			c-2.6,0.7-2.6,0.5-2.5,2.9c0,0.3-0.1,0.5-0.1,0.9c-2.7-0.9-2.3,1.7-3.3,2.7c0.7,1.5,2.3,0.9,3.4,1.5c0,4.9,0,9.8,0,14.7
			c-0.3,0.1-0.6,0.1-1,0.2c1.8,1.4,1.2,3.3,1.3,5.2c-1.7-0.3-3.3-0.5-5-0.8c0.7,1,2,1.5,4.6,1.6c0,0.4,0.1,0.9,0.1,1.3
			c0,3,0,6.1,0,9.1c0,1.3-0.4,1.7-1.7,1.7c-3.8,0-7.7,0-11.5,0c-2.1,0-2.2-0.1-2.2-2.2c0-15.9,0-31.8,0-47.6c0-3.4,0-3.5,3.4-3.3
			c1.2,0,2.4,0.4,3.5,0.9C238.2,80.4,238.5,80.4,238.8,79z"/>
		<linearGradient id="SVGID_10_" gradientUnits="userSpaceOnUse" x1="173.3291" y1="105.6239" x2="414.6624" y2="105.6239">
			<stop  offset="0.1882" style="stop-color:#000000"/>
			<stop  offset="0.7742" style="stop-color:#FF0000"/>
		</linearGradient>
		<path fill="url(#SVGID_10_)" d="M154.1,99.2c0.3,0.2,0.6,0.4,1.2,0.7c-0.8,0.2-1.5,0.3-2.2,0.5c0.3,0.5,0.6,1,1.1,1.6
			c-1,0-1.8,0-2.5,0c0,0.1,0,0.1,0,0.2c0.5,0.2,1,0.5,1.7,0.8c-0.6,0.5-0.9,0.7-1.3,1c0.4,1,0.7,2-0.4,2.7c-0.1,0.1-0.1,0.3-0.1,0.5
			c0,2.1,0,4.2,0,6.3c2.6,0.9,2.6,0.9,2.6,3.5c0,4.7-0.1,9.3-0.1,14c0,0.3-0.1,0.6-0.1,0.9c-1.5-0.4-2.9-0.7-4.4-1.1
			c-0.1,1.2-0.8,1.3-1.7,1.3c-2.3,0-4.6,0-6.9,0.1c-1.8,0-2.3-0.5-2.3-2.2c0-7.2-0.1-14.3,0.1-21.5c0.1-2.6-0.3-5.1-0.1-7.7
			c0.1-1.4,0.6-2.5,1.7-3.4c0.3-0.3,0.6-0.6,0.8-1c0.6-1.2,0.6-1.2-0.7-1.1c-0.8,0.1-1.7-0.8-1.7-1.6c0-4.2,0-8.4,0-12.6
			c0-1.5,0.6-2.1,2.1-2.1c3.9,0,7.8,0,11.8,0c1.2,0,1.5,0.4,1.6,1.7c0.4,3.5-0.4,6.8-0.8,10.2c-0.1,0.7-0.3,1.3,0.5,1.8
			c0.1,0.1,0.2,0.4,0.2,0.6C154.1,95.3,154.1,97.2,154.1,99.2z"/>
		<linearGradient id="SVGID_11_" gradientUnits="userSpaceOnUse" x1="173.3291" y1="105.6364" x2="414.6624" y2="105.6364">
			<stop  offset="0.1882" style="stop-color:#000000"/>
			<stop  offset="0.7742" style="stop-color:#FF0000"/>
		</linearGradient>
		<path fill="url(#SVGID_11_)" d="M273.9,128.9c0.1,0,0.4,0.3,0.7,0.3c1.1,0.2,1.1,1,1,1.8c-0.1,0.9-0.8,1.2-1.6,1.1
			c-3.1-0.2-6.1-0.4-9.2-0.7c-0.6-0.1-1.2-0.6-1.8-0.8c-0.5-0.2-0.9-0.5-1.4-0.5c-0.9-0.1-1.4-0.6-1.4-1.5c0-2,0-4.1,0-6.1
			c0-1.2,0.9-2.1,1.8-2.8c0.6-0.5,1-1.1,1.6-1.9c-0.9-0.3-1.5-0.5-2-0.7c-1-0.3-1.4-0.9-1.4-2c0-11.4,0-22.7,0-34.1
			c0-1.7,0.4-2.2,2.2-2.2c3.8,0,7.5,0,11.3,0c1.6,0,2,0.3,2,2c0,2.2,0,4.3,0,6.3c-0.5,0.3-0.9,0.5-1.2,0.8c-0.6,0.7-1.1,1.4-1.5,2.2
			c-0.4,0.7-0.5,1.3,0.4,1.8c1,0.6,0.4,1.3-0.1,1.9c0.8,0.4,1.7,0.6,2.1,1.2c0.4,0.5,0.2,1.5,0.2,2.2c-0.1,0-0.3,0.1-0.4,0.1
			c0.3,0.2,0.6,0.3,0.8,0.5c-0.8,0.6-1.6,1.2-2.6,2c0.4,0.3,0.5,0.4,0.7,0.5c1.9,1.1,2,1.6,0.6,3.3c-0.3,0.4-0.5,0.9-0.5,1.4
			c0,2.1,0.1,4.2,0.2,6.3c0,0.3,0.1,0.7,0.2,0.8c1.2,0.6,1,1.7,1,2.7c-0.1,3.6,0,7.3-0.3,10.9C275.3,126.8,274.5,127.8,273.9,128.9z
			"/>
		<linearGradient id="SVGID_12_" gradientUnits="userSpaceOnUse" x1="173.3291" y1="71.2976" x2="414.6624" y2="71.2976">
			<stop  offset="0.1882" style="stop-color:#000000"/>
			<stop  offset="0.7742" style="stop-color:#FF0000"/>
		</linearGradient>
		<path fill="url(#SVGID_12_)" d="M476.7,67.6c0.1-0.5,0.1-1.5,0.6-2c0.4-0.4,1.4-0.4,2.1-0.2c0.9,0.2,2.1,0.4,2,1.9
			c1.6-0.1,3.1-0.2,4.8-0.3c0,3,0.1,5.9-0.1,8.8c0,0.5-0.8,1-1.2,1.3c-0.2,0.2-0.6,0.1-0.9,0.1c-4.1,0-8.2,0-12.3,0
			c-0.2,0-0.4,0-0.6-0.1c0-3.3,0-6.6,0-10.1C472.9,67.3,475,66.5,476.7,67.6z"/>
		<linearGradient id="SVGID_13_" gradientUnits="userSpaceOnUse" x1="173.3291" y1="71.9768" x2="414.6624" y2="71.9768">
			<stop  offset="0.1882" style="stop-color:#000000"/>
			<stop  offset="0.7742" style="stop-color:#FF0000"/>
		</linearGradient>
		<path fill="url(#SVGID_13_)" d="M138.6,67.1c0.8,0.2,1.4,0.4,2,0.6c0.9,0.3,1.6,0.6,2.5-0.2c0.4-0.3,1.3-0.2,1.9-0.1
			c0.6,0.1,1.1,0.4,1.7,0.4c0.4,0,0.9-0.1,1.3-0.3c0.8-0.2,1.6-0.5,2.4-0.6c0.7-0.1,1.5,0.1,2.3,0.1c0.9,0,1.4,0.5,1.3,1.4
			c-0.2,2-0.1,4.2-2.3,5.5c0.6,0.2,0.9,0.5,1.3,0.6c1.1,0.1,1.2,1,1,1.6c-0.1,0.4-0.8,1-1.3,1c-4.2,0.1-8.3,0-12.5,0.1
			c-1.1,0-1.7-0.5-1.7-1.6C138.6,72.8,138.6,70.1,138.6,67.1z"/>
		<linearGradient id="SVGID_14_" gradientUnits="userSpaceOnUse" x1="173.3291" y1="72.0557" x2="414.6624" y2="72.0557">
			<stop  offset="0.1882" style="stop-color:#000000"/>
			<stop  offset="0.7742" style="stop-color:#FF0000"/>
		</linearGradient>
		<path fill="url(#SVGID_14_)" d="M275.7,67c0,3.1,0,6,0,8.8c0,0.9-0.5,1.3-1.3,1.3c-4.1,0-8.2,0-12.3,0c-1,0-1.7-0.5-1.7-1.7
			c0-2.6,0-5.2,0-8c2.2,0.8,4.2,1.5,6.3,2.2c0.9-1.8,2.8-2.8,4.7-2.6C272.7,67.1,274.1,67,275.7,67z"/>
		<linearGradient id="SVGID_15_" gradientUnits="userSpaceOnUse" x1="173.3291" y1="107.8147" x2="414.6624" y2="107.8147">
			<stop  offset="0.1882" style="stop-color:#000000"/>
			<stop  offset="0.7742" style="stop-color:#FF0000"/>
		</linearGradient>
		<path fill="url(#SVGID_15_)" d="M105.5,107.7c-0.8,0.7-1.4,1.6-1.7,1.5c-0.8-0.3-1.4-1-2.1-1.6c0.4-0.4,0.9-1.2,1.2-1.1
			C103.7,106.6,104.4,107.2,105.5,107.7z"/>
		<linearGradient id="SVGID_16_" gradientUnits="userSpaceOnUse" x1="173.3291" y1="70.5149" x2="414.6624" y2="70.5149">
			<stop  offset="0.1882" style="stop-color:#000000"/>
			<stop  offset="0.7742" style="stop-color:#FF0000"/>
		</linearGradient>
		<path fill="url(#SVGID_16_)" d="M104.9,71.9c-0.2-0.1-0.4-0.2-0.5-0.3c-0.3-0.2-0.6-0.4-1-0.7c0.2-0.2,0.6-0.4,0.7-0.6
			c0.8-1.4,2.1-1.2,3.6-1.1C106.8,70.2,105.9,71,104.9,71.9z"/>
		<linearGradient id="SVGID_17_" gradientUnits="userSpaceOnUse" x1="173.3291" y1="130.3661" x2="414.6624" y2="130.3661">
			<stop  offset="0.1882" style="stop-color:#000000"/>
			<stop  offset="0.7742" style="stop-color:#FF0000"/>
		</linearGradient>
		<path fill="url(#SVGID_17_)" d="M127.4,129.6c-0.4,0.6-0.7,1-1,1.4c-0.2,0-0.6,0.1-0.9,0.2c-0.1-0.1-0.2-0.1-0.3-0.2
			c0.3-0.5,0.5-1.1,0.9-1.4C126.2,129.4,126.8,129.6,127.4,129.6z"/>
	</g>
	<g id="SitoricambiOint_1_">
		<path fill="none" stroke="#000000" stroke-width="2" stroke-miterlimit="10" d="M488.8,134.7c-1.6,0.2-3.1-0.2-4.5-1.1
			c-0.6-0.4-1.3-0.7-1.9-1c-1.1-0.5-2.1-1-3.4-0.4c-0.7,0.3-1.6,0.2-2.4,0.2c-1.5,0-3.1,0-4.8,0c0-0.5-0.1-1.2-0.1-1.8
			c0-16.5,0-32,0-48.5c0-1.5,0.5-2,2-2c3.8,0,7.6,0.1,11.4,0.1c1.8,0,2.1,0.3,2,2c-0.1,1.8,0.1,3.7-0.3,5.5
			c-0.5,2.3,0.9,4.1,1.3,6.2c-0.8-1-1.5-2-2.4-3.3c-0.7,1-1.3,1.9-2,3c0.3,0.1,0.8,0.5,1.3,0.7c1.9,0.7,2,0.9,2.1,2.9
			c0.1,1.5-0.1,2.9-1.2,4.1c-0.4,0.5-0.2,1.6-0.1,2.5c0,1.7,0.1,3.4,0.2,5c0,0.5,0.4,0.9,0.7,1.4c0.2,0.4,0.5,0.8,0.5,1.3
			c0,6.2,0,11.5-0.1,17.7c0,0.2,0,0.4,0,0.6c-0.5,0-1,0-1.6,0c1.2,0.8,2.2,1.6,3.3,2.4C488.8,132.9,488.8,133.8,488.8,134.7z"/>
		<path fill="none" stroke="#000000" stroke-width="2" stroke-miterlimit="10" d="M422.3,132.3c-5.2,0-10.2,0-15.4,0
			c0-0.8,0-1.6,0-2.4c0-11.6,0-22.3,0-33.9c0-1.3-0.2-2.7-0.4-4c-0.1-0.9-0.7-1.5-1.7-1.5c-1,0-1.8,0.3-2,1.4
			c-0.3,1.8-0.8,3.5-0.8,5.3c-0.1,10.6,0,21.2,0,31.8c0,1,0,1.1,0,2.1c0,0.9-0.4,1.4-1.4,1.4c-1.6,0-3.2,0-4.9,0
			c0.1-0.5,0.1-0.9,0.1-1.3c-2.9-1.4-6.2-1.2-9.5-2c0.1-1.5-0.1-2.3,0.5-3.7c0.6-1.4,2-2.4,3.1-3.8c-0.8-0.3-1.4-0.5-2.1-0.7
			c-0.9-0.3-1.3-0.8-1.3-1.8c0-4.4,0-8.7,0.1-13.1c0-0.8,0.7-1.6,1.1-2.6c-1.3-0.5-1.2-1.8-1.3-3.1c0-2.7-0.2-5.4-0.2-8.1
			c0-1-0.3-1.6-1.4-1.7c-1.1-0.1-2,0.2-2.3,1.3c-0.4,1.5-0.8,3.1-0.9,4.7c-0.1,3,0,5.9-0.1,8.9c0,0.4-0.1,0.8-0.1,1.4
			c-0.6-0.2-1.1-0.3-1.6-0.4c-0.1,0.1-0.2,0.1-0.2,0.2c0.2,0.3,0.4,0.6,0.7,0.7c0.6,0.3,1.5,0.1,1.3,1.3c-0.2,1-0.7,1.4-1.6,1.3
			c-0.1,0-0.1,0.1-0.4,0.2c2.1,0.6,2,2.2,2,3.8c0,0.8,0,1.7,0,2.5c0,2.1,0.2,4.2-1.5,5.9c1.3,0.8,1.5,1.9,1.5,3.1c0,2.6,0,4.2,0,6.8
			c-0.6,0-0.9,0.1-1.3,0.1c-3.9,0-7.8,0-11.8,0c-1.8,0-2.2-0.4-2.2-2.2c0-16.2,0-31.4,0.1-47.6c0-2.2,0.3-2.5,2.5-2.5
			c3.3,0,6.6,0,9.8,0c2.6,0,2.7,0,2.9,2.8c2.2-2.4,5-3.2,8-3.3c3-0.1,5.8,0.4,8.3,2.2c1.2-1.9,3.3-2,4.3-0.2
			c4.3-2.7,8.9-2.4,13.5-1.1c2.6,0.7,4.2,2.6,5.2,5.1c1.6,4,1.7,8.2,1.7,12.4c0,3.8,0,7.7,0,11.5c0,0.5-0.1,1.1-0.2,1.6
			c-0.1-0.1-0.2-0.2-0.3-0.2c-0.6,0.6-1.2,1.1-2,1.9c2.8,0.2,2.4,2,2.4,3.6c0,5.2,0,9.5,0,14.7C422.3,131.5,422.3,131.8,422.3,132.3
			z"/>
		<path fill="none" stroke="#000000" stroke-width="2" stroke-miterlimit="10" d="M435.1,70.1c1.7,0.5,3.1,1,4.7,1.3
			c0.5,0.1,1-0.1,1.5-0.2c0.8-0.2,1.7-0.5,2.5-0.5c1.1,0,1.3,0.9,1.3,1.8c0,2.5,0,5,0,7.6c0,0.4,0,0.9,0,1.5c4.4-2.8,8.9-2.4,13.5-1
			c-0.1,0.1-0.1,0.2-0.2,0.3c0.4,0.4,0.8,0.9,1.2,1c3.6,1.3,4.8,4.3,5.4,7.6c0.3,1.8,0.4,3.6,0.4,5.5c0,7.3,0.1,14.6,0,21.8
			c0,2.6-0.3,5.2-0.7,7.7c-0.4,2.2-1.6,3.2-3.1,4.9c-0.2,0.2-0.7,0.4-1.1,0.3c-1-0.2-2-0.5-3.1-0.8c-0.4,0.5-0.7,1-1.2,1.6
			c0.6,0.3,1.1,0.6,1.7,1c-3.1,2-8.8,2.4-12.9-2c0,0.9,0,1.7,0,2.7c-0.5,0-0.9,0.1-1.3,0.1c-4.2,0-8.4,0-12.6,0
			c-1.7,0-2.2-0.5-2.2-2.2c0-2.5,0.1-4,0.1-6.5c0-16.8,0-33.6,0-50.4c0-2.1,0.5-2.6,2.6-2.5c0.5,0,1.1,0.1,1.5,0.2
			C434.2,71.3,434.8,71.1,435.1,70.1z M443.4,105.1c1.6,0.9,1.7,2.2,1.7,3.7c0.1,4,0.3,8,0.5,12.1c0.1,1.2,0.7,1.8,1.9,1.8
			c1.2,0.1,1.9-0.5,2-1.7c0.1-0.6,0.1-1.1,0.1-1.7c0-7,0-14,0.1-21c0-0.4,0.4-1.1,0.2-1.3c-1.1-1.1-0.1-1.6,0.3-2
			c-0.3-0.9-0.7-1.7-0.8-2.5c-0.1-1.1-0.4-1.9-1.6-2c-1.2-0.1-2,0.3-2.3,1.5c-0.2,0.7-0.3,1.4-0.4,2.1c-0.1,2.2-0.1,4.3-0.1,6.5
			C445.1,102.4,444.8,103.9,443.4,105.1z"/>
		<path fill="none" stroke="#000000" stroke-width="2" stroke-miterlimit="10" d="M128.8,129.4c-0.2-0.2-0.5-0.4-0.6-0.6
			c-1.1-1.2-2-1-2.7,0.5c-0.1,0.3-0.5,0.5-0.9,1.1c0.1,0.1,0.3,0.5,0.5,1.1c-0.8,0.8-2.2,0.8-3.5,1c-3.8,0.6-7.6,0.4-11.4-0.5
			c-5.9-1.4-9.4-4.2-10.3-10.1c-0.6-4.2-0.6-8.4-0.8-12.6c2.5-0.5,3.6,0,3.9,1.3c1.1,0.4,2,0.7,3.2,1.1c0-0.8,0-1.4,0-1.9
			c0.8-0.2,1.7,0.6,2.1-0.6c0-0.1,0.4-0.1,0.6-0.1c1.8,0,3.5,0,5.4,0c0,0.8,0,1.5,0,2.2c0.1,2.5,0,5,0.2,7.5
			c0.1,1.8,1.1,2.5,2.7,2.3c0.9-0.1,1.6-0.6,1.7-1.6c0.6-3.8,0-7.2-3-10c-1.5-1.4-3-2.7-4.5-4.1c-1-0.9-2-1.7-2.9-2.7
			c-0.3-0.3,0-1,0-1.7c-0.5,0-1.3,0-2.1,0c0-0.1,0.1-0.2,0.1-0.3c-0.4-0.3-0.7-0.5-1.1-0.8c-0.4-0.3-0.8-0.7-1.2-1.1
			c-6.7-6.5-6.1-17.1-1.9-22.8c0.3-0.4,0.7-0.9,1.1-1.3c0.5-0.5,1.1-1,1.7,0c0.2,0.3,0.9,0.2,1.5,0.3c0-0.7,0-1.3,0-1.8
			c0.7,0,1.3,0,1.9,0c0-0.5,0.1-1,0.1-1.3c0.9-0.4,1.7-0.9,2.5-1c3.4-0.5,6.9-0.5,10.3,0.2c1.9,0.4,3.7,0.9,5.4,1.8
			c1.4,0.8,2.5,2,3.7,3.2c0.9,1,0.5,2.2-1.1,2.7c0.2,0.4,0.5,0.8,0.8,1.4c0-0.1-0.1,0.2-0.1,0.5c2.5,0.3,3.1,0.8,3.3,3.2
			c0.2,1.5,0.3,3,0.4,4.5c0.1,0.7-0.1,1.5-1,1.4c-0.7,0-1.9,0.7-2.1-0.9c-0.9,0.2-2-0.6-2.8,0.7c-0.2,0.3-0.8,0.3-1.2,0.3
			c-2.7,0-5.4,0-8.3,0c0-1.5,0-3,0-4.5c0-1.8-1.3-2.7-3-2.1c-1.1,0.4-1.7,1.2-1.3,2.3c0.5,1.3,1.1,2.8,2.1,3.8
			c2.6,2.6,5.5,4.9,8.2,7.3c0.1,0.1,0.2,0.2,0.4,0.5c-0.4,0.1-0.7,0.2-1.1,0.3c0.1,0.3,0.1,0.7,0.2,1c0.1,0.2,0.4,0.4,0.7,0.8
			c0.9,0.5,2.1,1.1,3.2,1.6c0-0.1,0-0.1,0.1-0.2c0.2,0.2,0.3,0.5,0.5,0.7c0.2-0.1,0.4-0.3,0.6-0.4C136,107.9,136,123.3,128.8,129.4z
			"/>
		<path fill="none" stroke="#000000" stroke-width="2" stroke-miterlimit="10" d="M213.6,83.8c0.7,0.2,1.3,0.3,2,0.5
			c1.4,0.5,2.8,1,4.3,1.5c0.6,0.2,1.2,0.3,1.7,0.5c0.3,0.1,0.7,0.4,0.8,0.7c1.3,2,2.2,4.2,2.2,6.6c0.1,6.2,0.2,12.4,0.2,18.6
			c0,3.1-0.1,6.3-0.4,9.4c-0.6,4.6-3.3,6.8-7.3,8.9c-0.7,0.4-1.7,0.3-2.5,0.2c-1.1-0.1-2.2-0.5-3.3-0.5c0.8,0.3,1.6,0.7,2.5,1
			c-1.7,1.6-3.3,0-5-0.1c0.2,0.5,0.4,0.9,0.6,1.4c-1.2,0-2.3,0.1-3.4,0c-2.4-0.3-4.9-0.4-7.2-1c-6.5-1.9-9.9-5.4-10-12.1
			c-0.1-8.2-0.2-16.3-0.2-24.5c0-7.8,5.7-14.2,13.5-15.3c3.3-0.5,6.7-0.5,10,0.2c0.5,0.1,1,0.3,1.5,0.5c0.3-0.4,0.6-0.9,0.9-1.5
			c1.9,0.5,3.8,1,5.8,1.5c-0.6,1-1,2-1.7,2.7c-0.4,0.4-1.3,0.4-1.9,0.3c-0.6,0-1.2-0.4-1.8-0.5c-0.4,0-0.9,0.2-1.4,0.4
			C213.5,83.6,213.6,83.7,213.6,83.8z M213.5,110.2c-0.7-0.1-1.2-0.1-1.6-0.2c-0.4-0.1-0.7-0.3-1.1-0.4c-1.5-0.3-1.7-0.6-1.7-2.1
			c0-4.2,0-8.3,0-12.5c0-0.9-0.1-1.8-0.3-2.6c-0.3-1.4-0.9-1.9-2.2-1.8c-1.2,0-1.9,0.6-2.1,1.9c-0.2,1.4-0.2,2.8-0.3,4.2
			c-0.1,2-0.7,2.8-2.7,3.1c0.4,0.5,0.9,0.9,1.4,1.3c0.4,0.4,1.1,0.8,1.2,1.3c0.2,1.5,0.1,3,0.1,4.6c-0.6,0-1,0-1.5,0
			c0,0.1,0,0.1-0.1,0.2c0.6,0.3,1.1,0.7,1.7,1c-0.9,1.7-2,0-3,0.2c0.5,0.6,0.9,1.1,1.4,1.6c-0.1,0-0.2,0-0.3,0
			c-0.1,0.9-0.3,1.8-0.4,2.8c2.2,0.4,2.2,0.4,2.2,2.8c0,1.6,0,3.3,0.1,4.9c0.1,1.3,0.9,2.1,2.1,2.2c1.2,0.1,2.2-0.4,2.4-1.7
			c0.3-2.1,0.4-4.3,0.5-6.5C211.4,113.8,212.8,112.2,213.5,110.2z M199.3,96c0.5,0.8-0.8,1.7,0.6,2.2c0.2-0.7,0.4-1.3,0.6-1.9
			C200.3,96.3,199.9,96.2,199.3,96z"/>
		<path fill="none" stroke="#000000" stroke-width="2" stroke-miterlimit="10" d="M324.8,96.8c0.2-2.8,0.4-5.4,0.6-8.2
			c1,0.1,1.9,0.1,2.8,0.2c0-0.1,0-0.2,0.1-0.3c-0.4-0.2-0.7-0.3-1.1-0.5c0-1.2,1.4-2.2,0.7-3.8c1.2-1.6,3.1-2.9,5.3-3.5
			c5.8-1.6,11.6-2.1,17.4-0.1c4.3,1.5,7.7,4,8.8,8.6c0.4,1.8,0.4,3.6,0.4,5.5c0,10.1,0,20.1,0,30.2c0,0.2,0,0.5,0,0.7
			c-2,0.1-1.6,2.1-2.7,3.1c0.6,0.2,1-0.6,1.4-0.4c1.3,0.6,1.7,1.3,1.3,2.7c-0.3,1.2-1.3,1.2-2.2,1.2c-3.4,0-6.7-0.4-9.9-1.5
			c-0.4-0.1-0.8-0.2-1.2-0.3c-0.2,0.6-0.3,1.2-0.5,1.8c-0.4,0-0.8,0-1.3,0c0-1.1-0.1-2.1-0.1-2.9c-1.5,0.9-2.9,2.2-4.5,2.8
			c-3.6,1.3-7.1,0.8-10.5-1c-2.7-1.5-3.7-3.1-4.5-5.8c-0.9-2.9-0.8-5.8-0.6-8.8c0.1-1.7,0.2-3.4,0.5-5.1c0.7-4.7,3.5-7.7,7.9-9.2
			c3.4-1.2,6.9-2.3,10.3-3.3c0.9-0.3,1.3-0.7,1.3-1.7c-0.1-1.4-0.1-2.9-0.2-4.3c-0.1-0.6-0.3-1.3-0.7-1.7c-0.4-0.4-1.2-0.8-1.7-0.7
			c-0.5,0.1-1.3,0.7-1.4,1.2c-0.3,1.2-0.2,2.4-0.3,3.7c0,0.7-0.2,1.4-1.1,1.4C334.3,96.8,329.6,96.8,324.8,96.8z M347.2,111.6
			c0-0.1-0.1-0.3-0.1-0.4c-3.7,0-2.9-2.7-3-5c-1.7,1.2-3.3,2.2-5.1,3.4c0.7,0.2,1.2,0.4,1.7,0.6c0,2-0.2,2.2-3,2.2
			c0.6,0.2,1.3,0.4,2,0.7c0,1.4-0.1,2.8,0,4.2c0.1,1.4,0.2,2.8,0.5,4.1c0.1,0.5,0.8,1.2,1.3,1.3c0.5,0.1,1.4-0.3,1.7-0.8
			c0.5-0.6,0.7-1.5,0.8-2.3c0.1-1,0-2.1,0.1-3.1c0-1.3,0.5-2.3,1.6-3.1C346.3,113,346.7,112.2,347.2,111.6z"/>
		<path fill="none" stroke="#000000" stroke-width="2" stroke-miterlimit="10" d="M306.1,100.5c1.5,0.4,2.9,0.7,4.4,1.1
			c0-0.1,0.1-0.2,0.1-0.4c-0.3-0.1-0.6-0.3-0.9-0.3c-1.6-0.5-3.3-1-4.9-1.4c-1.1-0.3-1.4-1.2-1.4-2.2c0-1.6-0.1-3.3-0.2-4.9
			c-0.1-1.1-0.6-1.7-1.7-1.8c-1.3-0.1-2.3,0.4-2.6,1.6c-0.2,1.1-0.3,2.2-0.3,3.3c0,7.7,0,15.4,0,23.2c0,0.8,0.2,1.6,0.4,2.3
			c0.3,1.1,1.1,1.6,2.2,1.6c1.1,0,1.9-0.7,2.1-2c0.1-1,0.2-2.1,0.2-3.1c0-2,0-4,0-6.2c1.1,0.3,2,0.6,2.9,0.9
			c0.5,0.2,0.9,0.2,1.3-0.4c0.9-1.5,2.3-2.2,4.1-2.2c1.9,0,3.8,0,5.6,0c1.4,0,1.7,0.3,1.7,1.7c-0.1,3.5,0,7-0.3,10.4
			c-0.6,5.5-4.8,8.7-10.5,10.3c-4.1,1.1-8,0.7-11.9-0.6c-1.1-0.4-2.3-0.6-3.5-0.9c-0.2,0-0.4-0.2-0.6-0.1c-2.7,1-3.9-0.2-5.4-1.6
			c-2.6-2.5-3.3-5.8-3.6-9.2c-0.2-3-0.3-6-0.5-9c0-0.7,0.1-1.2,0.8-1.5c0.9-0.4,1.6-1.1,1.6-2.1c-2.3-0.8-2.3-0.8-2.3-3.1
			c0-1-0.4-2,0.5-2.9c0.1-0.1-0.1-0.4-0.2-0.7c-0.4-0.9-0.7-1.8-1.1-2.7c1.5-1.3,2.7,0.6,4.2,0.2c-1.1-0.4-2.2-0.7-3.4-1.1
			c0.4-5.8,1.4-11.3,6.8-14.7c3.3-2.1,6.9-2.5,10.7-2.5c1.7,0,3.4,0,5,0.3c0.7,0.1,1.3,0.7,2,1c0.8,0.4,1.6,1,2.5,1.2
			c5.8,1.3,8.8,4.8,9,10.7c0.1,2.6,0,5.1,0,7.7c0,1.1-0.5,1.6-1.6,1.6c-1.6,0-3.1,0-4.7,0c-0.8,0-1.2,0.3-1.6,0.9
			c-1.4,2.5-1.5,2.4-4.1,1.7c-0.4-0.1-0.8-0.2-1.1-0.4c-1.6-0.6-1.8-1.1-0.8-2.5C305.5,101.4,305.8,101,306.1,100.5z"/>
		<path fill="none" stroke="#000000" stroke-width="2" stroke-miterlimit="10" d="M177,118.9c0.8,0.2,1.6,0.4,2.4,0.6
			c0,0.8,0,1.6,0,2.4c0,0.8,0.3,1.1,1.1,1c0.2,0,0.5,0,0.7,0c1.8,0,2.1,0.3,2.1,2.1c0,2,0,3.1,0,5.1c0,0.9-0.3,1.6-1.3,1.8
			c-4,0.8-8,1.3-12,0.3c-3.7-0.9-5.5-2-5.5-5.8c-0.1-6-0.2-12.1-0.3-18.1c0-1,0.6-1.7,1.1-2.4c0.5-0.8,0.9-1.7,1.3-2.6
			c-1.6,0.6-2.5-0.3-2.5-2c0.1-2.6,0.1-5.3,0.1-7.9c0-0.2-0.1-0.3-0.1-0.5c-0.7,0-1.4,0-2-0.1c-1-0.1-1.7-0.5-1.6-1.8
			c0.1-3,0-6.1,0-9.2c1.2,0,2.4,0,3.8,0c0-2,0-3.9,0-5.7c0-1.3,0-2.6,0-3.8c0-0.9,0.3-1.3,1.3-1.3c4,0,8.1-0.1,12.1-0.1
			c1.4,0,1.9,0.6,1.8,1.9c0,0.6-0.1,1.2-0.1,1.9c0.4,0.2,0.8,0.4,1.1,0.6c0,1.4,0,2.7,0,4.1c-1.5,0-2.9,0-4.3,0
			c0,0.1-0.1,0.2-0.1,0.4c0.7,0.3,1.3,0.5,2,0.8c0.6,0.3,1.1,0.6,1.7,0.9c0,0.1-0.1,0.2-0.1,0.4c0.8,0,1.5,0,2.3,0
			c0.9,0,1.5,0.4,1.5,1.5c0,2.7,0,5.4,0,8c0,1.1-0.5,1.5-1.5,1.5c-0.7,0-1.5,0-2.4,0c0,0.5,0,1,0,1.4c0,5.3,0,10.6,0,15.8
			c0,1.4,0,2.8-0.2,4.2c-0.2,1-0.8,1.9-1.2,2.9C177.7,117.8,177.4,118.3,177,118.9z"/>
		<path fill="none" stroke="#000000" stroke-width="2" stroke-miterlimit="10" d="M239.8,80c1.7,0,3.4,0,5,0c1.6,0,1.8,0.3,1.8,1.8
			c0,0.4,0,0.7,0,1.2c0.2-0.2,0.4-0.2,0.5-0.3c2.1-2.2,4.7-3.1,7.6-3.2c0.9,0,1.7,0.1,1.7,1.2c0.1,3.4,0,6.8,0,10.3
			c-2.3,0.3-4.6,0.7-6.9,1.1c-0.2,0-0.3,0-0.5,0c-2.6,0.7-2.6,0.5-2.5,2.9c0,0.3-0.1,0.5-0.1,0.9c-2.7-0.9-2.3,1.7-3.3,2.7
			c0.7,1.5,2.3,0.9,3.4,1.5c0,4.9,0,9.8,0,14.7c-0.3,0.1-0.6,0.1-1,0.2c1.8,1.4,1.2,3.3,1.3,5.2c-1.7-0.3-3.3-0.5-5-0.8
			c0.7,1,2,1.5,4.6,1.6c0,0.4,0.1,0.9,0.1,1.3c0,3,0,5.1,0,8.1c0,1.3-0.4,1.7-1.7,1.7c-3.8,0-7.7,0-11.5,0c-2.1,0-2.2-0.1-2.2-2.2
			c0-15.9,0-30.8,0-46.6c0-3.4,0-3.5,3.4-3.3c1.2,0,2.4,0.4,3.5,0.9C239.2,81.4,239.5,81.4,239.8,80z"/>
		<path fill="none" stroke="#000000" stroke-width="2" stroke-miterlimit="10" d="M155.1,100.2c0.3,0.2,0.6,0.4,1.2,0.7
			c-0.8,0.2-1.5,0.3-2.2,0.5c0.3,0.5,0.6,1,1.1,1.6c-1,0-1.8,0-2.5,0c0,0.1,0,0.1,0,0.2c0.5,0.2,1,0.5,1.7,0.8
			c-0.6,0.5-0.9,0.7-1.3,1c0.4,1,0.7,2-0.4,2.7c-0.1,0.1-0.1,0.3-0.1,0.5c0,2.1,0,4.2,0,6.3c2.6,0.9,2.6,0.9,2.6,3.5
			c0,4.7-0.1,8.3-0.1,13c0,0.3-0.1,0.6-0.1,0.9c-1.5-0.4-2.9-0.7-4.4-1.1c-0.1,1.2-0.8,1.3-1.7,1.3c-2.3,0-4.6,0-6.9,0.1
			c-1.8,0-2.3-0.5-2.3-2.2c0-7.2-0.1-13.3,0.1-20.5c0.1-2.6-0.3-5.1-0.1-7.7c0.1-1.4,0.6-2.5,1.7-3.4c0.3-0.3,0.6-0.6,0.8-1
			c0.6-1.2,0.6-1.2-0.7-1.1c-0.8,0.1-1.7-0.8-1.7-1.6c0-4.2,0-8.4,0-12.6c0-1.5,0.6-2.1,2.1-2.1c3.9,0,7.8,0,11.8,0
			c1.2,0,1.5,0.4,1.6,1.7c0.4,3.5-0.4,6.8-0.8,10.2c-0.1,0.7-0.3,1.3,0.5,1.8c0.1,0.1,0.2,0.4,0.2,0.6
			C155.1,96.3,155.1,98.2,155.1,100.2z"/>
		<path fill="none" stroke="#000000" stroke-width="2" stroke-miterlimit="10" d="M274.9,128.9c0.1,0,0.4,0.3,0.7,0.3
			c1.1,0.2,1.1,1,1,1.8c-0.1,0.9-0.8,1.2-1.6,1.1c-3.1-0.2-6.1-0.4-9.2-0.7c-0.6-0.1-1.2-0.6-1.8-0.8c-0.5-0.2-0.9-0.5-1.4-0.5
			c-0.9-0.1-1.4-0.6-1.4-1.5c0-2,0-3.1,0-5.1c0-1.2,0.9-2.1,1.8-2.8c0.6-0.5,1-1.1,1.6-1.9c-0.9-0.3-1.5-0.5-2-0.7
			c-1-0.3-1.4-0.9-1.4-2c0-11.4,0-22.7,0-34.1c0-1.7,0.4-2.2,2.2-2.2c3.8,0,7.5,0,11.3,0c1.6,0,2,0.3,2,2c0,2.2,0,4.3,0,6.3
			c-0.5,0.3-0.9,0.5-1.2,0.8c-0.6,0.7-1.1,1.4-1.5,2.2c-0.4,0.7-0.5,1.3,0.4,1.8c1,0.6,0.4,1.3-0.1,1.9c0.8,0.4,1.7,0.6,2.1,1.2
			c0.4,0.5,0.2,1.5,0.2,2.2c-0.1,0-0.3,0.1-0.4,0.1c0.3,0.2,0.6,0.3,0.8,0.5c-0.8,0.6-1.6,1.2-2.6,2c0.4,0.3,0.5,0.4,0.7,0.5
			c1.9,1.1,2,1.6,0.6,3.3c-0.3,0.4-0.5,0.9-0.5,1.4c0,2.1,0.1,4.2,0.2,6.3c0,0.3,0.1,0.7,0.2,0.8c1.2,0.6,1,1.7,1,2.7
			c-0.1,3.6,0,7.3-0.3,10.9C276.3,127.8,275.5,127.8,274.9,128.9z"/>
		<path fill="none" stroke="#000000" stroke-width="2" stroke-miterlimit="10" d="M477.7,68.6c0.1-0.5,0.1-1.5,0.6-2
			c0.4-0.4,1.4-0.4,2.1-0.2c0.9,0.2,2.1,0.4,2,1.9c1.6-0.1,3.1-0.2,4.8-0.3c0,3,0.1,5.9-0.1,8.8c0,0.5-0.8,1-1.2,1.3
			c-0.2,0.2-0.6,0.1-0.9,0.1c-4.1,0-8.2,0-12.3,0c-0.2,0-0.4,0-0.6-0.1c0-3.3,0-6.6,0-10.1C473.9,68.3,476,67.5,477.7,68.6z"/>
		<path fill="none" stroke="#000000" stroke-width="2" stroke-miterlimit="10" d="M139.6,68.1c0.8,0.2,1.4,0.4,2,0.6
			c0.9,0.3,1.6,0.6,2.5-0.2c0.4-0.3,1.3-0.2,1.9-0.1c0.6,0.1,1.1,0.4,1.7,0.4c0.4,0,0.9-0.1,1.3-0.3c0.8-0.2,1.6-0.5,2.4-0.6
			c0.7-0.1,1.5,0.1,2.3,0.1c0.9,0,1.4,0.5,1.3,1.4c-0.2,2-0.1,4.2-2.3,5.5c0.6,0.2,0.9,0.5,1.3,0.6c1.1,0.1,1.2,1,1,1.6
			c-0.1,0.4-0.8,1-1.3,1c-4.2,0.1-8.3,0-12.5,0.1c-1.1,0-1.7-0.5-1.7-1.6C139.6,73.8,139.6,71.1,139.6,68.1z"/>
		<path fill="none" stroke="#000000" stroke-width="2" stroke-miterlimit="10" d="M276.7,68c0,3.1,0,6,0,8.8c0,0.9-0.5,1.3-1.3,1.3
			c-4.1,0-8.2,0-12.3,0c-1,0-1.7-0.5-1.7-1.7c0-2.6,0-5.2,0-8c2.2,0.8,4.2,1.5,6.3,2.2c0.9-1.8,2.8-2.8,4.7-2.6
			C273.7,68.1,275.1,68,276.7,68z"/>
		<path fill="none" stroke="#000000" stroke-width="2" stroke-miterlimit="10" d="M106.5,108.7c-0.8,0.7-1.4,1.6-1.7,1.5
			c-0.8-0.3-1.4-1-2.1-1.6c0.4-0.4,0.9-1.2,1.2-1.1C104.7,107.6,105.4,108.2,106.5,108.7z"/>
		<path fill="none" stroke="#000000" stroke-width="2" stroke-miterlimit="10" d="M105.9,72.9c-0.2-0.1-0.4-0.2-0.5-0.3
			c-0.3-0.2-0.6-0.4-1-0.7c0.2-0.2,0.6-0.4,0.7-0.6c0.8-1.4,2.1-1.2,3.6-1.1C107.8,71.2,106.9,72,105.9,72.9z"/>
		<path fill="none" stroke="#000000" stroke-width="2" stroke-miterlimit="10" d="M128.4,129.6c-0.4,0.6-0.7,1-1,1.4
			c-0.2,0-0.6,0.1-0.9,0.2c-0.1-0.1-0.2-0.1-0.3-0.2c0.3-0.5,0.5-1.1,0.9-1.4C127.2,129.4,127.8,129.6,128.4,129.6z"/>
	</g>
	
		<linearGradient id="Sitoricambi_contorno_1_" gradientUnits="userSpaceOnUse" x1="97.0238" y1="100.0241" x2="488.996" y2="100.0241">
		<stop  offset="0" style="stop-color:#FF0000"/>
		<stop  offset="7.040177e-002" style="stop-color:#F60000"/>
		<stop  offset="0.1836" style="stop-color:#DF0000"/>
		<stop  offset="0.3255" style="stop-color:#B80000"/>
		<stop  offset="0.4906" style="stop-color:#830000"/>
		<stop  offset="0.6727" style="stop-color:#3F0000"/>
		<stop  offset="0.828" style="stop-color:#000000"/>
	</linearGradient>
	<path id="Sitoricambi_contorno" fill="none" stroke="url(#Sitoricambi_contorno_1_)" stroke-width="2" stroke-miterlimit="10" d="
		M487.8,134.7c-1.6,0.2-3.1-0.2-4.5-1.1c-0.6-0.4-1.3-0.7-1.9-1c-1.1-0.5-2.1-1-3.4-0.4c-0.7,0.3-1.6,0.2-2.4,0.2
		c-1.5,0-3.1,0-4.8,0c0-0.5-0.1-1.2-0.1-1.8c0-16.5,0-33,0-49.5c0-1.5,0.5-2,2-2c3.8,0,7.6,0.1,11.4,0.1c1.8,0,2.1,0.3,2,2
		c-0.1,1.8,0.1,3.7-0.3,5.5c-0.5,2.3,0.9,4.1,1.3,6.2c-0.8-1-1.5-2-2.4-3.3c-0.7,1-1.3,1.9-2,3c0.3,0.1,0.8,0.5,1.3,0.7
		c1.9,0.7,2,0.9,2.1,2.9c0.1,1.5-0.1,2.9-1.2,4.1c-0.4,0.5-0.2,1.6-0.1,2.5c0,1.7,0.1,3.4,0.2,5c0,0.5,0.4,0.9,0.7,1.4
		c0.2,0.4,0.5,0.8,0.5,1.3c0,6.2,0,12.5-0.1,18.7c0,0.2,0,0.4,0,0.6c-0.5,0-1,0-1.6,0c1.2,0.8,2.2,1.6,3.3,2.4
		C487.8,132.9,487.8,133.8,487.8,134.7z M421.3,131.1c0-5.2,0-10.5,0-15.7c0-1.6,0.4-3.4-2.4-3.6c0.9-0.8,1.5-1.4,2-1.9
		c0.1,0.1,0.2,0.2,0.3,0.2c0.1-0.5,0.2-1.1,0.2-1.6c0-3.8,0.1-7.7,0-11.5c0-4.2-0.1-8.4-1.7-12.4c-1-2.5-2.7-4.3-5.2-5.1
		c-4.6-1.3-9.2-1.7-13.5,1.1c-1-1.8-3.1-1.7-4.3,0.2c-2.5-1.8-5.3-2.3-8.3-2.2c-3,0.1-5.8,0.9-8,3.3c-0.2-2.8-0.2-2.8-2.9-2.8
		c-3.3,0-6.6,0-9.8,0c-2.2,0-2.5,0.3-2.5,2.5c0,16.2,0,32.4-0.1,48.6c0,1.8,0.4,2.2,2.2,2.2c3.9,0,7.8,0,11.8,0c0.3,0,0.7,0,1.3-0.1
		c0-2.7,0-5.3,0-7.8c0-1.2-0.2-2.4-1.5-3.1c1.7-1.7,1.5-3.8,1.5-5.9c0-0.8,0-1.7,0-2.5c0-1.6,0-3.2-2-3.8c0.3-0.1,0.4-0.2,0.4-0.2
		c0.9,0.1,1.5-0.3,1.6-1.3c0.2-1.2-0.7-1-1.3-1.3c-0.3-0.1-0.5-0.5-0.7-0.7c0.1-0.1,0.2-0.1,0.2-0.2c0.5,0.1,1,0.2,1.6,0.4
		c0.1-0.5,0.1-0.9,0.1-1.4c0-3-0.1-5.9,0.1-8.9c0.1-1.6,0.5-3.1,0.9-4.7c0.3-1.1,1.2-1.4,2.3-1.3c1.1,0.1,1.4,0.8,1.4,1.7
		c0.1,2.7,0.2,5.4,0.2,8.1c0,1.3-0.1,2.6,1.3,3.1c-0.4,0.9-1.1,1.7-1.1,2.6c-0.1,4.4,0,8.7-0.1,13.1c0,0.9,0.4,1.5,1.3,1.8
		c0.6,0.2,1.3,0.4,2.1,0.7c-1.2,1.3-2.5,2.4-3.1,3.8c-0.6,1.4-0.4,3.2-0.5,4.7c3.4,0.8,6.6,0.5,9.5,2c0,0.5-0.1,0.8-0.1,1.3
		c1.7,0,3.3,0,4.9,0c1,0,1.4-0.5,1.4-1.4c0-1,0-2.1,0-3.1c0-10.6,0-21.2,0-31.8c0-1.8,0.5-3.5,0.8-5.3c0.2-1,1-1.4,2-1.4
		c1,0,1.6,0.6,1.7,1.5c0.2,1.3,0.4,2.7,0.4,4c0,11.6,0,23.3,0,34.9c0,0.8,0,1.6,0,2.4c5.2,0,10.3,0,15.4,0
		C421.3,131.8,421.3,131.5,421.3,131.1z M432.4,69.9c-0.5-0.2-1-0.2-1.5-0.2c-2.1-0.1-2.6,0.4-2.6,2.5c0,16.8,0,33.6,0,50.4
		c0,2.5-0.1,5-0.1,7.5c0,1.8,0.5,2.2,2.2,2.2c4.2,0,8.4,0,12.6,0c0.4,0,0.8,0,1.3-0.1c0-0.9,0-1.7,0-2.7c4.1,4.3,9.8,3.9,12.9,2
		c-0.6-0.3-1.2-0.7-1.7-1c0.4-0.6,0.8-1.1,1.2-1.6c1,0.3,2,0.6,3.1,0.8c0.3,0.1,0.9-0.1,1.1-0.3c1.5-1.7,2.7-3.6,3.1-5.9
		c0.4-2.5,0.7-5.1,0.7-7.7c0.1-7.3,0.1-14.6,0-21.8c0-1.8-0.1-3.7-0.4-5.5c-0.6-3.3-1.8-6.3-5.4-7.6c-0.5-0.2-0.8-0.7-1.2-1
		c0.1-0.1,0.1-0.2,0.2-0.3c-4.6-1.4-9.1-1.7-13.5,1c0-0.7,0-1.1,0-1.5c0-2.5,0-5,0-7.6c0-0.9-0.2-1.8-1.3-1.8
		c-0.8,0-1.7,0.3-2.5,0.5c-0.5,0.1-1.1,0.3-1.5,0.2c-1.5-0.4-3-0.8-4.7-1.3C433.8,70.1,433.2,70.3,432.4,69.9z M444.1,99.8
		c0-2.2,0-4.3,0.1-6.5c0-0.7,0.2-1.4,0.4-2.1c0.4-1.2,1.1-1.7,2.3-1.5c1.2,0.1,1.5,0.9,1.6,2c0.1,0.8,0.5,1.5,0.8,2.5
		c-0.4,0.4-1.4,0.9-0.3,2c0.2,0.2-0.2,0.8-0.2,1.3c0,7,0,14-0.1,21c0,0.6-0.1,1.1-0.1,1.7c-0.2,1.2-0.8,1.8-2,1.7
		c-1.2-0.1-1.9-0.6-1.9-1.8c-0.2-4-0.4-8-0.5-12.1c0-1.5-0.1-2.9-1.7-3.7C443.8,102.9,444.1,101.4,444.1,99.8z M127.7,99.9
		c-0.2,0.1-0.4,0.3-0.6,0.4c-0.2-0.2-0.3-0.5-0.5-0.7c0,0.1,0,0.1-0.1,0.2c-1.2-0.6-2.3-1.2-3.2-1.6c-0.3-0.3-0.6-0.5-0.7-0.8
		c-0.1-0.3-0.2-0.7-0.2-1c0.4-0.1,0.7-0.2,1.1-0.3c-0.2-0.2-0.3-0.4-0.4-0.5c-2.8-2.4-5.6-4.7-8.2-7.3c-1-1-1.6-2.4-2.1-3.8
		c-0.4-1.1,0.2-1.9,1.3-2.3c1.7-0.6,3,0.2,3,2.1c0,1.5,0,3,0,4.5c2.9,0,5.6,0,8.3,0c0.4,0,1.1,0,1.2-0.3c0.8-1.3,1.9-0.4,2.8-0.7
		c0.2,1.6,1.4,0.9,2.1,0.9c0.9,0,1.1-0.7,1-1.4c-0.1-1.5-0.3-3-0.4-4.5c-0.3-2.4-0.9-3-3.3-3.2c0.1-0.3,0.2-0.5,0.1-0.5
		c-0.3-0.6-0.5-1-0.8-1.4c1.6-0.5,2-1.7,1.1-2.7c-1.1-1.2-2.3-2.5-3.7-3.2c-1.6-0.9-3.5-1.5-5.4-1.8c-3.4-0.7-6.8-0.7-10.3-0.2
		c-0.8,0.1-1.6,0.7-2.5,1c0,0.3-0.1,0.8-0.1,1.3c-0.6,0-1.2,0-1.9,0c0,0.6,0,1.1,0,1.8c-0.6-0.1-1.4,0-1.5-0.3c-0.6-1-1.2-0.5-1.7,0
		c-0.4,0.4-0.8,0.8-1.1,1.3c-4.2,5.7-4.8,16.3,1.9,22.8c0.4,0.4,0.8,0.8,1.2,1.1c0.3,0.3,0.7,0.5,1.1,0.8c0,0.1-0.1,0.2-0.1,0.3
		c0.8,0,1.6,0,2.1,0c0,0.7-0.3,1.4,0,1.7c0.9,1,1.9,1.8,2.9,2.7c1.5,1.4,3,2.7,4.5,4.1c3,2.7,3.6,6.2,3,10c-0.2,1-0.8,1.4-1.7,1.6
		c-1.6,0.2-2.6-0.5-2.7-2.3c-0.2-2.5-0.2-5-0.2-7.5c0-0.7,0-1.4,0-2.2c-1.9,0-3.7,0-5.4,0c-0.2,0-0.5,0-0.6,0.1
		c-0.4,1.2-1.3,0.4-2.1,0.6c0,0.5,0,1.1,0,1.9c-1.2-0.4-2.1-0.8-3.2-1.1c-0.4-1.3-1.5-1.7-3.9-1.3c0.2,4.2,0.2,8.4,0.8,12.6
		c0.9,5.9,4.4,9.7,10.3,11.1c3.8,0.9,7.6,1.1,11.4,0.5c1.3-0.2,2.7-0.2,3.5-1c-0.3-0.5-0.5-0.9-0.5-1.1c0.5-0.5,0.8-0.8,0.9-1.1
		c0.7-1.5,1.6-1.7,2.7-0.5c0.2,0.2,0.4,0.3,0.6,0.6C135,123.3,135,106.9,127.7,99.9z M212.5,82.4c0.5-0.1,0.9-0.4,1.4-0.4
		c0.6,0,1.2,0.4,1.8,0.5c0.7,0,1.6,0.1,1.9-0.3c0.7-0.7,1.1-1.7,1.7-2.7c-2-0.5-3.9-1-5.8-1.5c-0.3,0.5-0.6,1-0.9,1.5
		c-0.6-0.2-1-0.4-1.5-0.5c-3.3-0.7-6.7-0.7-10-0.2c-7.8,1.1-13.5,7.5-13.5,15.3c0,8.2,0,16.3,0.2,24.5c0.1,6.8,3.5,11.2,10,13.1
		c2.3,0.7,4.8,0.8,7.2,1c1.1,0.1,2.2,0,3.4,0c-0.2-0.5-0.4-0.9-0.6-1.4c1.7,0.2,3.3,1.7,5,0.1c-0.9-0.4-1.7-0.7-2.5-1
		c1.2,0,2.2,0.3,3.3,0.5c0.8,0.1,1.8,0.1,2.5-0.2c4-2.1,6.7-5.4,7.3-9.9c0.4-3.1,0.4-6.3,0.4-9.4c0-6.2,0-12.4-0.2-18.6
		c0-2.4-0.9-4.6-2.2-6.6c-0.2-0.3-0.5-0.6-0.8-0.7c-0.6-0.2-1.2-0.3-1.7-0.5c-1.4-0.5-2.8-1-4.3-1.5c-0.6-0.2-1.3-0.3-2-0.5
		C212.6,82.7,212.5,82.6,212.5,82.4z M208.3,113.6c-0.2,2.2-0.2,4.3-0.5,6.5c-0.2,1.2-1.2,1.8-2.4,1.7c-1.2-0.1-2-0.8-2.1-2.2
		c-0.1-1.6-0.1-3.3-0.1-4.9c0-2.4,0-2.4-2.2-2.8c0.1-0.9,0.3-1.9,0.4-2.8c0.1,0,0.2,0,0.3,0c-0.4-0.5-0.9-1.1-1.4-1.6
		c1.1-0.2,2.1,1.5,3-0.2c-0.6-0.3-1.1-0.7-1.7-1c0-0.1,0-0.1,0.1-0.2c0.4,0,0.9,0,1.5,0c0-1.6,0.1-3.1-0.1-4.6
		c0-0.5-0.7-0.9-1.2-1.3c-0.5-0.4-1-0.8-1.4-1.3c2-0.3,2.6-1.1,2.7-3.1c0.1-1.4,0.1-2.8,0.3-4.2c0.2-1.3,0.9-1.9,2.1-1.9
		c1.3,0,1.9,0.4,2.2,1.8c0.2,0.8,0.2,1.7,0.3,2.6c0,4.2,0,8.3,0,12.5c0,1.5,0.3,1.8,1.7,2.1c0.4,0.1,0.7,0.3,1.1,0.4
		c0.5,0.1,0.9,0.1,1.6,0.2C211.8,111.2,210.4,112.8,208.3,113.6z M199.5,95.3c-0.2,0.6-0.4,1.2-0.6,1.9c-1.4-0.5-0.1-1.4-0.6-2.2
		C198.9,95.2,199.3,95.3,199.5,95.3z M337.9,95.8c0.9,0,1.1-0.6,1.1-1.4c0.1-1.2,0-2.5,0.3-3.7c0.1-0.5,0.8-1.1,1.4-1.2
		c0.5-0.1,1.3,0.3,1.7,0.7c0.4,0.4,0.6,1.1,0.7,1.7c0.1,1.4,0.1,2.9,0.2,4.3c0.1,1-0.4,1.4-1.3,1.7c-3.5,1.1-6.9,2.1-10.3,3.3
		c-4.4,1.5-7.2,4.5-7.9,9.2c-0.3,1.7-0.4,3.4-0.5,5.1c-0.1,3-0.3,5.9,0.6,8.8c0.8,2.7,1.8,5.3,4.5,6.8c3.4,1.8,6.9,2.3,10.5,1
		c1.6-0.6,3-1.9,4.5-2.8c0,0.8,0.1,1.8,0.1,2.9c0.5,0,0.9,0,1.3,0c0.2-0.6,0.3-1.2,0.5-1.8c0.4,0.1,0.8,0.2,1.2,0.3
		c3.2,1.1,6.5,1.5,9.9,1.5c0.9,0,1.9,0,2.2-1.2c0.3-1.4,0-2.1-1.3-2.7c-0.4-0.2-0.9-0.4-1.4-0.6c1.1-1,0.7-3,2.7-3.1
		c0-0.2,0-0.5,0-0.7c0-10.1,0-20.1,0-30.2c0-1.8,0-3.7-0.4-5.5c-1.1-4.7-4.5-7.2-8.8-8.6c-5.8-2-11.7-1.5-17.4,0.1
		c-2.2,0.6-4,1.9-5.3,3.5c0.8,1.6-0.7,2.6-0.7,3.8c0.4,0.2,0.7,0.3,1.1,0.5c0,0.1,0,0.2-0.1,0.3c-0.9-0.1-1.8-0.1-2.8-0.2
		c-0.2,2.7-0.4,5.4-0.6,8.2C328.6,95.8,333.3,95.8,337.9,95.8z M344.7,112.4c-1.1,0.8-1.5,1.8-1.6,3.1c0,1,0.1,2.1-0.1,3.1
		c-0.1,0.8-0.3,1.7-0.8,2.3c-0.3,0.5-1.2,0.8-1.7,0.8c-0.5-0.1-1.2-0.7-1.3-1.3c-0.3-1.3-0.4-2.7-0.5-4.1c-0.1-1.4,0-2.8,0-4.2
		c-0.7-0.2-1.3-0.4-2-0.7c2.8,0,2.9-0.1,3-2.2c-0.5-0.2-1.1-0.4-1.7-0.6c1.8-1.2,3.3-2.2,5.1-3.4c0.1,2.3-0.7,5,3,5
		c0,0.1,0.1,0.3,0.1,0.4C345.7,111.2,345.3,112,344.7,112.4z M304.2,100.8c-1,1.3-0.9,1.9,0.8,2.5c0.4,0.1,0.8,0.3,1.1,0.4
		c2.7,0.8,2.7,0.8,4.1-1.7c0.4-0.7,0.8-1,1.6-0.9c1.6,0.1,3.1,0,4.7,0c1.1,0,1.6-0.5,1.6-1.6c0-2.6,0.1-5.1,0-7.7
		c-0.2-5.9-3.2-9.5-9-10.7c-0.9-0.2-1.7-0.8-2.5-1.2c-0.7-0.3-1.3-0.9-2-1c-1.7-0.2-3.3-0.2-5-0.3c-3.8,0-7.4,0.4-10.7,2.5
		c-5.4,3.4-6.4,8.9-6.8,14.7c1.2,0.4,2.3,0.8,3.4,1.1c-1.5,0.5-2.7-1.5-4.2-0.2c0.4,1,0.8,1.9,1.1,2.7c0.1,0.2,0.3,0.6,0.2,0.7
		c-0.9,0.8-0.5,1.9-0.5,2.9c-0.1,2.3,0,2.3,2.3,3.1c-0.1,1.1-0.7,1.8-1.6,2.1c-0.7,0.3-0.9,0.7-0.8,1.5c0.2,3,0.3,6,0.5,9
		c0.3,3.4,1,6.7,3.6,9.2c1.5,1.4,2.7,3.6,5.4,2.6c0.2-0.1,0.4,0.1,0.6,0.1c1.2,0.3,2.3,0.5,3.5,0.9c3.9,1.3,7.8,1.7,11.9,0.6
		c5.8-1.6,10-5.8,10.5-11.3c0.4-3.4,0.2-6.9,0.3-10.4c0-1.4-0.3-1.7-1.7-1.7c-1.9,0-3.8,0-5.6,0c-1.8,0-3.2,0.7-4.1,2.2
		c-0.4,0.6-0.7,0.6-1.3,0.4c-0.9-0.3-1.9-0.6-2.9-0.9c0,2.2,0,4.2,0,6.2c0,1,0,2.1-0.2,3.1c-0.2,1.2-1,1.9-2.1,2
		c-1.1,0-1.9-0.5-2.2-1.6c-0.2-0.8-0.4-1.6-0.4-2.3c0-7.7,0-15.4,0-23.2c0-1.1,0.1-2.2,0.3-3.3c0.2-1.2,1.2-1.7,2.6-1.6
		c1.1,0.1,1.7,0.7,1.7,1.8c0.1,1.6,0.1,3.3,0.2,4.9c0,1,0.3,1.9,1.4,2.2c1.6,0.5,3.3,1,4.9,1.4c0.3,0.1,0.6,0.2,0.9,0.3
		c0,0.1-0.1,0.2-0.1,0.4c-1.5-0.4-2.9-0.7-4.4-1.1C304.8,100,304.5,100.4,304.2,100.8z M177,116.3c0.5-0.9,1-1.9,1.2-2.9
		c0.2-1.4,0.2-2.8,0.2-4.2c0-5.3,0-10.6,0-15.8c0-0.4,0-0.9,0-1.4c0.9,0,1.6,0,2.4,0c1,0,1.6-0.4,1.5-1.5c0-2.7,0-5.4,0-8
		c0-1-0.5-1.4-1.5-1.5c-0.8,0-1.5,0-2.3,0c0-0.1,0.1-0.2,0.1-0.4c-0.6-0.3-1.1-0.7-1.7-0.9c-0.6-0.3-1.3-0.5-2-0.8
		c0-0.1,0.1-0.2,0.1-0.4c1.4,0,2.8,0,4.3,0c0-1.4,0-2.7,0-4.1c-0.4-0.2-0.8-0.4-1.1-0.6c0-0.7,0.1-1.3,0.1-1.9
		c0.1-1.4-0.4-1.9-1.8-1.9c-4,0-8.1,0-12.1,0.1c-0.9,0-1.3,0.5-1.3,1.3c0,1.3,0,2.6,0,3.8c0,1.9,0,3.7,0,5.7c-1.3,0-2.5,0-3.8,0
		c0,3.2,0,6.2,0,9.2c0,1.2,0.6,1.6,1.6,1.8c0.7,0.1,1.3,0.1,2,0.1c0,0.2,0.1,0.4,0.1,0.5c0,2.6,0,5.3-0.1,7.9c0,1.7,0.9,2.5,2.5,2
		c-0.3,0.9-0.7,1.8-1.3,2.6c-0.5,0.8-1.1,1.4-1.1,2.4c0.1,6,0.1,12.1,0.3,18.1c0.1,3.8,1.9,5.9,5.5,6.8c4,1,8,0.5,12-0.3
		c0.9-0.2,1.3-0.9,1.3-1.8c0-2,0-4.1,0-6.1c0-1.8-0.4-2.1-2.1-2.1c-0.2,0-0.5,0-0.7,0c-0.8,0.1-1.1-0.3-1.1-1c0-0.8,0-1.7,0-2.4
		c-0.9-0.2-1.6-0.4-2.4-0.6C176.4,117.3,176.7,116.8,177,116.3z M237.1,79.9c-1.1-0.5-2.3-0.8-3.5-0.9c-3.4-0.1-3.4-0.1-3.4,3.3
		c0,15.9,0,31.8,0,47.6c0,2.1,0.1,2.2,2.2,2.2c3.8,0,7.7,0,11.5,0c1.3,0,1.7-0.4,1.7-1.7c0-3,0-6.1,0-9.1c0-0.5-0.1-0.9-0.1-1.3
		c-2.6-0.2-3.9-0.7-4.6-1.6c1.6,0.3,3.2,0.5,5,0.8c-0.1-1.9,0.5-3.8-1.3-5.2c0.4-0.1,0.7-0.2,1-0.2c0-5,0-9.9,0-14.7
		c-1.1-0.6-2.6,0-3.4-1.5c1-1,0.7-3.6,3.3-2.7c0.1-0.4,0.1-0.7,0.1-0.9c-0.1-2.4,0-2.2,2.5-2.9c0.2,0,0.3,0,0.5,0
		c2.3-0.4,4.6-0.7,6.9-1.1c0-3.5,0-6.9,0-10.3c0-1-0.9-1.2-1.7-1.2c-2.9,0.1-5.6,1-7.6,3.2c-0.1,0.1-0.3,0.2-0.5,0.3
		c0-0.5,0-0.9,0-1.2c0-1.5-0.3-1.8-1.8-1.8c-1.6,0-3.3,0-5,0C238.5,80.4,238.2,80.4,237.1,79.9z M154.1,93.3c0-0.2,0-0.5-0.2-0.6
		c-0.8-0.5-0.6-1.1-0.5-1.8c0.4-3.4,1.1-6.8,0.8-10.2c-0.1-1.3-0.4-1.7-1.6-1.7c-3.9,0-7.8,0-11.8,0c-1.6,0-2.1,0.6-2.1,2.1
		c0,4.2,0,8.4,0,12.6c0,0.8,1,1.7,1.7,1.6c1.3-0.1,1.3-0.1,0.7,1.1c-0.2,0.4-0.5,0.7-0.8,1c-1.1,0.9-1.5,2-1.7,3.4
		c-0.2,2.6,0.2,5.1,0.1,7.7c-0.3,7.1-0.1,14.3-0.1,21.5c0,1.8,0.5,2.3,2.3,2.2c2.3,0,4.6-0.1,6.9-0.1c0.9,0,1.6-0.1,1.7-1.3
		c1.5,0.4,2.9,0.7,4.4,1.1c0-0.3,0.1-0.6,0.1-0.9c0-4.7,0.1-9.3,0.1-14c0-2.7,0-2.7-2.6-3.5c0-2,0-4.2,0-6.3c0-0.2,0-0.4,0.1-0.5
		c1.1-0.8,0.8-1.7,0.4-2.7c0.4-0.3,0.7-0.5,1.3-1c-0.7-0.3-1.2-0.5-1.7-0.8c0-0.1,0-0.1,0-0.2c0.8,0,1.6,0,2.5,0
		c-0.4-0.7-0.7-1.1-1.1-1.6c0.7-0.2,1.3-0.3,2.2-0.5c-0.5-0.3-0.9-0.5-1.2-0.7C154.1,97.2,154.1,95.3,154.1,93.3z M275.4,125.8
		c0.2-3.6,0.2-7.3,0.3-10.9c0-1,0.3-2.1-1-2.7c-0.2-0.1-0.2-0.5-0.2-0.8c-0.1-2.1-0.2-4.2-0.2-6.3c0-0.5,0.2-1,0.5-1.4
		c1.4-1.7,1.3-2.2-0.6-3.3c-0.1-0.1-0.2-0.2-0.7-0.5c1-0.7,1.8-1.3,2.6-2c-0.2-0.1-0.5-0.3-0.8-0.5c0.1,0,0.3-0.1,0.4-0.1
		c-0.1-0.8,0.1-1.7-0.2-2.2c-0.4-0.6-1.3-0.8-2.1-1.2c0.5-0.6,1.1-1.3,0.1-1.9c-0.9-0.5-0.7-1.2-0.4-1.8c0.4-0.8,0.9-1.5,1.5-2.2
		c0.3-0.3,0.7-0.5,1.2-0.8c0-2,0-4.1,0-6.3c0-1.6-0.3-2-2-2c-3.8,0-7.5,0-11.3,0c-1.8,0-2.2,0.4-2.2,2.2c0,11.4,0,22.7,0,34.1
		c0,1,0.3,1.7,1.4,2c0.6,0.2,1.1,0.4,2,0.7c-0.6,0.7-1,1.4-1.6,1.9c-0.9,0.8-1.7,1.6-1.8,2.8c-0.1,2,0,4.1,0,6.1
		c0,0.9,0.5,1.3,1.4,1.5c0.5,0.1,0.9,0.3,1.4,0.5c0.6,0.3,1.2,0.8,1.8,0.8c3.1,0.3,6.1,0.5,9.2,0.7c0.8,0.1,1.4-0.2,1.6-1.1
		c0.1-0.8,0.1-1.6-1-1.8c-0.3-0.1-0.6-0.3-0.7-0.3C274.5,127.8,275.3,126.8,275.4,125.8z M470.9,67.1c0,3.5,0,6.8,0,10.1
		c0.3,0,0.5,0.1,0.6,0.1c4.1,0,8.2,0,12.3,0c0.3,0,0.7,0,0.9-0.1c0.5-0.4,1.2-0.9,1.2-1.3c0.1-2.9,0.1-5.8,0.1-8.8
		c-1.6,0.1-3.2,0.2-4.8,0.3c0.1-1.5-1.1-1.7-2-1.9c-0.7-0.2-1.7-0.2-2.1,0.2c-0.5,0.5-0.5,1.4-0.6,2C475,66.5,472.9,67.3,470.9,67.1
		z M138.6,75.5c0,1.1,0.6,1.6,1.7,1.6c4.2,0,8.3,0,12.5-0.1c0.5,0,1.2-0.6,1.3-1c0.1-0.7,0.1-1.5-1-1.6c-0.4,0-0.8-0.3-1.3-0.6
		c2.2-1.4,2.1-3.5,2.3-5.5c0.1-0.9-0.4-1.3-1.3-1.4c-0.8,0-1.5-0.2-2.3-0.1c-0.8,0.1-1.6,0.4-2.4,0.6c-0.4,0.1-0.9,0.3-1.3,0.3
		c-0.6-0.1-1.1-0.4-1.7-0.4c-0.7-0.1-1.6-0.2-1.9,0.1c-0.9,0.8-1.6,0.5-2.5,0.2c-0.6-0.2-1.2-0.4-2-0.6
		C138.6,70.1,138.6,72.8,138.6,75.5z M271.3,67c-1.9-0.1-3.8,0.8-4.7,2.6c-2-0.7-4.1-1.4-6.3-2.2c0,2.7,0,5.4,0,8
		c0,1.2,0.7,1.7,1.7,1.7c4.1,0,8.2,0,12.3,0c0.9,0,1.3-0.4,1.3-1.3c0-2.9,0-5.7,0-8.8C274.1,67,272.7,67.1,271.3,67z M102.8,106.5
		c-0.3-0.1-0.8,0.7-1.2,1.1c0.7,0.6,1.3,1.3,2.1,1.6c0.3,0.1,0.9-0.8,1.7-1.5C104.4,107.2,103.7,106.6,102.8,106.5z M107.8,69.3
		c-1.5-0.1-2.8-0.3-3.6,1.1c-0.2,0.3-0.5,0.4-0.7,0.6c0.3,0.2,0.6,0.4,1,0.7c0.2,0.1,0.3,0.2,0.5,0.3
		C105.9,71,106.8,70.2,107.8,69.3z M126,129.6c-0.4,0.3-0.6,0.9-0.9,1.4c0.1,0.1,0.2,0.1,0.3,0.2c0.4-0.1,0.7-0.1,0.9-0.2
		c0.3-0.5,0.6-0.8,1-1.4C126.8,129.6,126.2,129.4,126,129.6z"/>
	<path id="Macchieombra_1_" fill="#FF0000" stroke="#000000" stroke-miterlimit="10" d="M469.9,78.5c0.1,0.1,0.3,0.1,0.4,0.2
		c0.2,0.3,0.5,0.6,0.7,0.9c-0.3,0.2-0.6,0.5-0.9,0.7c-0.1,0.1-0.2,0-0.3,0c-0.5-0.2-1-0.4-1.5-0.6c0.2-0.4,0.4-0.8,0.5-1.2
		C469.1,78.5,469.5,78.5,469.9,78.5z M383.9,110.3c-0.1-1-1-1.1-1.7-1c-0.4,0-0.8,0.6-1.2,0.9c0.5,0.4,1,0.7,1.7,1.2
		C383.3,110.9,383.9,110.6,383.9,110.3z M174.7,116.8c-0.2,0.3-0.6,0.6-0.5,0.8c0.1,0.3,0.5,0.6,0.8,0.7c1,0.4,2.1,0.7,3.2,1
		c0.4-0.8,0.8-1.5,1.3-2.4c-1.6-0.5-2.9-0.8-4.1-1.2C175,116.2,174.9,116.5,174.7,116.8z M345.1,92.4c-0.6-0.3-1-0.3-1.2-0.6
		c-0.6-0.5-1.1-0.6-1.8-0.2c-0.3,0.1-0.7,0-1.2,0c0.1-0.1,0,0-0.1,0.2c-0.2,0.3-0.5,0.5-0.7,0.8c0.3,0.3,0.6,0.6,1,0.8
		c0.9,0.4,1.9,0.6,3,1C344.4,93.6,344.8,92.9,345.1,92.4z M390.1,77.5c-0.7,0.3-0.6,0.6,0,0.7c0.8,0.2,1.6,0.4,2.5,0.6
		c-0.4-0.3-0.7-0.5-1-0.7c0-0.1,0.1-0.1,0.1-0.2c1.2,0.3,1.3-0.4,2-0.8c-2.3-2.9-2.1-0.2-2.8-0.3C390.5,77.2,390.3,77.4,390.1,77.5z
		 M139.6,83.2c-1.1,0.2-1.9,0.1-2-1.3c0-0.1-0.5-0.2-0.7-0.3c-0.2,1.1-0.4,2-0.6,2.9C138.8,84.6,139.6,84.8,139.6,83.2z M158.7,87.6
		c-0.9,0-1.8-0.4-2.6,0.4c0.7,1.8,1.2,2,2.9,1.1C158.8,88.6,158.7,88.1,158.7,87.6C158.6,87.6,158.7,87.6,158.7,87.6z M310.9,94.3
		c0.6-0.4,0.6-1.1-0.1-1.4c-0.8-0.4-1.7-0.7-2.4,0.6C308.8,94.3,310.1,94.8,310.9,94.3z M147.9,116.2c-0.2-0.4-0.4-0.7-0.5-0.8
		c-0.5,0.2-1,0.4-1.4,0.6c-0.3,0.3-0.5,0.7-1,1.2C146.2,116.8,147,116.5,147.9,116.2z M133.2,126.2c0.2-0.1,0.2-0.6,0.2-0.9
		c-0.5-0.1-1-0.2-1.7-0.4C132,126.1,132.4,126.4,133.2,126.2z M185.6,132c0.2-0.1,0.2-0.6,0.2-0.9c-0.5-0.1-1-0.2-1.7-0.4
		C184.4,132,184.9,132.3,185.6,132z M173.4,127.3c0,0.1-0.1,0.2-0.1,0.4c0.4,0.3,0.8,0.7,1.3,1c0.2-0.3,0.3-0.5,0.6-1.1
		C174.5,127.5,173.9,127.4,173.4,127.3z M334.1,113.6c0.2-0.1,0.6,0.1,0.9,0.1c0,0,0,0,0,0c-0.1-0.5-0.3-1-0.4-1.2
		c-0.5,0.2-1,0.4-1.4,0.6 M273.1,120.2l-4.5-1.6l-0.6,1.3l-0.7,0.7l0.2,1.3l2.6,1.1c0,0,0,0,1.2,0.1c1.2,0.1,1.5-1.9,1.5-1.9
		L273.1,120.2z M231.5,117.1l0.7,0.4l0.9-0.5l0.5-0.2l0.1-2.5l-3.3,1.9L231.5,117.1z M148.1,104.7c-0.5,1.8-0.5,1.8-0.5,1.8l2.6,0.9
		l0.1-1.9c0,0-2.2-0.1-1.9-1.3s0.3-1.3,0.3-1.3l-0.7,0 M207.4,113.8l1.3,3.2l1.7-0.5c0,0,2.7-0.8,2.2-1.4c-0.5-0.7-3-2.9-3-2.9
		L207.4,113.8z M240,115.5l-2.5,2.2l3.4,0.8l0.5-2.3L240,115.5z M297.5,128.6l-0.7,0.8l0.2,1.2l1.1,0.6l1,0l0.7-0.2l-1.8-0.5
		l-1.1-2.4L297.5,128.6z M285.6,110.7l-1.2-0.5l-0.2,1.3l2.1,0.6l1.7-0.6l0-0.6c0,0,0,0-0.5-0.9c-0.5-0.9-1.5-0.4-1.5-0.4
		L285.6,110.7z M345.1,120.1l0.1,0.2l1,2.2l2.5-1.1l2.4-2.2l-2.6,0.5l-1.1,0.8L345.1,120.1z M404.1,95.2c-1,1.6-0.3,2.2-0.3,2.2
		l0.7-0.3l0.7-0.5L404.1,95.2z M390.8,120.3l0.7,3l0.9-3.2L390.8,120.3z M438.5,103.5l-1.3-2.4c0,0,0-0.1,0-0.1
		c0.3-0.1,2.2-0.5,0.5-0.9l-1.8-0.4c0,0,0,0-0.1,0l-0.4,1.3c0,0,0,0,0,0l0.4,2.6c0,0,0,0,0,0L438.5,103.5
		C438.5,103.6,438.5,103.6,438.5,103.5z M451.3,126.2c0.1-0.1,0.2,0,0.3,0l1.4,1.5l-1.7-4.6c-0.1-0.2-0.4-0.2-0.5,0l-0.5,3.6
		L451.3,126.2z M477,121.3l-2.8-3.5l-1.3,1.8l1.7,0.4l0.3,0.9L477,121.3z M221.1,103.5l-1.7-1.4l-0.2,1.7l2,0.7L221.1,103.5z
		 M169,114.6l0.8,0.1l0.2-1.7l1.3-1l-2.4-0.6l0.1,2.5L169,114.6z"/>
	<linearGradient id="Macchie_1_" gradientUnits="userSpaceOnUse" x1="131.2889" y1="103.8638" x2="476.6017" y2="103.8638">
		<stop  offset="0.2097" style="stop-color:#000000"/>
		<stop  offset="0.8656" style="stop-color:#FF0000"/>
	</linearGradient>
	<linearGradient id="Macchie_3_" gradientUnits="userSpaceOnUse" x1="130.9517" y1="103.8638" x2="477.1875" y2="103.8638">
		<stop  offset="0.1344" style="stop-color:#FF0000"/>
		<stop  offset="0.7903" style="stop-color:#000000"/>
	</linearGradient>
	<path id="Macchie_2_" fill="url(#Macchie_1_)" stroke="url(#Macchie_3_)" stroke-width="0.5" stroke-miterlimit="10" d="
		M469.5,78.4c0.1,0.1,0.3,0.1,0.4,0.2c0.2,0.3,0.5,0.6,0.7,0.9c-0.3,0.2-0.6,0.5-0.9,0.7c-0.1,0.1-0.2,0-0.3,0
		c-0.5-0.2-1-0.4-1.5-0.6c0.2-0.4,0.4-0.8,0.5-1.2C468.8,78.4,469.1,78.4,469.5,78.4z M383.5,110.2c-0.1-1-1-1.1-1.7-1
		c-0.4,0-0.8,0.6-1.2,0.9c0.5,0.4,1,0.7,1.7,1.2C382.9,110.8,383.5,110.5,383.5,110.2z M174.3,116.7c-0.2,0.3-0.6,0.6-0.5,0.8
		c0.1,0.3,0.5,0.6,0.8,0.7c1,0.4,2.1,0.7,3.2,1c0.4-0.8,0.8-1.5,1.3-2.4c-1.6-0.5-2.9-0.8-4.1-1.2
		C174.7,116.1,174.5,116.4,174.3,116.7z M344.7,92.3c-0.6-0.3-1-0.3-1.2-0.6c-0.6-0.5-1.1-0.6-1.8-0.2c-0.3,0.1-0.7,0-1.2,0
		c0.1-0.1,0,0-0.1,0.2c-0.2,0.3-0.5,0.5-0.7,0.8c0.3,0.3,0.6,0.6,1,0.8c0.9,0.4,1.9,0.6,3,1C344,93.4,344.4,92.7,344.7,92.3z
		 M389.7,77.4c-0.7,0.3-0.6,0.6,0,0.7c0.8,0.2,1.6,0.4,2.5,0.6c-0.4-0.3-0.7-0.5-1-0.7c0-0.1,0.1-0.1,0.1-0.2c1.2,0.3,1.3-0.4,2-0.8
		c-2.3-2.9-2.1-0.2-2.8-0.3C390.1,77.1,390,77.3,389.7,77.4z M139.2,83.1c-1.1,0.2-1.9,0.1-2-1.3c0-0.1-0.5-0.2-0.7-0.3
		c-0.2,1.1-0.4,2-0.6,2.9C138.5,84.5,139.3,84.7,139.2,83.1z M158.3,87.5c-0.9,0-1.8-0.4-2.6,0.4c0.7,1.8,1.2,2,2.9,1.1
		C158.5,88.4,158.4,87.9,158.3,87.5C158.3,87.4,158.3,87.5,158.3,87.5z M310.5,94.2c0.6-0.4,0.6-1.1-0.1-1.4
		c-0.8-0.4-1.7-0.7-2.4,0.6C308.4,94.2,309.7,94.6,310.5,94.2z M147.5,116c-0.2-0.4-0.4-0.7-0.5-0.8c-0.5,0.2-1,0.4-1.4,0.6
		c-0.3,0.3-0.5,0.7-1,1.2C145.8,116.6,146.6,116.3,147.5,116z M132.8,126c0.2-0.1,0.2-0.6,0.2-0.9c-0.5-0.1-1-0.2-1.7-0.4
		C131.6,126,132.1,126.3,132.8,126z M185.3,131.9c0.2-0.1,0.2-0.6,0.2-0.9c-0.5-0.1-1-0.2-1.7-0.4
		C184,131.9,184.5,132.2,185.3,131.9z M173,127.2c0,0.1-0.1,0.2-0.1,0.4c0.4,0.3,0.8,0.7,1.3,1c0.2-0.3,0.3-0.5,0.6-1.1
		C174.1,127.4,173.5,127.3,173,127.2z M333.8,113.5c0.2-0.1,0.6,0.1,0.9,0.1c0,0,0,0,0,0c-0.1-0.5-0.3-1-0.4-1.2
		c-0.5,0.2-1,0.4-1.4,0.6 M272.7,120l-4.5-1.6l-0.6,1.3l-0.7,0.7l0.2,1.3l2.6,1.1c0,0,0,0,1.2,0.1c1.2,0.1,1.5-1.9,1.5-1.9
		L272.7,120z M231.1,117l0.7,0.4l0.9-0.5l0.5-0.2l0.1-2.5l-3.3,1.9L231.1,117z M147.7,104.5c-0.5,1.8-0.5,1.8-0.5,1.8l2.6,0.9
		l0.1-1.9c0,0-2.2-0.1-1.9-1.3s0.3-1.3,0.3-1.3l-0.7,0 M207,113.7l1.3,3.2l1.7-0.5c0,0,2.7-0.8,2.2-1.4c-0.5-0.7-3-2.9-3-2.9
		L207,113.7z M239.6,115.4l-2.5,2.2l3.4,0.8l0.5-2.3L239.6,115.4z M297.1,128.5l-0.7,0.8l0.2,1.2l1.1,0.6l1,0l0.7-0.2l-1.8-0.5
		l-1.1-2.4L297.1,128.5z M285.2,110.5l-1.2-0.5l-0.2,1.3l2.1,0.6l1.7-0.6l0-0.6c0,0,0,0-0.5-0.9c-0.5-0.9-1.5-0.4-1.5-0.4
		L285.2,110.5z M344.7,119.9l0.1,0.2l1,2.2l2.5-1.1l2.4-2.2l-2.6,0.5l-1.1,0.8L344.7,119.9z M403.8,95c-1,1.6-0.3,2.2-0.3,2.2
		l0.7-0.3l0.7-0.5L403.8,95z M390.4,120.2l0.7,3l0.9-3.2L390.4,120.2z M438.1,103.4l-1.3-2.4c0,0,0-0.1,0-0.1
		c0.3-0.1,2.2-0.5,0.5-0.9l-1.8-0.4c0,0,0,0-0.1,0l-0.4,1.3c0,0,0,0,0,0l0.4,2.6c0,0,0,0,0,0L438.1,103.4
		C438.1,103.5,438.2,103.4,438.1,103.4z M450.9,126c0.1-0.1,0.2,0,0.3,0l1.4,1.5L451,123c-0.1-0.2-0.4-0.2-0.5,0l-0.5,3.6L450.9,126
		z M476.6,121.1l-2.8-3.5l-1.3,1.8l1.7,0.4l0.3,0.9L476.6,121.1z M220.7,103.4L219,102l-0.2,1.7l2,0.7L220.7,103.4z M168.6,114.4
		l0.8,0.1l0.2-1.7l1.3-1l-2.4-0.6l0.1,2.5L168.6,114.4z"/>
</g>
<g id="contorno_ritaglio">
	<path display="none" fill="none" stroke="#000000" stroke-miterlimit="10" d="M498.1,15.2l0-14.4c0-6.6-5.4-12-12-12c0,0,0,0,0,0
		L170.3-11l-0.1,0c-4.4,0-43.7,0.6-68,20.3C87.4,21.4,65.9,44.9,65,45.9l-71.6,78.7c-3.2,3.5-4,8.6-2.1,12.9c1.9,4.3,6.2,7.1,11,7.1
		c0,0,0,0,0,0l21,0c3.1,0,6.1-1.2,8.3-3.3l53.8-51.7c0.7,3.2,2,6.8,4.3,10.4c-3,2.2-5,5.7-5,9.8v6.9c0,10.2,2.6,14.2,7.7,19.7
		c5.3,5.7,13.2,8.6,23.3,8.6c6.1,0,10.8-1.3,14.5-3.2c2,1.6,4.6,2.5,7.3,2.5h15.1c2.5,0,4.7-0.7,6.7-2c3.3,1.8,7.5,2.7,12.3,2.7
		c2.1,0,4.4-0.2,6.6-0.5c2.1-0.3,3.7-0.6,4.9-0.9c1.5-0.4,2.9-1.1,4.1-2c4.5,2.3,9.8,3.4,16,3.4c6.4,0,11.9-1.2,16.5-3.7
		c2.1,1.9,4.9,3,8,3h15.1c2.7,0,5.2-0.9,7.2-2.4c2,1.5,4.5,2.4,7.2,2.4h15.1c3.1,0,5.8-1.1,8-3c4.6,2.5,10.3,3.7,17,3.7
		c7.2,0,13.5-1.8,18.7-5.5c3.3,2.9,8.5,5.5,16.2,5.5c2.3,0,4.5-0.3,6.5-1c0.9,0.2,1.9,0.3,2.9,0.3h15c1,0,2-0.1,2.9-0.4
		c0.9,0.2,1.9,0.4,2.9,0.4h14.8c1.2,0,2.5-0.2,3.6-0.5c1.1,0.4,2.3,0.5,3.6,0.5h15.1c1.2,0,2.5-0.2,3.6-0.5c1.1,0.4,2.3,0.5,3.6,0.5
		h15.2c1,0,2.1-0.1,3-0.4c1,0.3,2,0.4,3,0.4h15.5c0.9,0,1.7-0.1,2.5-0.3c2,0.6,4.1,0.9,6.3,0.9c4.4,0,8.5-1,11.9-2.8
		c1.9,1.3,4.3,2.1,6.8,2.1h15.1c6.6,0,12-1.4,12-8V86.6c0-0.3,0-0.5,0-0.8v-69C498.2,16.2,498.2,15.7,498.1,15.2z"/>
</g>
</svg>