<?xml version="1.0" encoding="UTF-8" standalone="no"?>
<!-- Created with Inkscape (http://www.inkscape.org/) -->

<svg
   width="300mm"
   height="105mm"
   viewBox="0 0 300 105"
   version="1.1"
   id="svg1"
   xml:space="preserve"
   inkscape:version="1.4 (86a8ad7, 2024-10-11)"
   sodipodi:docname="logo_simple.svg"
   xmlns:inkscape="http://www.inkscape.org/namespaces/inkscape"
   xmlns:sodipodi="http://sodipodi.sourceforge.net/DTD/sodipodi-0.dtd"
   xmlns="http://www.w3.org/2000/svg"
   xmlns:svg="http://www.w3.org/2000/svg"><sodipodi:namedview
     id="namedview1"
     pagecolor="#ffffff"
     bordercolor="#000000"
     borderopacity="0.25"
     inkscape:showpageshadow="2"
     inkscape:pageopacity="0.0"
     inkscape:pagecheckerboard="0"
     inkscape:deskcolor="#d1d1d1"
     inkscape:document-units="mm"
     inkscape:zoom="1"
     inkscape:cx="555"
     inkscape:cy="276.5"
     inkscape:window-width="1920"
     inkscape:window-height="991"
     inkscape:window-x="-9"
     inkscape:window-y="-9"
     inkscape:window-maximized="1"
     inkscape:current-layer="layer3" /><defs
     id="defs1"><rect
       x="89"
       y="49"
       width="961"
       height="304"
       id="rect2" /><rect
       x="67"
       y="76"
       width="642"
       height="414"
       id="rect1" /><inkscape:path-effect
       effect="powerstroke"
       message=""
       id="path-effect7"
       is_visible="true"
       lpeversion="1.3"
       scale_width="1"
       interpolator_type="CubicBezierJohan"
       interpolator_beta="0.2"
       start_linecap_type="zerowidth"
       end_linecap_type="zerowidth"
       offset_points="0.47140379,-1.7864275"
       linejoin_type="extrp_arc"
       miter_limit="4"
       not_jump="false"
       sort_points="true" /><inkscape:path-effect
       effect="powerstroke"
       message=""
       id="path-effect6"
       is_visible="true"
       lpeversion="1.3"
       scale_width="1"
       interpolator_type="CubicBezierJohan"
       interpolator_beta="0.2"
       start_linecap_type="zerowidth"
       end_linecap_type="zerowidth"
       offset_points="4,18.867925"
       linejoin_type="extrp_arc"
       miter_limit="4"
       not_jump="false"
       sort_points="true" /><inkscape:path-effect
       effect="powerstroke"
       message=""
       id="path-effect3"
       is_visible="true"
       lpeversion="1.3"
       scale_width="1"
       interpolator_type="CubicBezierJohan"
       interpolator_beta="0.2"
       start_linecap_type="zerowidth"
       end_linecap_type="zerowidth"
       offset_points="4,18.867925"
       linejoin_type="extrp_arc"
       miter_limit="4"
       not_jump="false"
       sort_points="true" /><inkscape:path-effect
       effect="fill_between_many"
       method="bsplinespiro"
       autoreverse="false"
       close="false"
       join="false"
       linkedpaths="#path3,0,1"
       id="path-effect4"
       is_visible="true"
       lpeversion="0" /></defs><g
     inkscape:groupmode="layer"
     id="layer2"
     inkscape:label="logo"
     style="display:inline"
     transform="matrix(1.1354179,0,0,1.1354179,-80.51318,-89.136039)"><path
       id="path1"
       style="display:inline;fill:#f1560c;fill-opacity:1;stroke-linecap:round;stroke-linejoin:round;stroke-miterlimit:4.7;paint-order:markers fill stroke"
       d="m 107.91796,91.486405 c -17.600872,0 -31.896244,14.293825 -31.896244,31.894695 0,10.29746 4.897419,19.45762 12.482959,25.29148 l 1.693954,-1.71256 c -7.149126,-5.37821 -11.768791,-13.93268 -11.768791,-23.57892 0,-16.30003 13.188089,-29.486573 29.488122,-29.486573 16.30003,0 29.48657,13.186543 29.48657,29.486573 0,9.62467 -4.59996,18.16135 -11.72125,23.54171 l 1.69137,1.71515 c 7.55954,-5.83546 12.438,-14.97962 12.438,-25.25686 0,-17.60087 -14.29382,-31.894695 -31.89469,-31.894695 z"
       sodipodi:nodetypes="ssccsssccss"
       inkscape:label="cerchio esterno" /><path
       id="path1-4"
       style="fill:#a09e9e;fill-opacity:1;stroke-linecap:round;stroke-linejoin:round;stroke-miterlimit:4.7;paint-order:markers fill stroke"
       d="m 107.90452,93.64648 c -16.381724,0 -29.685522,13.30381 -29.685522,29.68553 0,9.69983 4.664853,18.3193 11.870593,23.73808 l 1.5844,-1.60145 c -6.801389,-4.99245 -11.214819,-13.04232 -11.214819,-22.13663 0,-15.17099 12.274361,-27.445356 27.445348,-27.445356 15.17099,0 27.44484,12.274366 27.44484,27.445356 0,9.06474 -4.38388,17.09305 -11.14764,22.08909 l 1.57872,1.60042 c 7.17013,-5.42157 11.80961,-14.01781 11.80961,-23.68951 0,-16.38172 -13.30381,-29.68553 -29.68553,-29.68553 z"
       sodipodi:nodetypes="ssccsssccss"
       inkscape:label="cerchio interno" /><circle
       style="display:inline;fill:#a09e9e;fill-opacity:1;stroke:#a09e9e;stroke-width:2.25764;stroke-linecap:round;stroke-linejoin:round;stroke-miterlimit:4.7;stroke-dasharray:none;stroke-opacity:1;paint-order:markers fill stroke"
       id="path2"
       cx="108.78153"
       cy="147.01115"
       r="3.3785164"
       inkscape:label="cerchio grande" /><circle
       style="fill:#a09e9e;fill-opacity:1;stroke:#a09e9e;stroke-width:1.05987;stroke-linecap:round;stroke-linejoin:round;stroke-miterlimit:4.7;stroke-dasharray:none;stroke-opacity:1;paint-order:markers fill stroke"
       id="path2-7"
       cx="113.00969"
       cy="155.88464"
       r="1.5860809"
       inkscape:label="cerchio piccolo" /></g><g
     inkscape:groupmode="layer"
     id="layer3"
     inkscape:label="smarty"
     style="display:none"
     transform="matrix(1.1354179,0,0,1.1354179,-80.51318,-89.136039)"><g
       inkscape:groupmode="layer"
       id="layer17"
       inkscape:label="cappello"
       style="display:inline;stroke:#000000;stroke-opacity:1"><path
         id="path48-8"
         style="display:inline;opacity:1;fill:#ffffff;fill-opacity:1;stroke:#000000;stroke-width:0.1;stroke-linecap:round;stroke-linejoin:round;stroke-miterlimit:4.7;stroke-dasharray:none;stroke-dashoffset:0;stroke-opacity:1;paint-order:normal"
         d="m 109.21246,102.15458 a 1.3342057,0.44587216 7.7086449 0 0 -1.03279,-0.42247 1.3342057,0.44587216 7.7086449 0 0 -1.26447,0.0175 1.3342057,0.44587216 7.7086449 0 0 1.03207,0.42152 1.3342057,0.44587216 7.7086449 0 0 1.26519,-0.0165 z"
         inkscape:label="elica1" /><path
         id="path48-8-1"
         style="display:inline;opacity:1;fill:#ffffff;fill-opacity:1;stroke:#000000;stroke-width:0.1;stroke-linecap:round;stroke-linejoin:round;stroke-miterlimit:4.7;stroke-dasharray:none;stroke-dashoffset:0;stroke-opacity:1;paint-order:normal"
         d="m 111.27702,102.07443 a 0.3588282,1.0209334 86.499344 0 0 -0.8422,-0.17271 0.3588282,1.0209334 86.499344 0 0 -0.94354,0.21034 0.3588282,1.0209334 86.499344 0 0 0.8415,0.17207 0.3588282,1.0209334 86.499344 0 0 0.94424,-0.20967 z"
         inkscape:label="elica2" /><ellipse
         style="display:inline;opacity:1;fill:#f1560c;fill-opacity:1;stroke:#000000;stroke-width:0.1;stroke-linecap:round;stroke-linejoin:round;stroke-miterlimit:4.7;stroke-dasharray:none;stroke-dashoffset:0;stroke-opacity:1;paint-order:normal"
         id="path47"
         cx="109.23158"
         cy="105.36206"
         rx="3.3605094"
         ry="3.1786082"
         inkscape:label="base" /><path
         id="path48"
         style="display:inline;opacity:1;fill:#ffffff;fill-opacity:1;stroke:#000000;stroke-width:0.1;stroke-linecap:round;stroke-linejoin:round;stroke-miterlimit:4.7;stroke-dasharray:none;stroke-dashoffset:0;stroke-opacity:1;paint-order:normal"
         inkscape:label="striscia"
         d="m 109.35405,101.83564 c -0.0389,-0.0201 -0.0959,-0.015 -0.13075,0.0114 -0.0388,0.0293 -0.0517,0.13643 -0.0517,0.13643 l -0.004,0.28164 c -0.92772,0.87453 -1.47168,2.47998 -1.47587,4.14703 0.002,1.77685 0.6426,3.40804 1.66708,4.24522 1.01746,-0.84077 1.65232,-2.46631 1.65416,-4.2354 4e-5,-1.72328 -0.60101,-3.31564 -1.57665,-4.17701 v -0.26923 c 0,0 -0.0341,-0.11521 -0.0821,-0.14005 z"
         sodipodi:nodetypes="sscccccccs" /><ellipse
         style="display:inline;fill:#cdc5c2;fill-opacity:1;stroke:#000000;stroke-width:0.171278;stroke-linecap:round;stroke-linejoin:round;stroke-miterlimit:4.7;stroke-dasharray:none;stroke-dashoffset:0;stroke-opacity:1;paint-order:normal"
         id="path49"
         cx="137.23486"
         cy="80.933159"
         rx="4.4683285"
         ry="0.74782443"
         transform="matrix(0.97739002,0.21144451,-0.34307875,0.93930663,0,0)"
         inkscape:label="visiera" /></g><path
       style="display:inline;fill:#ffffff;fill-opacity:1;stroke:#000000;stroke-width:0.210288;stroke-linecap:round;stroke-linejoin:round;stroke-miterlimit:4.7;stroke-dasharray:none;stroke-dashoffset:0;stroke-opacity:1;paint-order:normal"
       d="m 36.810063,58.233733 c 0,0 -0.494452,1.304346 -0.545308,1.990377 -0.05075,0.684645 0.101961,1.373526 0.245387,2.04491 0.236587,1.107611 0.649266,2.170567 1.008819,3.244581 0.119548,0.357112 0.381716,1.063353 0.381716,1.063353 l 1.008819,-0.08175 c 0,0 -0.381342,-1.355155 -0.518035,-2.04491 -0.19813,-0.999804 -0.46903,-2.007737 -0.43625,-3.026456 0.01703,-0.529128 0.143392,-1.057665 0.327182,-1.554138 0.22311,-0.60268 0.927023,-1.690455 0.927023,-1.690455 z"
       id="path36"
       sodipodi:nodetypes="csssccssscc"
       inkscape:label="g_sx"
       transform="matrix(0.880733,0,0,0.880733,70.910614,78.50505)" /><path
       style="display:inline;fill:#ffffff;fill-opacity:1;stroke:#000000;stroke-width:0.210288;stroke-linecap:round;stroke-linejoin:round;stroke-miterlimit:4.7;stroke-dasharray:none;stroke-dashoffset:0;stroke-opacity:1;paint-order:normal"
       d="m 47.334626,58.058652 c 0,0 0.434467,1.325532 0.453985,2.013175 0.01953,0.686247 -0.164476,1.367441 -0.338366,2.031592 -0.28684,1.095667 -0.747559,2.138707 -1.155707,3.195214 -0.135706,0.351287 -0.429802,1.044834 -0.429802,1.044834 l -1.004038,-0.127655 c 0,0 0.442733,-1.336364 0.61073,-2.01917 0.243513,-0.989733 0.56009,-1.984257 0.573783,-3.003419 0.0068,-0.529355 -0.09503,-1.063103 -0.25598,-1.567433 -0.195394,-0.612229 -0.848975,-1.730968 -0.848975,-1.730968 z"
       id="path36-8"
       sodipodi:nodetypes="csssccssscc"
       inkscape:label="g_sx"
       transform="matrix(0.880733,0,0,0.880733,70.910614,78.50505)" /><path
       style="display:inline;fill:#f85e15;fill-opacity:1;stroke:#000000;stroke-width:0.210288;stroke-linecap:round;stroke-linejoin:round;stroke-miterlimit:4.7;stroke-dasharray:none;stroke-dashoffset:0;stroke-opacity:1;paint-order:normal"
       d="m 39.058814,66.951495 c 0,0 0.07278,-0.876838 -0.173514,-1.195346 -0.243127,-0.314419 -0.605916,-0.35224 -0.963981,-0.356668 -1.068644,-0.01317 -2.375124,-0.611775 -3.383568,-0.347029 -0.386633,0.101506 -0.603668,0.232204 -0.819386,0.568742 -0.152362,0.237688 -0.218738,0.550337 -0.173515,0.829025 0.02861,0.176251 0.269912,0.462706 0.269912,0.462706 z"
       id="path37"
       sodipodi:nodetypes="cssssscc"
       inkscape:label="piede_sx"
       transform="matrix(0.880733,0,0,0.880733,70.910614,78.50505)" /><path
       style="display:inline;fill:#f85e15;fill-opacity:1;stroke:#000000;stroke-width:0.228222;stroke-linecap:round;stroke-linejoin:round;stroke-miterlimit:4.7;stroke-dasharray:none;stroke-dashoffset:0;stroke-opacity:1;paint-order:normal"
       d="m 44.664793,66.880145 c 0,0 -0.08164,-0.920404 0.194701,-1.254739 0.272807,-0.330032 0.679888,-0.369737 1.081667,-0.374381 1.199115,-0.01385 2.665099,-0.64217 3.796656,-0.364276 0.433832,0.106502 0.677368,0.24374 0.919428,0.597002 0.170959,0.249497 0.245443,0.577678 0.19469,0.870207 -0.03213,0.185005 -0.302862,0.485698 -0.302862,0.485698 z"
       id="path37-9"
       sodipodi:nodetypes="cssssscc"
       inkscape:label="piede_dx"
       transform="matrix(0.880733,0,0,0.880733,70.910614,78.50505)" /><path
       style="display:inline;fill:#a09e9e;fill-opacity:1;stroke:#000000;stroke-width:0.210288;stroke-linecap:round;stroke-linejoin:round;stroke-miterlimit:4.7;stroke-dasharray:none;stroke-dashoffset:0;stroke-opacity:1;paint-order:normal"
       d="m 45.182032,64.809359 c 0.806068,-0.09208 1.449361,-0.172936 1.830192,-0.171176 0.218307,0.001 0.461979,0.226039 0.481985,0.443426 0.02066,0.223984 -0.180452,0.524631 -0.404868,0.539834 -0.569412,0.03861 -1.10215,0.07119 -1.889403,-0.07709 -0.143188,-0.02691 -0.262384,-0.18454 -0.289191,-0.32775 -0.02396,-0.127916 0.141984,-0.39248 0.271285,-0.40724 z"
       id="path46-1"
       sodipodi:nodetypes="sssssss"
       inkscape:label="calzino_dx"
       transform="matrix(0.880733,0,0,0.880733,70.910614,78.50505)" /><path
       style="display:inline;fill:#a09e9e;fill-opacity:1;stroke:#000000;stroke-width:0.210288;stroke-linecap:round;stroke-linejoin:round;stroke-miterlimit:4.7;stroke-dasharray:none;stroke-dashoffset:0;stroke-opacity:1;paint-order:normal"
       d="m 38.614015,64.905517 c -0.806068,-0.09208 -1.449361,-0.172935 -1.830192,-0.171176 -0.218307,0.001 -0.461979,0.226039 -0.481985,0.443427 -0.02066,0.223983 0.180452,0.524631 0.404867,0.539834 0.569413,0.0386 1.102151,0.07119 1.889404,-0.07709 0.143188,-0.02691 0.262384,-0.184539 0.289191,-0.32775 0.02396,-0.127916 -0.141984,-0.392479 -0.271285,-0.40724 z"
       id="path46"
       sodipodi:nodetypes="sssssss"
       inkscape:label="calzino_sx"
       transform="matrix(0.880733,0,0,0.880733,70.910614,78.50505)" /><g
       inkscape:groupmode="layer"
       id="layer16"
       inkscape:label="gambe"
       style="display:inline"><path
         style="fill:#ffffff;fill-opacity:1;stroke:#000000;stroke-width:0.185208;stroke-linecap:round;stroke-linejoin:round;stroke-miterlimit:4.7;stroke-dasharray:none;stroke-dashoffset:0;stroke-opacity:1;paint-order:normal"
         d="m 103.33045,129.79342 c 0,0 -0.43548,1.14878 -0.48027,1.75299 -0.0447,0.60299 0.0898,1.20971 0.21612,1.80102 0.20837,0.97551 0.57183,1.91169 0.8885,2.85761 0.10529,0.31452 0.33619,0.93653 0.33619,0.93653 l 0.8885,-0.072 c 0,0 -0.33586,-1.19353 -0.45625,-1.80102 -0.1745,-0.88056 -0.41309,-1.76828 -0.38422,-2.6655 0.015,-0.46602 0.12629,-0.93152 0.28816,-1.36878 0.1965,-0.5308 0.81646,-1.48884 0.81646,-1.48884 z"
         id="path50"
         sodipodi:nodetypes="csssccssscc"
         inkscape:label="g_sx" /><path
         style="fill:#ffffff;fill-opacity:1;stroke:#000000;stroke-width:0.185208;stroke-linecap:round;stroke-linejoin:round;stroke-miterlimit:4.7;stroke-dasharray:none;stroke-dashoffset:0;stroke-opacity:1;paint-order:normal"
         d="m 112.59978,129.63922 c 0,0 0.38265,1.16744 0.39984,1.77307 0.0172,0.6044 -0.14486,1.20435 -0.29801,1.78929 -0.25263,0.96499 -0.6584,1.88363 -1.01787,2.81413 -0.11952,0.30939 -0.37854,0.92022 -0.37854,0.92022 l -0.88429,-0.11243 c 0,0 0.38993,-1.17698 0.53789,-1.77835 0.21447,-0.87169 0.49329,-1.7476 0.50535,-2.64521 0.006,-0.46622 -0.0837,-0.93631 -0.22545,-1.38049 -0.17209,-0.53921 -0.74772,-1.52452 -0.74772,-1.52452 z"
         id="path51"
         sodipodi:nodetypes="csssccssscc"
         inkscape:label="g_sx" /><path
         style="display:inline;opacity:1;fill:#f85e15;fill-opacity:1;stroke:#000000;stroke-width:0.185208;stroke-linecap:round;stroke-linejoin:round;stroke-miterlimit:4.7;stroke-dasharray:none;stroke-dashoffset:0;stroke-opacity:1;paint-order:normal"
         d="m 105.311,137.47144 c 0,0 0.0641,-0.77226 -0.15282,-1.05278 -0.21413,-0.27692 -0.53365,-0.31023 -0.84901,-0.31413 -0.94119,-0.0116 -2.09185,-0.53881 -2.98002,-0.30564 -0.34052,0.0894 -0.53167,0.20451 -0.72166,0.50091 -0.13419,0.20934 -0.19265,0.4847 -0.15282,0.73015 0.0252,0.15523 0.23772,0.40752 0.23772,0.40752 z"
         id="path52"
         sodipodi:nodetypes="cssssscc"
         inkscape:label="piede_sx" /><path
         style="display:inline;opacity:1;fill:#f85e15;fill-opacity:1;stroke:#000000;stroke-width:0.201003;stroke-linecap:round;stroke-linejoin:round;stroke-miterlimit:4.7;stroke-dasharray:none;stroke-dashoffset:0;stroke-opacity:1;paint-order:normal"
         d="m 110.24837,137.4086 c 0,0 -0.0719,-0.81063 0.17148,-1.10509 0.24027,-0.29067 0.5988,-0.32564 0.95266,-0.32973 1.0561,-0.0122 2.34724,-0.56558 3.34384,-0.32083 0.38209,0.0938 0.59658,0.21467 0.80977,0.5258 0.15057,0.21974 0.21617,0.50878 0.17147,0.76642 -0.0283,0.16294 -0.26674,0.42777 -0.26674,0.42777 z"
         id="path53"
         sodipodi:nodetypes="cssssscc"
         inkscape:label="piede_dx" /><path
         style="display:inline;fill:#a09e9e;fill-opacity:1;stroke:#000000;stroke-width:0.185208;stroke-linecap:round;stroke-linejoin:round;stroke-miterlimit:4.7;stroke-dasharray:none;stroke-dashoffset:0;stroke-opacity:1;paint-order:normal"
         d="m 110.70392,135.58479 c 0.70993,-0.0811 1.2765,-0.15231 1.61191,-0.15076 0.19227,8.9e-4 0.40688,0.19908 0.4245,0.39054 0.0182,0.19727 -0.15893,0.46206 -0.35658,0.47545 -0.5015,0.034 -0.9707,0.0627 -1.66406,-0.0679 -0.12611,-0.0237 -0.23109,-0.16253 -0.2547,-0.28866 -0.0211,-0.11266 0.12505,-0.34567 0.23893,-0.35867 z"
         id="path54"
         sodipodi:nodetypes="sssssss"
         inkscape:label="calzino_dx" /><path
         style="display:inline;opacity:1;fill:#a09e9e;fill-opacity:1;stroke:#000000;stroke-width:0.185208;stroke-linecap:round;stroke-linejoin:round;stroke-miterlimit:4.7;stroke-dasharray:none;stroke-dashoffset:0;stroke-opacity:1;paint-order:normal"
         d="m 104.91925,135.66948 c -0.70993,-0.0811 -1.2765,-0.15231 -1.61191,-0.15076 -0.19227,8.9e-4 -0.40688,0.19908 -0.4245,0.39054 -0.0182,0.19727 0.15893,0.46206 0.35658,0.47545 0.5015,0.034 0.9707,0.0627 1.66406,-0.0679 0.12611,-0.0237 0.23109,-0.16253 0.2547,-0.28866 0.0211,-0.11266 -0.12505,-0.34567 -0.23893,-0.35867 z"
         id="path55"
         sodipodi:nodetypes="sssssss"
         inkscape:label="calzino_sx" /></g><path
       id="rect13"
       style="display:inline;fill:#a09e9e;fill-opacity:1;stroke:#000000;stroke-width:0.240331;stroke-linecap:round;stroke-linejoin:bevel;stroke-miterlimit:4.7;stroke-dasharray:none;stroke-opacity:1;paint-order:normal"
       d="m 36.20543,30.590202 h 11.991886 c 0.662221,0 1.195334,0.533124 1.195334,1.195334 0,0 0.231353,8.418045 0.231353,12.628118 0,4.210084 -0.231353,12.628129 -0.231353,12.628129 -0.01215,0.662096 -0.533113,1.195334 -1.195334,1.195334 H 36.20543 c -0.66221,0 -1.195334,-0.533124 -1.195334,-1.195334 0,0 -0.269912,-8.417795 -0.269912,-12.628129 0,-4.210334 0.269912,-12.628118 0.269912,-12.628118 0.01419,-0.662062 0.533124,-1.195334 1.195334,-1.195334 z"
       sodipodi:nodetypes="sssssssssss"
       inkscape:label="telefono"
       transform="matrix(0.880733,0,0,0.880733,70.910614,78.50505)" /><path
       id="rect14"
       style="display:inline;fill:#ffffff;fill-opacity:1;stroke:#000000;stroke-width:0.238527;stroke-linecap:round;stroke-linejoin:bevel;stroke-miterlimit:4.7;stroke-dasharray:none;stroke-dashoffset:0;stroke-opacity:1;paint-order:normal"
       d="m 34.958525,33.597197 c -0.06756,2.230903 -0.218273,7.411725 -0.218273,10.816616 0,3.18227 0.128882,7.777408 0.204183,10.315533 h 14.504884 c 0.06449,-2.538193 0.174854,-7.133456 0.174854,-10.315533 0,-3.404676 -0.129278,-8.585644 -0.187173,-10.816616 z"
       inkscape:label="schermo"
       sodipodi:nodetypes="csccscc"
       transform="matrix(0.880733,0,0,0.880733,70.910614,78.50505)" /><rect
       style="display:inline;fill:#ffffff;fill-opacity:1;stroke:#000000;stroke-width:0.141603;stroke-linecap:round;stroke-linejoin:round;stroke-miterlimit:4.7;stroke-dasharray:none;stroke-dashoffset:0;stroke-opacity:1;paint-order:normal"
       id="rect34"
       width="2.4378319"
       height="0.46098912"
       x="41.213829"
       y="31.530586"
       ry="0.23049456"
       inkscape:label="altoparlante"
       transform="matrix(0.880733,0,0,0.880733,70.910614,78.50505)" /><rect
       style="display:inline;fill:#ffffff;fill-opacity:1;stroke:#000000;stroke-width:0.210288;stroke-linecap:round;stroke-linejoin:round;stroke-miterlimit:4.7;stroke-dasharray:none;stroke-dashoffset:0;stroke-opacity:1;paint-order:normal"
       id="rect35"
       width="0.88686097"
       height="0.88686097"
       x="45.633141"
       y="55.942844"
       ry="0.23049456"
       inkscape:label="tasto3"
       transform="matrix(0.880733,0,0,0.880733,70.910614,78.50505)" /><circle
       style="display:inline;fill:#ffffff;fill-opacity:1;stroke:#000000;stroke-width:0.210288;stroke-linecap:round;stroke-linejoin:round;stroke-miterlimit:4.7;stroke-dasharray:none;stroke-dashoffset:0;stroke-opacity:1;paint-order:normal"
       id="path35"
       cx="42.066433"
       cy="56.424843"
       r="0.48198965"
       inkscape:label="tasto2"
       transform="matrix(0.880733,0,0,0.880733,70.910614,78.50505)" /><path
       id="rect36"
       style="display:inline;fill:#ffffff;stroke:#000000;stroke-width:0.191362;stroke-linecap:round;stroke-linejoin:round;stroke-miterlimit:4.7;stroke-dasharray:none"
       d="m 37.949999,56.214756 c 0.0079,0.186402 -0.0045,0.424022 -0.0034,0.568901 0.0011,0.236258 -0.164919,0.206646 -0.324037,0.08958 l -0.36305,-0.267051 c -0.09186,-0.06756 -0.09469,-0.18027 -7.26e-4,-0.244898 l 0.360211,-0.247816 c 0.165203,-0.113565 0.319404,-0.183314 0.330861,0.101279 z"
       sodipodi:nodetypes="sssssss"
       inkscape:label="tasto1"
       transform="matrix(0.880733,0,0,0.880733,70.910614,78.50505)" /><g
       inkscape:groupmode="layer"
       id="layer15"
       inkscape:label="componenti"
       style="display:inline"><rect
         style="fill:#ffffff;fill-opacity:1;stroke:#000000;stroke-width:0.124714;stroke-linecap:round;stroke-linejoin:round;stroke-miterlimit:4.7;stroke-dasharray:none;stroke-dashoffset:0;stroke-opacity:1;paint-order:normal"
         id="rect55"
         width="2.147079"
         height="0.40600833"
         x="107.20899"
         y="106.27508"
         ry="0.20300417"
         inkscape:label="altoparlante" /><rect
         style="fill:#ffffff;fill-opacity:1;stroke:#000000;stroke-width:0.185208;stroke-linecap:round;stroke-linejoin:round;stroke-miterlimit:4.7;stroke-dasharray:none;stroke-dashoffset:0;stroke-opacity:1;paint-order:normal"
         id="rect56"
         width="0.7810877"
         height="0.7810877"
         x="111.10123"
         y="127.77576"
         ry="0.20300417"
         inkscape:label="tasto3" /><circle
         style="fill:#ffffff;fill-opacity:1;stroke:#000000;stroke-width:0.185208;stroke-linecap:round;stroke-linejoin:round;stroke-miterlimit:4.7;stroke-dasharray:none;stroke-dashoffset:0;stroke-opacity:1;paint-order:normal"
         id="circle56"
         cx="107.95991"
         cy="128.20027"
         r="0.42450419"
         inkscape:label="tasto2" /><path
         id="path56"
         style="fill:#ffffff;stroke:#000000;stroke-width:0.17234;stroke-linecap:round;stroke-linejoin:round;stroke-miterlimit:4.7;stroke-dasharray:none"
         transform="matrix(0.80553999,0.59254141,-0.80201773,0.59730022,0,0)"
         d="m 172.51493,43.182639 c 0.14179,0.134199 0.31083,0.316884 0.41839,0.423806 0.17541,0.174357 0.0619,0.243286 -0.11207,0.243286 h -0.39694 c -0.10042,0 -0.18521,-0.08207 -0.18127,-0.18127 l 0.0151,-0.3804 c 0.007,-0.174388 0.0403,-0.310276 0.25679,-0.105422 z"
         sodipodi:nodetypes="sssssss"
         inkscape:label="tasto1" /></g><path
       id="path57"
       style="display:inline;fill:#a09e9e;fill-opacity:1;stroke:#000000;stroke-width:0.240331;stroke-linecap:round;stroke-linejoin:bevel;stroke-miterlimit:4.7;stroke-dasharray:none;stroke-opacity:1;paint-order:normal"
       d="m 36.20543,30.590202 h 11.991886 c 0.662221,0 1.195334,0.533124 1.195334,1.195334 0,0 0.231353,8.418045 0.231353,12.628118 0,4.210084 -0.231353,12.628129 -0.231353,12.628129 -0.01215,0.662096 -0.533113,1.195334 -1.195334,1.195334 H 36.20543 c -0.66221,0 -1.195334,-0.533124 -1.195334,-1.195334 0,0 -0.269912,-8.417795 -0.269912,-12.628129 0,-4.210334 0.269912,-12.628118 0.269912,-12.628118 0.01419,-0.662062 0.533124,-1.195334 1.195334,-1.195334 z"
       sodipodi:nodetypes="sssssssssss"
       inkscape:label="telefono"
       transform="matrix(0.880733,0,0,0.880733,70.910614,78.50505)" /><path
       id="path58"
       style="display:inline;fill:#ffffff;fill-opacity:1;stroke:#000000;stroke-width:0.238527;stroke-linecap:round;stroke-linejoin:bevel;stroke-miterlimit:4.7;stroke-dasharray:none;stroke-dashoffset:0;stroke-opacity:1;paint-order:normal"
       d="m 34.958525,33.597197 c -0.06756,2.230903 -0.218273,7.411725 -0.218273,10.816616 0,3.18227 0.128882,7.777408 0.204183,10.315533 h 14.504884 c 0.06449,-2.538193 0.174854,-7.133456 0.174854,-10.315533 0,-3.404676 -0.129278,-8.585644 -0.187173,-10.816616 z"
       inkscape:label="schermo"
       sodipodi:nodetypes="csccscc"
       transform="matrix(0.880733,0,0,0.880733,70.910614,78.50505)" /><rect
       style="display:inline;fill:#525252;fill-opacity:1;stroke:#000000;stroke-width:0.124714;stroke-linecap:round;stroke-linejoin:round;stroke-miterlimit:4.7;stroke-dasharray:none;stroke-dashoffset:0;stroke-opacity:1;paint-order:normal"
       id="rect58"
       width="2.147079"
       height="0.40600833"
       x="107.20899"
       y="106.27508"
       ry="0.20300417"
       inkscape:label="altoparlante" /><rect
       style="display:inline;fill:#ffffff;fill-opacity:1;stroke:#000000;stroke-width:0.185208;stroke-linecap:round;stroke-linejoin:round;stroke-miterlimit:4.7;stroke-dasharray:none;stroke-dashoffset:0;stroke-opacity:1;paint-order:normal"
       id="rect59"
       width="0.7810877"
       height="0.7810877"
       x="111.10123"
       y="127.77576"
       ry="0.20300417"
       inkscape:label="tasto3" /><circle
       style="display:inline;fill:#ffffff;fill-opacity:1;stroke:#000000;stroke-width:0.185208;stroke-linecap:round;stroke-linejoin:round;stroke-miterlimit:4.7;stroke-dasharray:none;stroke-dashoffset:0;stroke-opacity:1;paint-order:normal"
       id="circle59"
       cx="107.95991"
       cy="128.20027"
       r="0.42450419"
       inkscape:label="tasto2" /><path
       id="path59"
       style="display:inline;fill:#ffffff;stroke:#000000;stroke-width:0.17234;stroke-linecap:round;stroke-linejoin:round;stroke-miterlimit:4.7;stroke-dasharray:none"
       transform="matrix(0.80553999,0.59254142,-0.80201774,0.59730023,6.2385254e-7,-9.5412737e-7)"
       d="m 172.51493,43.182639 c 0.14179,0.134199 0.31083,0.316884 0.41839,0.423806 0.17541,0.174357 0.0619,0.243286 -0.11207,0.243286 h -0.39694 c -0.10042,0 -0.18521,-0.08207 -0.18127,-0.18127 l 0.0151,-0.3804 c 0.007,-0.174388 0.0403,-0.310276 0.25679,-0.105422 z"
       sodipodi:nodetypes="sssssss"
       inkscape:label="tasto1" /><g
       inkscape:groupmode="layer"
       id="g59"
       inkscape:label="componenti"
       style="display:inline"><rect
         style="fill:#525252;fill-opacity:1;stroke:#000000;stroke-width:0.124714;stroke-linecap:round;stroke-linejoin:round;stroke-miterlimit:4.7;stroke-dasharray:none;stroke-dashoffset:0;stroke-opacity:1;paint-order:normal"
         id="rect3"
         width="2.147079"
         height="0.40600833"
         x="107.20899"
         y="106.27508"
         ry="0.20300417"
         inkscape:label="altoparlante" /><rect
         style="fill:#ffffff;fill-opacity:1;stroke:#000000;stroke-width:0.185208;stroke-linecap:round;stroke-linejoin:round;stroke-miterlimit:4.7;stroke-dasharray:none;stroke-dashoffset:0;stroke-opacity:1;paint-order:normal"
         id="rect4"
         width="0.7810877"
         height="0.7810877"
         x="111.10123"
         y="127.77576"
         ry="0.20300417"
         inkscape:label="tasto3" /><circle
         style="fill:#ffffff;fill-opacity:1;stroke:#000000;stroke-width:0.185208;stroke-linecap:round;stroke-linejoin:round;stroke-miterlimit:4.7;stroke-dasharray:none;stroke-dashoffset:0;stroke-opacity:1;paint-order:normal"
         id="circle4"
         cx="107.95991"
         cy="128.20027"
         r="0.42450419"
         inkscape:label="tasto2" /><path
         id="path4"
         style="fill:#ffffff;stroke:#000000;stroke-width:0.17234;stroke-linecap:round;stroke-linejoin:round;stroke-miterlimit:4.7;stroke-dasharray:none"
         transform="matrix(0.80553999,0.59254141,-0.80201773,0.59730022,0,0)"
         d="m 172.51493,43.182639 c 0.14179,0.134199 0.31083,0.316884 0.41839,0.423806 0.17541,0.174357 0.0619,0.243286 -0.11207,0.243286 h -0.39694 c -0.10042,0 -0.18521,-0.08207 -0.18127,-0.18127 l 0.0151,-0.3804 c 0.007,-0.174388 0.0403,-0.310276 0.25679,-0.105422 z"
         sodipodi:nodetypes="sssssss"
         inkscape:label="tasto1" /></g><g
       inkscape:groupmode="layer"
       id="layer13"
       inkscape:label="corpo"
       style="display:inline" /><ellipse
       style="display:inline;fill:#ffffff;fill-opacity:1;stroke:#000000;stroke-width:0.566806;stroke-linecap:round;stroke-linejoin:bevel;stroke-miterlimit:4.7;stroke-dasharray:none;stroke-dashoffset:0;stroke-opacity:1;paint-order:stroke fill markers"
       id="path14"
       cx="43.71534"
       cy="34.558228"
       rx="1.3376402"
       ry="2.4751356"
       inkscape:label="sclera_sx"
       transform="matrix(0.87436644,0.10570681,-0.10570681,0.87436644,70.910614,78.50505)" /><ellipse
       style="display:inline;fill:#ffffff;fill-opacity:1;stroke:#000000;stroke-width:0.561547;stroke-linecap:round;stroke-linejoin:bevel;stroke-miterlimit:4.7;stroke-dasharray:none;stroke-dashoffset:0;stroke-opacity:1;paint-order:stroke fill markers"
       id="path14-2"
       cx="48.920589"
       cy="34.379253"
       rx="1.3121841"
       ry="2.4765434"
       inkscape:label="sclera_dx"
       transform="matrix(0.87534291,0.09729026,-0.08845395,0.87627992,70.910614,78.50505)" /><ellipse
       style="display:inline;fill:#000000;fill-opacity:1;stroke:none;stroke-width:0.240331;stroke-linecap:round;stroke-linejoin:bevel;stroke-miterlimit:4.7;stroke-dasharray:none;stroke-dashoffset:0;stroke-opacity:1;paint-order:stroke fill markers"
       id="path15"
       cx="43.375221"
       cy="35.244766"
       rx="0.82902223"
       ry="1.6966035"
       inkscape:label="pupilla_sx"
       transform="matrix(0.87556799,0.09524326,-0.09524326,0.87556799,70.910614,78.50505)" /><ellipse
       style="display:inline;fill:#000000;fill-opacity:1;stroke:none;stroke-width:0.240331;stroke-linecap:round;stroke-linejoin:bevel;stroke-miterlimit:4.7;stroke-dasharray:none;stroke-dashoffset:0;stroke-opacity:1;paint-order:stroke fill markers"
       id="path15-4"
       cx="50.223339"
       cy="33.327209"
       rx="0.82902223"
       ry="1.6966035"
       inkscape:label="pupilla_dx"
       transform="matrix(0.87256511,0.11966919,-0.11966919,0.87256511,70.910614,78.50505)" /><ellipse
       style="display:inline;fill:#ffffff;fill-opacity:1;stroke:none;stroke-width:0.240331;stroke-linecap:round;stroke-linejoin:bevel;stroke-miterlimit:4.7;stroke-dasharray:none;stroke-dashoffset:0;stroke-opacity:1;paint-order:stroke fill markers"
       id="path16"
       cx="42.535088"
       cy="37.202148"
       rx="0.30847338"
       ry="0.65550596"
       inkscape:label="riflesso_sx"
       transform="matrix(0.87826682,0.06586341,-0.06586341,0.87826682,70.910614,78.50505)" /><ellipse
       style="display:inline;fill:#ffffff;fill-opacity:1;stroke:none;stroke-width:0.240331;stroke-linecap:round;stroke-linejoin:bevel;stroke-miterlimit:4.7;stroke-dasharray:none;stroke-dashoffset:0;stroke-opacity:1;paint-order:stroke fill markers"
       id="path16-2"
       cx="50.463951"
       cy="34.133038"
       rx="0.30847338"
       ry="0.65550596"
       inkscape:label="riflesso_dx"
       transform="matrix(0.87312524,0.11551146,-0.11551146,0.87312524,70.910614,78.50505)" /><ellipse
       style="display:inline;fill:#eae9e9;fill-opacity:1;stroke:none;stroke-width:0.600826;stroke-linecap:round;stroke-linejoin:bevel;stroke-miterlimit:4.7;stroke-dasharray:none;stroke-dashoffset:0;stroke-opacity:1;paint-order:stroke fill markers"
       id="path17"
       cx="39.155209"
       cy="43.006233"
       rx="1.6387649"
       ry="0.44343048"
       transform="matrix(0.880733,0,0,0.880733,70.910614,78.50505)" /><ellipse
       style="display:inline;fill:#eae9e9;fill-opacity:1;stroke:none;stroke-width:0.600826;stroke-linecap:round;stroke-linejoin:bevel;stroke-miterlimit:4.7;stroke-dasharray:none;stroke-dashoffset:0;stroke-opacity:1;paint-order:stroke fill markers"
       id="path17-5"
       cx="45.206131"
       cy="42.995743"
       rx="1.6387649"
       ry="0.44343048"
       transform="matrix(0.880733,0,0,0.880733,70.910614,78.50505)" /><g
       inkscape:groupmode="layer"
       id="layer5"
       inkscape:label="occhi"
       style="display:inline"><ellipse
         style="fill:#ffffff;fill-opacity:1;stroke:#000000;stroke-width:0.499205;stroke-linecap:round;stroke-linejoin:bevel;stroke-miterlimit:4.7;stroke-dasharray:none;stroke-dashoffset:0;stroke-opacity:1;paint-order:stroke fill markers"
         id="ellipse59"
         cx="118.32185"
         cy="99.863342"
         rx="1.1781038"
         ry="2.1799335"
         inkscape:label="sclera_sx"
         transform="rotate(6.893338)" /><ellipse
         style="fill:#ffffff;fill-opacity:1;stroke:#000000;stroke-width:0.494573;stroke-linecap:round;stroke-linejoin:bevel;stroke-miterlimit:4.7;stroke-dasharray:none;stroke-dashoffset:0;stroke-opacity:1;paint-order:stroke fill markers"
         id="ellipse60"
         cx="121.52648"
         cy="100.47397"
         rx="1.1556838"
         ry="2.1811736"
         inkscape:label="sclera_dx"
         transform="matrix(0.99388,0.11046511,-0.1004322,0.9949439,0,0)" /><ellipse
         style="fill:#000000;fill-opacity:1;stroke:none;stroke-width:0.211667;stroke-linecap:round;stroke-linejoin:bevel;stroke-miterlimit:4.7;stroke-dasharray:none;stroke-dashoffset:0;stroke-opacity:1;paint-order:stroke fill markers"
         id="ellipse61"
         cx="117.18636"
         cy="101.41756"
         rx="0.73014724"
         ry="1.4942547"
         inkscape:label="pupilla_sx"
         transform="rotate(6.2081577)" /><ellipse
         style="fill:#000000;fill-opacity:1;stroke:none;stroke-width:0.211667;stroke-linecap:round;stroke-linejoin:bevel;stroke-miterlimit:4.7;stroke-dasharray:none;stroke-dashoffset:0;stroke-opacity:1;paint-order:stroke fill markers"
         id="ellipse62"
         cx="125.15318"
         cy="97.494423"
         rx="0.73014724"
         ry="1.4942547"
         inkscape:label="pupilla_dx"
         transform="rotate(7.8091938)" /><ellipse
         style="fill:#ffffff;fill-opacity:1;stroke:none;stroke-width:0.211667;stroke-linecap:round;stroke-linejoin:bevel;stroke-miterlimit:4.7;stroke-dasharray:none;stroke-dashoffset:0;stroke-opacity:1;paint-order:stroke fill markers"
         id="ellipse63"
         cx="114.04491"
         cy="105.74751"
         rx="0.27168268"
         ry="0.5773257"
         inkscape:label="riflesso_sx"
         transform="rotate(4.2887256)" /><ellipse
         style="fill:#ffffff;fill-opacity:1;stroke:none;stroke-width:0.211667;stroke-linecap:round;stroke-linejoin:bevel;stroke-miterlimit:4.7;stroke-dasharray:none;stroke-dashoffset:0;stroke-opacity:1;paint-order:stroke fill markers"
         id="ellipse64"
         cx="125.0396"
         cy="98.588821"
         rx="0.27168268"
         ry="0.5773257"
         inkscape:label="riflesso_dx"
         transform="rotate(7.5362698)" /><ellipse
         style="fill:#eae9e9;fill-opacity:1;stroke:none;stroke-width:0.529167;stroke-linecap:round;stroke-linejoin:bevel;stroke-miterlimit:4.7;stroke-dasharray:none;stroke-dashoffset:0;stroke-opacity:1;paint-order:stroke fill markers"
         id="ellipse65"
         cx="105.3959"
         cy="116.38206"
         rx="1.4433143"
         ry="0.39054385" /><ellipse
         style="display:inline;fill:#eae9e9;fill-opacity:1;stroke:none;stroke-width:0.529167;stroke-linecap:round;stroke-linejoin:bevel;stroke-miterlimit:4.7;stroke-dasharray:none;stroke-dashoffset:0;stroke-opacity:1;paint-order:stroke fill markers"
         id="ellipse66"
         cx="110.72514"
         cy="116.37282"
         rx="1.4433143"
         ry="0.39054385" /></g><circle
       id="path11"
       style="display:inline;fill:#000000;stroke:#000000;stroke-width:0.264583"
       cx="69.639397"
       cy="96.054337"
       r="0" /><circle
       id="path12"
       style="display:inline;fill:#000000;stroke:#000000;stroke-width:0.264583"
       cx="77.996117"
       cy="94.805618"
       r="0" /><g
       inkscape:groupmode="layer"
       id="layer4"
       inkscape:label="smarty 1"
       style="display:inline"><circle
         id="circle5"
         style="fill:#000000;stroke:#000000;stroke-width:0.264583"
         cx="69.639397"
         cy="96.054337"
         r="0" /><circle
         id="circle6"
         style="fill:#000000;stroke:#000000;stroke-width:0.264583"
         cx="77.996117"
         cy="94.805618"
         r="0" /></g><path
       style="display:inline;fill:none;fill-opacity:1;stroke:#000000;stroke-width:0.330454;stroke-linecap:round;stroke-linejoin:bevel;stroke-miterlimit:4.7;stroke-dasharray:none;stroke-dashoffset:0;stroke-opacity:1;paint-order:stroke fill markers"
       d="m 39.444402,44.779962 c 0,0 1.225173,0.71042 1.952885,0.807407 0.688097,0.09174 1.414084,0.133105 2.095834,0.0023 0.963822,-0.184959 1.907298,-0.837007 1.907298,-0.837007"
       id="path18"
       sodipodi:nodetypes="cssc"
       transform="matrix(0.880733,0,0,0.880733,70.910614,78.50505)" /><g
       inkscape:groupmode="layer"
       id="layer7"
       inkscape:label="bocca"
       style="display:inline"><path
         style="display:inline;fill:none;fill-opacity:1;stroke:#000000;stroke-width:0.291042;stroke-linecap:round;stroke-linejoin:bevel;stroke-miterlimit:4.7;stroke-dasharray:none;stroke-dashoffset:0;stroke-opacity:1;paint-order:stroke fill markers"
         d="m 105.6506,117.94424 c 0,0 1.07905,0.62569 1.71997,0.71111 0.60603,0.0808 1.24543,0.11723 1.84587,0.002 0.84887,-0.1629 1.67982,-0.73718 1.67982,-0.73718"
         id="path66"
         sodipodi:nodetypes="cssc" /></g><path
       id="path20"
       style="display:inline;fill:#ffffff;fill-opacity:1;stroke:#000000;stroke-width:0.240331;stroke-linecap:round;stroke-linejoin:miter;stroke-miterlimit:4.7;stroke-dasharray:none;stroke-opacity:1;paint-order:normal"
       inkscape:label="braccio_sx"
       d="m 31.60412,44.562496 c -0.18241,0.607914 -0.13448,1.510798 0.08684,2.165423 0.290086,0.857922 1.174118,1.486262 1.81052,1.68957 0.541175,0.17289 1.139052,0.411305 1.9738,0.417255 0.467962,0.04337 1.183502,-0.0045 1.640701,-0.11252 0.45721,-0.107751 0.687666,-0.238801 0.687666,-0.238801 1.021672,-0.31392 0.703675,-1.985187 -0.536292,-1.605924 0,0 -0.319268,0.188275 -0.815571,0.258762 -1.372459,0.251336 -2.020498,-0.144902 -2.174472,-0.243502 -0.386792,-0.247657 -0.6612,-0.49989 -0.788582,-0.876599 -0.07948,-0.227038 -0.06143,-0.589827 0.01703,-0.84667 0.127689,-0.576168 0.760321,-1.011896 1.189146,-1.257918 0.0034,-0.736954 0.02384,-1.537367 0.03713,-2.364133 -2.270368,0.932848 -2.915531,2.30726 -3.127912,3.015057 z"
       sodipodi:nodetypes="ssscscccsccccs"
       transform="matrix(0.880733,0,0,0.880733,70.910614,78.50505)" /><path
       style="display:inline;fill:#ffffff;fill-opacity:1;stroke:#000000;stroke-width:0.240331;stroke-linecap:round;stroke-linejoin:miter;stroke-miterlimit:4.7;stroke-dasharray:none;stroke-dashoffset:0;stroke-opacity:1;paint-order:normal"
       d="m 37.21904,47.327545 c 0,0 0.396159,-0.705719 0.381716,-1.090614 -0.01317,-0.35181 -0.302941,-0.957317 -0.302941,-0.957317 0,0 0.233034,-0.151181 0.43859,-0.105707 0.227299,0.05018 0.427496,0.329487 0.577246,0.503444 0.113088,0.131413 0.123931,0.262259 0.158629,0.413656 0.02714,0.11839 0.05552,0.323196 0.05552,0.323196 l 0.06983,-0.260396 c 0,0 0.330804,-0.398226 0.530025,-0.366706 0.283343,0.04485 0.625104,0.204046 0.633926,0.490773 -0.437385,0.462172 -0.403141,0.445197 -0.403141,0.445197 0,0 0.323253,-0.185891 0.464488,-0.118015 0.110249,0.05302 0.233124,0.265971 0.13633,0.340818 -0.435547,0.33681 -0.387167,0.299921 -0.387167,0.299921 0,0 0.261692,-0.0302 0.359894,0.04099 0.0813,0.05893 0.06268,0.205999 0.02725,0.299921 -0.125997,0.333813 -0.452419,0.588135 -0.777069,0.736171 -0.510983,0.232999 -1.67683,0.163591 -1.67683,0.163591 z"
       id="path22"
       sodipodi:nodetypes="cscsssccsccsscssscc"
       inkscape:label="mano_sx"
       transform="matrix(0.880733,0,0,0.880733,70.910614,78.50505)" /><path
       id="path21"
       style="display:inline;fill:#a09e9e;fill-opacity:1;stroke:#000000;stroke-width:0.368307;stroke-linecap:round;stroke-linejoin:bevel;stroke-miterlimit:4.7;paint-order:stroke fill markers"
       d="m 37.854363,47.772379 c 0.05847,0.292552 0.08368,0.553414 -0.01022,0.806794 -0.08073,0.218704 -0.305348,0.133218 -0.470085,0.139475 -0.218137,0.0079 -0.222315,0.107978 -0.220044,-0.530263 0.001,-0.296992 -0.09367,-0.896935 -0.426384,-1.168266 -0.124249,-0.101279 0.267312,-0.202774 0.376096,-0.211767 0.319938,-0.02657 0.626819,0.346848 0.730959,0.867653 z"
       sodipodi:nodetypes="ssssssss"
       inkscape:label="polsino_sx"
       transform="matrix(0.880733,0,0,0.880733,70.910614,78.50505)" /><path
       style="display:inline;fill:#a09e9e;fill-opacity:1;stroke:#000000;stroke-width:0.120165;stroke-linecap:round;stroke-linejoin:miter;stroke-miterlimit:4.7;stroke-dasharray:none;stroke-dashoffset:0;stroke-opacity:1;paint-order:normal"
       d="m 38.418723,46.836772 c 0,0 0.192396,-0.06972 0.282878,-0.12275 0.08595,-0.05041 0.235167,-0.177228 0.235167,-0.177228 m -0.10355,0.732356 c 0,0 0.124919,-0.0553 0.2154,-0.108319 0.08595,-0.05041 0.172516,-0.138668 0.172516,-0.138668 m -0.10355,0.823802 c 0,0 0.120093,-0.01669 0.210574,-0.06971 0.08595,-0.05041 0.100258,-0.08561 0.100258,-0.08561"
       id="path24"
       sodipodi:nodetypes="csccsccsc"
       transform="matrix(0.880733,0,0,0.880733,70.910614,78.50505)" /><g
       inkscape:groupmode="layer"
       id="layer11"
       inkscape:label="mano_sx"
       style="display:inline"><path
         style="display:inline;fill:#ffffff;fill-opacity:1;stroke:#000000;stroke-width:0.211667;stroke-linecap:round;stroke-linejoin:miter;stroke-miterlimit:4.7;stroke-dasharray:none;stroke-dashoffset:0;stroke-opacity:1;paint-order:normal"
         d="m 103.69065,120.18798 c 0,0 0.34891,-0.62155 0.33619,-0.96054 -0.0116,-0.30985 -0.26681,-0.84314 -0.26681,-0.84314 0,0 0.20524,-0.13315 0.38628,-0.0931 0.20019,0.0442 0.37651,0.29019 0.5084,0.4434 0.0996,0.11574 0.10915,0.23098 0.13971,0.36432 0.0239,0.10427 0.0489,0.28465 0.0489,0.28465 l 0.0615,-0.22934 c 0,0 0.29135,-0.35073 0.46681,-0.32297 0.24955,0.0395 0.55055,0.17971 0.55832,0.43224 -0.38522,0.40705 -0.35506,0.3921 -0.35506,0.3921 0,0 0.2847,-0.16372 0.40909,-0.10394 0.0971,0.0467 0.20532,0.23425 0.12007,0.30017 -0.3836,0.29664 -0.34099,0.26415 -0.34099,0.26415 0,0 0.23048,-0.0266 0.31697,0.0361 0.0716,0.0519 0.0552,0.18143 0.024,0.26415 -0.11097,0.294 -0.39846,0.51799 -0.68439,0.64837 -0.45004,0.20521 -1.47684,0.14408 -1.47684,0.14408 z"
         id="path67"
         sodipodi:nodetypes="cscsssccsccsscssscc"
         inkscape:label="mano_sx" /><path
         id="path68"
         style="display:inline;fill:#a09e9e;fill-opacity:1;stroke:#000000;stroke-width:0.328556;stroke-linecap:round;stroke-linejoin:bevel;stroke-miterlimit:4.7;paint-order:stroke fill markers"
         transform="matrix(0.89146443,-0.45309065,0.24253986,0.97014144,0,0)"
         d="m 73.755165,158.7372 c -0.01284,0.25959 -0.04791,0.48004 -0.185413,0.64584 -0.118695,0.14312 -0.296854,-0.0177 -0.442633,-0.0801 -0.193037,-0.0826 -0.218549,-0.004 -0.07668,-0.51721 0.06599,-0.2388 0.114496,-0.76079 -0.117731,-1.11558 -0.08671,-0.13248 0.278753,-0.0539 0.376089,-0.0166 0.286278,0.10954 0.473444,0.536 0.450595,0.99813 z"
         sodipodi:nodetypes="ssssssss"
         inkscape:label="polsino_sx" /><path
         style="fill:#a09e9e;fill-opacity:1;stroke:#000000;stroke-width:0.105833;stroke-linecap:round;stroke-linejoin:miter;stroke-miterlimit:4.7;stroke-dasharray:none;stroke-dashoffset:0;stroke-opacity:1;paint-order:normal"
         d="m 104.74725,119.75574 c 0,0 0.16945,-0.0614 0.24914,-0.10811 0.0757,-0.0444 0.20712,-0.15609 0.20712,-0.15609 m -0.0912,0.64501 c 0,0 0.11002,-0.0487 0.18971,-0.0954 0.0757,-0.0444 0.15194,-0.12213 0.15194,-0.12213 m -0.0912,0.72555 c 0,0 0.10577,-0.0147 0.18546,-0.0614 0.0757,-0.0444 0.0883,-0.0754 0.0883,-0.0754"
         id="path69"
         sodipodi:nodetypes="csccsccsc" /></g><path
       id="path25"
       style="display:inline;fill:#ffffff;fill-opacity:1;stroke:#000000;stroke-width:0.240331;stroke-linecap:round;stroke-miterlimit:4.7;stroke-dasharray:none;stroke-opacity:1"
       d="m 49.803126,41.781097 c -0.07108,-0.0034 -0.138884,0.0091 -0.198312,0.04871 0.0091,0.709511 0.01294,1.371732 0.01522,2.010189 0.387087,0.212812 1.024283,0.692957 1.327213,1.653441 0.207293,0.657294 -0.08027,1.50368 -0.488162,2.190903 -0.40791,0.687223 -0.85606,1.152948 -0.85606,1.152948 -0.0091,0.01022 -0.01805,0.02066 -0.02702,0.03111 -0.0057,0.323435 -0.01022,0.641465 -0.0159,0.962255 0.01942,0.02384 0.04008,0.04678 0.06279,0.06869 0.298524,0.286454 0.77272,0.277553 1.060242,-0.01998 0,0 0.528821,-0.623231 1.150599,-1.389411 0.721785,-0.889407 0.973632,-1.793575 0.776852,-3.327422 -0.314964,-2.455182 -2.440853,-3.263464 -2.440853,-3.263464 -0.111384,-0.05484 -0.243592,-0.111384 -0.366717,-0.117935 z"
       inkscape:label="braccio_dx"
       transform="matrix(0.880733,0,0,0.880733,70.910614,78.50505)" /><path
       style="display:inline;fill:#fffefe;fill-opacity:1;stroke:#000000;stroke-width:0.240331;stroke-linecap:round;stroke-linejoin:miter;stroke-miterlimit:4.7;stroke-dasharray:none;stroke-dashoffset:0;stroke-opacity:1;paint-order:normal"
       d="m 49.517989,48.886519 v 2.65094 c 0,0 0.164147,0.06438 0.250632,0.07709 0.391072,0.05723 0.817422,0.13441 1.185694,-0.0091 0.08482,-0.03304 0.1448,-0.112747 0.202434,-0.183154 0.262826,-0.321119 0.597673,-1.098937 0.597673,-1.098937 0,0 -0.431993,-0.28373 -0.665151,-0.202434 -0.286954,0.100031 -0.501264,0.761537 -0.501264,0.761537 l 0.337389,-1.089286 z"
       id="path26"
       sodipodi:nodetypes="ccssscsccc"
       inkscape:label="mano_sx"
       transform="matrix(0.880733,0,0,0.880733,70.910614,78.50505)" /><path
       style="display:inline;fill:#a09e9e;fill-opacity:1;stroke:#000000;stroke-width:0.240331;stroke-linecap:round;stroke-linejoin:miter;stroke-miterlimit:4.7;stroke-dasharray:none;stroke-dashoffset:0;stroke-opacity:1;paint-order:normal"
       d="m 49.597559,48.472693 -0.01362,0.872501 c 0,0 0.293767,0.259488 0.463512,0.354443 0.165714,0.09265 0.341999,0.195553 0.53167,0.2045 0.117845,0.0057 0.262861,-0.0068 0.340819,-0.09537 0.103209,-0.117209 0.111839,-0.349708 0.01362,-0.463511 -0.239641,-0.277735 -0.575578,-0.569617 -0.804342,-0.736171 -0.148081,-0.107751 -0.531625,-0.136398 -0.531625,-0.136398 z"
       id="path27"
       sodipodi:nodetypes="ccssssscc"
       inkscape:label="polsino_dx"
       transform="matrix(0.880733,0,0,0.880733,70.910614,78.50505)" /><path
       id="path70"
       style="display:inline;fill:#ffffff;fill-opacity:1;stroke:#000000;stroke-width:0.240331;stroke-linecap:round;stroke-linejoin:miter;stroke-miterlimit:4.7;stroke-dasharray:none;stroke-opacity:1;paint-order:normal"
       inkscape:label="braccio_sx"
       d="m 31.60412,44.562496 c -0.18241,0.607914 -0.13448,1.510798 0.08684,2.165423 0.290086,0.857922 1.174118,1.486262 1.81052,1.68957 0.541175,0.17289 1.139052,0.411305 1.9738,0.417255 0.467962,0.04337 1.183502,-0.0045 1.640701,-0.11252 0.45721,-0.107751 0.687666,-0.238801 0.687666,-0.238801 1.021672,-0.31392 0.703675,-1.985187 -0.536292,-1.605924 0,0 -0.319268,0.188275 -0.815571,0.258762 -1.372459,0.251336 -2.020498,-0.144902 -2.174472,-0.243502 -0.386792,-0.247657 -0.6612,-0.49989 -0.788582,-0.876599 -0.07948,-0.227038 -0.06143,-0.589827 0.01703,-0.84667 0.127689,-0.576168 0.760321,-1.011896 1.189146,-1.257918 0.0034,-0.736954 0.02384,-1.537367 0.03713,-2.364133 -2.270368,0.932848 -2.915531,2.30726 -3.127912,3.015057 z"
       sodipodi:nodetypes="ssscscccsccccs"
       transform="matrix(0.880733,0,0,0.880733,70.910614,78.50505)" /><g
       inkscape:groupmode="layer"
       id="g73"
       inkscape:label="mano_sx"
       style="display:inline"><path
         style="display:inline;fill:#ffffff;fill-opacity:1;stroke:#000000;stroke-width:0.211667;stroke-linecap:round;stroke-linejoin:miter;stroke-miterlimit:4.7;stroke-dasharray:none;stroke-dashoffset:0;stroke-opacity:1;paint-order:normal"
         d="m 103.69065,120.18798 c 0,0 0.34891,-0.62155 0.33619,-0.96054 -0.0116,-0.30985 -0.26681,-0.84314 -0.26681,-0.84314 0,0 0.20524,-0.13315 0.38628,-0.0931 0.20019,0.0442 0.37651,0.29019 0.5084,0.4434 0.0996,0.11574 0.10915,0.23098 0.13971,0.36432 0.0239,0.10427 0.0489,0.28465 0.0489,0.28465 l 0.0615,-0.22934 c 0,0 0.29135,-0.35073 0.46681,-0.32297 0.24955,0.0395 0.55055,0.17971 0.55832,0.43224 -0.38522,0.40705 -0.35506,0.3921 -0.35506,0.3921 0,0 0.2847,-0.16372 0.40909,-0.10394 0.0971,0.0467 0.20532,0.23425 0.12007,0.30017 -0.3836,0.29664 -0.34099,0.26415 -0.34099,0.26415 0,0 0.23048,-0.0266 0.31697,0.0361 0.0716,0.0519 0.0552,0.18143 0.024,0.26415 -0.11097,0.294 -0.39846,0.51799 -0.68439,0.64837 -0.45004,0.20521 -1.47684,0.14408 -1.47684,0.14408 z"
         id="path71"
         sodipodi:nodetypes="cscsssccsccsscssscc"
         inkscape:label="mano_sx" /><path
         id="path72"
         style="display:inline;fill:#a09e9e;fill-opacity:1;stroke:#000000;stroke-width:0.328556;stroke-linecap:round;stroke-linejoin:bevel;stroke-miterlimit:4.7;paint-order:stroke fill markers"
         transform="matrix(0.89146443,-0.45309065,0.24253986,0.97014144,0,0)"
         d="m 73.755165,158.7372 c -0.01284,0.25959 -0.04791,0.48004 -0.185413,0.64584 -0.118695,0.14312 -0.296854,-0.0177 -0.442633,-0.0801 -0.193037,-0.0826 -0.218549,-0.004 -0.07668,-0.51721 0.06599,-0.2388 0.114496,-0.76079 -0.117731,-1.11558 -0.08671,-0.13248 0.278753,-0.0539 0.376089,-0.0166 0.286278,0.10954 0.473444,0.536 0.450595,0.99813 z"
         sodipodi:nodetypes="ssssssss"
         inkscape:label="polsino_sx" /><path
         style="fill:#a09e9e;fill-opacity:1;stroke:#000000;stroke-width:0.105833;stroke-linecap:round;stroke-linejoin:miter;stroke-miterlimit:4.7;stroke-dasharray:none;stroke-dashoffset:0;stroke-opacity:1;paint-order:normal"
         d="m 104.74725,119.75574 c 0,0 0.16945,-0.0614 0.24914,-0.10811 0.0757,-0.0444 0.20712,-0.15609 0.20712,-0.15609 m -0.0912,0.64501 c 0,0 0.11002,-0.0487 0.18971,-0.0954 0.0757,-0.0444 0.15194,-0.12213 0.15194,-0.12213 m -0.0912,0.72555 c 0,0 0.10577,-0.0147 0.18546,-0.0614 0.0757,-0.0444 0.0883,-0.0754 0.0883,-0.0754"
         id="path73"
         sodipodi:nodetypes="csccsccsc" /></g><path
       id="path74"
       style="display:inline;fill:#ffffff;fill-opacity:1;stroke:#000000;stroke-width:0.240331;stroke-linecap:round;stroke-miterlimit:4.7;stroke-dasharray:none;stroke-opacity:1"
       d="m 49.803126,41.781097 c -0.07108,-0.0034 -0.138884,0.0091 -0.198312,0.04871 0.0091,0.709511 0.01294,1.371732 0.01522,2.010189 0.387087,0.212812 1.024283,0.692957 1.327213,1.653441 0.207293,0.657294 -0.08027,1.50368 -0.488162,2.190903 -0.40791,0.687223 -0.85606,1.152948 -0.85606,1.152948 -0.0091,0.01022 -0.01805,0.02066 -0.02702,0.03111 -0.0057,0.323435 -0.01022,0.641465 -0.0159,0.962255 0.01942,0.02384 0.04008,0.04678 0.06279,0.06869 0.298524,0.286454 0.77272,0.277553 1.060242,-0.01998 0,0 0.528821,-0.623231 1.150599,-1.389411 0.721785,-0.889407 0.973632,-1.793575 0.776852,-3.327422 -0.314964,-2.455182 -2.440853,-3.263464 -2.440853,-3.263464 -0.111384,-0.05484 -0.243592,-0.111384 -0.366717,-0.117935 z"
       inkscape:label="braccio_dx"
       transform="matrix(0.880733,0,0,0.880733,70.910614,78.50505)" /><path
       style="display:inline;fill:#fffefe;fill-opacity:1;stroke:#000000;stroke-width:0.240331;stroke-linecap:round;stroke-linejoin:miter;stroke-miterlimit:4.7;stroke-dasharray:none;stroke-dashoffset:0;stroke-opacity:1;paint-order:normal"
       d="m 49.517989,48.886519 v 2.65094 c 0,0 0.164147,0.06438 0.250632,0.07709 0.391072,0.05723 0.817422,0.13441 1.185694,-0.0091 0.08482,-0.03304 0.1448,-0.112747 0.202434,-0.183154 0.262826,-0.321119 0.597673,-1.098937 0.597673,-1.098937 0,0 -0.431993,-0.28373 -0.665151,-0.202434 -0.286954,0.100031 -0.501264,0.761537 -0.501264,0.761537 l 0.337389,-1.089286 z"
       id="path75"
       sodipodi:nodetypes="ccssscsccc"
       inkscape:label="mano_sx"
       transform="matrix(0.880733,0,0,0.880733,70.910614,78.50505)" /><path
       style="display:inline;fill:#a09e9e;fill-opacity:1;stroke:#000000;stroke-width:0.240331;stroke-linecap:round;stroke-linejoin:miter;stroke-miterlimit:4.7;stroke-dasharray:none;stroke-dashoffset:0;stroke-opacity:1;paint-order:normal"
       d="m 49.597559,48.472693 -0.01362,0.872501 c 0,0 0.293767,0.259488 0.463512,0.354443 0.165714,0.09265 0.341999,0.195553 0.53167,0.2045 0.117845,0.0057 0.262861,-0.0068 0.340819,-0.09537 0.103209,-0.117209 0.111839,-0.349708 0.01362,-0.463511 -0.239641,-0.277735 -0.575578,-0.569617 -0.804342,-0.736171 -0.148081,-0.107751 -0.531625,-0.136398 -0.531625,-0.136398 z"
       id="path76"
       sodipodi:nodetypes="ccssssscc"
       inkscape:label="polsino_dx"
       transform="matrix(0.880733,0,0,0.880733,70.910614,78.50505)" /><g
       inkscape:groupmode="layer"
       id="layer8"
       inkscape:label="braccia"
       style="display:inline" /><path
       style="display:inline;fill:none;fill-opacity:1;stroke:#000000;stroke-width:0.150207;stroke-linecap:round;stroke-linejoin:miter;stroke-miterlimit:4.7;stroke-dasharray:none;stroke-dashoffset:0;stroke-opacity:1;paint-order:normal"
       d="m 37.996109,37.293857 c 0,0 0.15252,-0.502695 0.434445,-0.729552 0.09992,-0.08039 0.329032,-0.200162 0.490932,-0.220589 0.193906,-0.02453 0.615124,0.09129 0.615124,0.09129"
       id="path28"
       sodipodi:nodetypes="cssc"
       inkscape:label="dettaglio1"
       transform="matrix(0.880733,0,0,0.880733,70.910614,78.50505)" /><path
       style="display:inline;fill:none;fill-opacity:1;stroke:#000000;stroke-width:0.240331;stroke-linecap:round;stroke-linejoin:miter;stroke-miterlimit:4.7;stroke-dasharray:none;stroke-dashoffset:0;stroke-opacity:1;paint-order:normal"
       d="m 37.005536,35.371526 c 0,0 0.620813,-0.626433 1.060378,-0.790466 0.35651,-0.133037 0.859057,-0.190853 1.233893,-0.125316 0.386655,0.06756 1.050738,0.481996 1.050738,0.481996 m 4.159706,-0.124942 c 0,0 0.80156,-0.298671 1.25785,-0.189489 0.491466,0.117595 0.922947,0.584036 1.000405,0.840232"
       id="path29"
       sodipodi:nodetypes="cssccsc"
       inkscape:label="sopracciglia"
       transform="matrix(0.880733,0,0,0.880733,70.910614,78.50505)" /><path
       style="display:inline;fill:none;fill-opacity:1;stroke:#000000;stroke-width:0.150207;stroke-linecap:round;stroke-linejoin:miter;stroke-miterlimit:4.7;stroke-dasharray:none;stroke-dashoffset:0;stroke-opacity:1;paint-order:normal"
       d="m 46.189375,36.734925 c 0,0 0.344463,0.190784 0.531671,0.490773 0.150352,0.240913 0.125134,0.759435 0.125134,0.759435"
       id="path30"
       sodipodi:nodetypes="csc"
       transform="matrix(0.880733,0,0,0.880733,70.910614,78.50505)" /><path
       style="display:inline;fill:none;fill-opacity:1;stroke:#000000;stroke-width:0.132292;stroke-linecap:round;stroke-linejoin:miter;stroke-miterlimit:4.7;stroke-dasharray:none;stroke-dashoffset:0;stroke-opacity:1;paint-order:normal"
       d="m 104.37504,111.35098 c 0,0 0.13433,-0.44274 0.38263,-0.64254 0.088,-0.0708 0.28979,-0.17629 0.43238,-0.19428 0.17078,-0.0216 0.54176,0.0804 0.54176,0.0804"
       id="path77"
       sodipodi:nodetypes="cssc"
       inkscape:label="dettaglio1" /><path
       style="display:inline;fill:none;fill-opacity:1;stroke:#000000;stroke-width:0.211667;stroke-linecap:round;stroke-linejoin:miter;stroke-miterlimit:4.7;stroke-dasharray:none;stroke-dashoffset:0;stroke-opacity:1;paint-order:normal"
       d="m 103.50261,109.65792 c 0,0 0.54677,-0.55172 0.93391,-0.69619 0.31399,-0.11717 0.7566,-0.16809 1.08673,-0.11037 0.34054,0.0595 0.92542,0.42451 0.92542,0.42451 m 3.66359,-0.11004 c 0,0 0.70596,-0.26305 1.10783,-0.16689 0.43285,0.10357 0.81287,0.51438 0.88109,0.74002"
       id="path78"
       sodipodi:nodetypes="cssccsc"
       inkscape:label="sopracciglia" /><path
       style="display:inline;fill:none;fill-opacity:1;stroke:#000000;stroke-width:0.132292;stroke-linecap:round;stroke-linejoin:miter;stroke-miterlimit:4.7;stroke-dasharray:none;stroke-dashoffset:0;stroke-opacity:1;paint-order:normal"
       d="m 111.59112,110.85871 c 0,0 0.30338,0.16803 0.46826,0.43224 0.13242,0.21218 0.11021,0.66886 0.11021,0.66886"
       id="path79"
       sodipodi:nodetypes="csc" /><g
       inkscape:groupmode="layer"
       id="layer12"
       inkscape:label="dettagli_occhi"
       style="display:inline"><path
         style="display:inline;fill:none;fill-opacity:1;stroke:#000000;stroke-width:0.132292;stroke-linecap:round;stroke-linejoin:miter;stroke-miterlimit:4.7;stroke-dasharray:none;stroke-dashoffset:0;stroke-opacity:1;paint-order:normal"
         d="m 104.37504,111.35098 c 0,0 0.13433,-0.44274 0.38263,-0.64254 0.088,-0.0708 0.28979,-0.17629 0.43238,-0.19428 0.17078,-0.0216 0.54176,0.0804 0.54176,0.0804"
         id="path6"
         sodipodi:nodetypes="cssc"
         inkscape:label="dettaglio1" /><path
         style="fill:none;fill-opacity:1;stroke:#000000;stroke-width:0.211667;stroke-linecap:round;stroke-linejoin:miter;stroke-miterlimit:4.7;stroke-dasharray:none;stroke-dashoffset:0;stroke-opacity:1;paint-order:normal"
         d="m 103.50261,109.65792 c 0,0 0.54677,-0.55172 0.93391,-0.69619 0.31399,-0.11717 0.7566,-0.16809 1.08673,-0.11037 0.34054,0.0595 0.92542,0.42451 0.92542,0.42451 m 3.66359,-0.11004 c 0,0 0.70596,-0.26305 1.10783,-0.16689 0.43285,0.10357 0.81287,0.51438 0.88109,0.74002"
         id="path7"
         sodipodi:nodetypes="cssccsc"
         inkscape:label="sopracciglia" /><path
         style="fill:none;fill-opacity:1;stroke:#000000;stroke-width:0.132292;stroke-linecap:round;stroke-linejoin:miter;stroke-miterlimit:4.7;stroke-dasharray:none;stroke-dashoffset:0;stroke-opacity:1;paint-order:normal"
         d="m 111.59112,110.85871 c 0,0 0.30338,0.16803 0.46826,0.43224 0.13242,0.21218 0.11021,0.66886 0.11021,0.66886"
         id="path8"
         sodipodi:nodetypes="csc" /></g><g
       inkscape:groupmode="layer"
       id="layer10"
       inkscape:label="braccia 1"
       style="display:inline" /><path
       style="display:inline;fill:#f85e15;fill-opacity:1;stroke:#000000;stroke-width:0.150207;stroke-linecap:round;stroke-linejoin:round;stroke-miterlimit:4.7;stroke-dasharray:none;stroke-dashoffset:0;stroke-opacity:1;paint-order:normal"
       d="m 44.434314,30.546522 c 0,0 -0.159469,0.575112 -0.150738,0.872694 0.0023,0.08731 0.01783,0.186345 0.0771,0.250632 0.09379,0.101847 0.250621,0.123443 0.385588,0.154235 0.552642,0.126077 1.165506,-0.08243 1.696598,0.115677 0.460015,0.171629 0.818954,0.549894 1.176055,0.886863 0.447661,0.422433 0.856025,0.893869 1.195334,1.407408 0.09503,0.14388 0.183517,0.297036 0.231364,0.462716 0.163034,0.564598 0.07721,1.215567 0.173514,1.754437 0.02634,0.14715 0.06188,0.332768 0.192794,0.404867 0.09435,0.05189 0.32163,0.06903 0.320733,-0.0386 -0.01487,-1.78591 0.02271,-3.733413 -0.108659,-5.417556 -0.03179,-0.408148 -0.44916,-0.845318 -0.857945,-0.867584 -0.933768,-0.05087 -4.331733,0.01419 -4.331733,0.01419 z"
       id="path31"
       sodipodi:nodetypes="csssssssssssscc"
       inkscape:label="cerotto_inferiore"
       transform="matrix(0.880733,0,0,0.880733,70.910614,78.50505)" /><path
       style="display:inline;fill:#f85e15;fill-opacity:1;stroke:#000000;stroke-width:0.150207;stroke-linecap:round;stroke-linejoin:miter;stroke-miterlimit:4.7;stroke-dasharray:none;stroke-dashoffset:0;stroke-opacity:1;paint-order:normal"
       d="m 48.012425,30.549077 c 0,0 -2.180513,2.462937 -3.077255,3.854642 -0.06086,0.09447 -0.0023,0.253028 0.08175,0.327193 0.521815,0.458107 1.316233,0.940705 1.672141,1.218962 0.166577,0.130232 0.4427,0.01805 0.578904,-0.143687 0.527538,-0.626387 2.490801,-2.598211 2.490801,-2.598211 0,0 -0.02282,-1.190781 -0.06654,-1.789873 -0.03213,-0.44111 -0.161536,-0.88851 -0.880176,-0.890712 -0.281549,-8.63e-4 -0.528911,-0.0034 -0.799629,0.02169 z"
       id="path32"
       sodipodi:nodetypes="csssscssc"
       inkscape:label="cerotto_superiore"
       transform="matrix(0.880733,0,0,0.880733,70.910614,78.50505)" /><path
       style="display:inline;fill:#ffffff;fill-opacity:1;stroke:#000000;stroke-width:0.150207;stroke-linecap:round;stroke-linejoin:miter;stroke-miterlimit:4.7;stroke-dasharray:none;stroke-dashoffset:0;stroke-opacity:1;paint-order:normal"
       d="m 49.068625,30.576157 c 0,0 -1.364103,1.476747 -1.603914,1.768481 -0.08379,0.101847 -0.08448,0.313762 0.0193,0.395228 0.201616,0.158323 0.367171,0.299194 0.578382,0.433786 0.127825,0.08141 0.344497,0.0671 0.453077,-0.0386 0.213935,-0.208349 0.481451,-0.446071 0.682375,-0.645451 0.07971,-0.07903 0.512959,-0.489422 0.512959,-0.489422 0,0 0.01306,-0.434978 -0.0243,-0.761048 -0.02021,-0.176251 -0.103437,-0.374324 -0.209735,-0.458243 -0.12845,-0.101393 -0.408194,-0.204727 -0.408194,-0.204727 z"
       id="path33"
       sodipodi:nodetypes="cssssscssc"
       inkscape:label="bianco_cerotto"
       transform="matrix(0.880733,0,0,0.880733,70.910614,78.50505)" /><path
       style="display:inline;fill:#f85e15;fill-opacity:1;stroke:#000000;stroke-width:0.150207;stroke-linecap:round;stroke-linejoin:round;stroke-miterlimit:4.7;stroke-dasharray:none;stroke-dashoffset:0;stroke-opacity:1;paint-order:normal"
       d="m 44.434314,30.546522 c 0,0 -0.159469,0.575112 -0.150738,0.872694 0.0023,0.08731 0.01783,0.186345 0.0771,0.250632 0.09379,0.101847 0.250621,0.123443 0.385588,0.154235 0.552642,0.126077 1.165506,-0.08243 1.696598,0.115677 0.460015,0.171629 0.818954,0.549894 1.176055,0.886863 0.447661,0.422433 0.856025,0.893869 1.195334,1.407408 0.09503,0.14388 0.183517,0.297036 0.231364,0.462716 0.163034,0.564598 0.07721,1.215567 0.173514,1.754437 0.02634,0.14715 0.06188,0.332768 0.192794,0.404867 0.09435,0.05189 0.32163,0.06903 0.320733,-0.0386 -0.01487,-1.78591 0.02271,-3.733413 -0.108659,-5.417556 -0.03179,-0.408148 -0.44916,-0.845318 -0.857945,-0.867584 -0.933768,-0.05087 -4.331733,0.01419 -4.331733,0.01419 z"
       id="path80"
       sodipodi:nodetypes="csssssssssssscc"
       inkscape:label="cerotto_inferiore"
       transform="matrix(0.880733,0,0,0.880733,70.910614,78.50505)" /><path
       style="display:inline;fill:#f85e15;fill-opacity:1;stroke:#000000;stroke-width:0.150207;stroke-linecap:round;stroke-linejoin:miter;stroke-miterlimit:4.7;stroke-dasharray:none;stroke-dashoffset:0;stroke-opacity:1;paint-order:normal"
       d="m 48.012425,30.549077 c 0,0 -2.180513,2.462937 -3.077255,3.854642 -0.06086,0.09447 -0.0023,0.253028 0.08175,0.327193 0.521815,0.458107 1.316233,0.940705 1.672141,1.218962 0.166577,0.130232 0.4427,0.01805 0.578904,-0.143687 0.527538,-0.626387 2.490801,-2.598211 2.490801,-2.598211 0,0 -0.02282,-1.190781 -0.06654,-1.789873 -0.03213,-0.44111 -0.161536,-0.88851 -0.880176,-0.890712 -0.281549,-8.63e-4 -0.528911,-0.0034 -0.799629,0.02169 z"
       id="path81"
       sodipodi:nodetypes="csssscssc"
       inkscape:label="cerotto_superiore"
       transform="matrix(0.880733,0,0,0.880733,70.910614,78.50505)" /><path
       style="display:inline;fill:#ffffff;fill-opacity:1;stroke:#000000;stroke-width:0.150207;stroke-linecap:round;stroke-linejoin:miter;stroke-miterlimit:4.7;stroke-dasharray:none;stroke-dashoffset:0;stroke-opacity:1;paint-order:normal"
       d="m 49.068625,30.576157 c 0,0 -1.364103,1.476747 -1.603914,1.768481 -0.08379,0.101847 -0.08448,0.313762 0.0193,0.395228 0.201616,0.158323 0.367171,0.299194 0.578382,0.433786 0.127825,0.08141 0.344497,0.0671 0.453077,-0.0386 0.213935,-0.208349 0.481451,-0.446071 0.682375,-0.645451 0.07971,-0.07903 0.512959,-0.489422 0.512959,-0.489422 0,0 0.01306,-0.434978 -0.0243,-0.761048 -0.02021,-0.176251 -0.103437,-0.374324 -0.209735,-0.458243 -0.12845,-0.101393 -0.408194,-0.204727 -0.408194,-0.204727 z"
       id="path82"
       sodipodi:nodetypes="cssssscssc"
       inkscape:label="bianco_cerotto"
       transform="matrix(0.880733,0,0,0.880733,70.910614,78.50505)" /><g
       inkscape:groupmode="layer"
       id="layer14"
       inkscape:label="cerotto"
       style="display:inline" /></g><text
     xml:space="preserve"
     style="font-weight:bold;font-size:38.0523px;font-family:Ebrima;-inkscape-font-specification:'Ebrima Bold';text-align:start;writing-mode:lr-tb;direction:ltr;text-anchor:start;display:inline;fill:#525252;fill-opacity:1;stroke:#000000;stroke-width:0.113542;stroke-linecap:round;stroke-linejoin:round;stroke-miterlimit:4.7;stroke-dasharray:none;stroke-dashoffset:0;stroke-opacity:1;paint-order:normal"
     x="86.990196"
     y="66.788185"
     id="text82"
     inkscape:label="testo_smartlab"><tspan
       sodipodi:role="line"
       id="tspan82"
       style="font-style:normal;font-variant:normal;font-weight:normal;font-stretch:normal;font-size:38.0523px;font-family:Audiowide;-inkscape-font-specification:Audiowide;fill:#ffffff;fill-opacity:1;stroke:none;stroke-width:0.113542"
       x="86.990196"
       y="66.788185">SmartLab</tspan></text><text
     xml:space="preserve"
     transform="matrix(0.30041265,0,0,0.30041265,-20.312684,-7.1094395)"
     id="text1"
     style="font-weight:bold;font-size:173.333px;font-family:Ebrima;-inkscape-font-specification:'Ebrima Bold';text-align:start;writing-mode:lr-tb;direction:ltr;white-space:pre;shape-inside:url(#rect1);display:inline;fill:#ffffff;fill-opacity:1;stroke:none;stroke-width:5.33333;stroke-linecap:round;stroke-linejoin:round;stroke-miterlimit:4.7;paint-order:markers fill stroke" /><text
     xml:space="preserve"
     transform="matrix(0.30041265,0,0,0.30041265,-20.312684,-7.1094395)"
     id="text2"
     style="font-weight:bold;font-size:173.333px;font-family:Ebrima;-inkscape-font-specification:'Ebrima Bold';text-align:start;writing-mode:lr-tb;direction:ltr;white-space:pre;shape-inside:url(#rect2);display:inline;fill:#ffffff;fill-opacity:1;stroke:none;stroke-width:5.33333;stroke-linecap:round;stroke-linejoin:round;stroke-miterlimit:4.7;paint-order:markers fill stroke" /></svg>
